<svg xmlns="http://www.w3.org/2000/svg" width="166" height="377" viewBox="0 0 166 377">
  <metadata><?xpacket begin="﻿" id="W5M0MpCehiHzreSzNTczkc9d"?>
<x:xmpmeta xmlns:x="adobe:ns:meta/" x:xmptk="Adobe XMP Core 5.6-c138 79.159824, 2016/09/14-01:09:01        ">
   <rdf:RDF xmlns:rdf="http://www.w3.org/1999/02/22-rdf-syntax-ns#">
      <rdf:Description rdf:about=""/>
   </rdf:RDF>
</x:xmpmeta>
                                                                                                    
                                                                                                    
                                                                                                    
                                                                                                    
                                                                                                    
                                                                                                    
                                                                                                    
                                                                                                    
                                                                                                    
                                                                                                    
                                                                                                    
                                                                                                    
                                                                                                    
                                                                                                    
                                                                                                    
                                                                                                    
                                                                                                    
                                                                                                    
                                                                                                    
                                                                                                    
                           
<?xpacket end="w"?></metadata>
<defs>
    <style>
      .cls-1 {
        fill: #fff;
        fill-rule: evenodd;
      }
    </style>
  </defs>
  <path id="Shape_540_copy_2" data-name="Shape 540 copy 2" class="cls-1" d="M1216.62,11817l-6.54-5.9,42.33-47.7a64.99,64.99,0,0,0-.58-69.1l-16.77-26.1a74.388,74.388,0,0,1,2.03-82.8l12.85-18a64.875,64.875,0,0,0,3.74-69.4l-43.69-52.3,6.71-5.7,44.4,53.2a74.075,74.075,0,0,1-4.03,79.5l-12.85,17.9a65.291,65.291,0,0,0-1.79,72.7l16.77,26.1a74.141,74.141,0,0,1,.45,79.1l-0.45.6Zm53.14,0-6.54-5.9,42.34-47.7a65.011,65.011,0,0,0-.59-69.1l-16.77-26.1a74.407,74.407,0,0,1,2.03-82.8l12.85-18a64.875,64.875,0,0,0,3.74-69.4l-43.69-52.3,6.72-5.7,44.39,53.2a74.055,74.055,0,0,1-4.03,79.5l-12.85,17.9a65.291,65.291,0,0,0-1.79,72.7l16.78,26.1a74.162,74.162,0,0,1,.44,79.1l-0.44.6Zm52,0-6.54-5.9,42.34-47.7a65.011,65.011,0,0,0-.59-69.1l-16.77-26.1a74.407,74.407,0,0,1,2.03-82.8l12.85-18a64.875,64.875,0,0,0,3.74-69.4l-43.69-52.3,6.72-5.7,44.39,53.2a74.055,74.055,0,0,1-4.03,79.5l-12.85,17.9a65.291,65.291,0,0,0-1.79,72.7l16.78,26.1a74.162,74.162,0,0,1,.44,79.1l-0.44.6Z" transform="translate(-1210 -11440)"/>
</svg>
