<svg xmlns="http://www.w3.org/2000/svg" width="105" height="87" viewBox="0 0 105 87">
  <metadata><?xpacket begin="﻿" id="W5M0MpCehiHzreSzNTczkc9d"?>
<x:xmpmeta xmlns:x="adobe:ns:meta/" x:xmptk="Adobe XMP Core 5.6-c138 79.159824, 2016/09/14-01:09:01        ">
   <rdf:RDF xmlns:rdf="http://www.w3.org/1999/02/22-rdf-syntax-ns#">
      <rdf:Description rdf:about=""/>
   </rdf:RDF>
</x:xmpmeta>
                                                                                                    
                                                                                                    
                                                                                                    
                                                                                                    
                                                                                                    
                                                                                                    
                                                                                                    
                                                                                                    
                                                                                                    
                                                                                                    
                                                                                                    
                                                                                                    
                                                                                                    
                                                                                                    
                                                                                                    
                                                                                                    
                                                                                                    
                                                                                                    
                                                                                                    
                                                                                                    
                           
<?xpacket end="w"?></metadata>
<defs>
    <style>
      .cls-1 {
        fill: #fff;
        fill-rule: evenodd;
      }
    </style>
  </defs>
  <path class="cls-1" d="M1600.32,11476.4a30.086,30.086,0,0,1-20.63,8.6v-18.9a35.22,35.22,0,0,0,24.25-10.1l5.06-5-3.61-3.7-5.07,5a30.086,30.086,0,0,1-20.63,8.6v-18.6h15.13l-17.71-20.3-17.72,20.3h15.14v18.3a30.124,30.124,0,0,1-15.98-7.8l-0.53-.5a39.052,39.052,0,0,0-21.31-10.1v-19.7h-5.16v19.3a39.6,39.6,0,0,0-27.55,10.6l3.52,3.8a34.464,34.464,0,0,1,24.03-9.3v19a39.157,39.157,0,0,0-27.55,10.6l3.52,3.8a34.464,34.464,0,0,1,24.03-9.3v17.7h-15.14l17.72,20.3,17.71-20.3h-15.13v-17.2a33.334,33.334,0,0,1,17.79,8.7l0.53,0.5a35.868,35.868,0,0,0,19.5,9.2v18.6h5.16v-18.3a35.331,35.331,0,0,0,24.25-10.2l5.06-4.9-3.61-3.7Zm-41.77.5-0.53-.5a39.052,39.052,0,0,0-21.31-10.1v-18.9a34.065,34.065,0,0,1,17.79,8.7l0.53,0.5a35.868,35.868,0,0,0,19.5,9.2v18.9A30.124,30.124,0,0,1,1558.55,11476.9Z" transform="translate(-1504 -11422)"/>
</svg>
