<svg xmlns="http://www.w3.org/2000/svg" width="595" height="161" viewBox="0 0 595 161">
  <metadata><?xpacket begin="﻿" id="W5M0MpCehiHzreSzNTczkc9d"?>
<x:xmpmeta xmlns:x="adobe:ns:meta/" x:xmptk="Adobe XMP Core 5.6-c138 79.159824, 2016/09/14-01:09:01        ">
   <rdf:RDF xmlns:rdf="http://www.w3.org/1999/02/22-rdf-syntax-ns#">
      <rdf:Description rdf:about=""/>
   </rdf:RDF>
</x:xmpmeta>
                                                                                                    
                                                                                                    
                                                                                                    
                                                                                                    
                                                                                                    
                                                                                                    
                                                                                                    
                                                                                                    
                                                                                                    
                                                                                                    
                                                                                                    
                                                                                                    
                                                                                                    
                                                                                                    
                                                                                                    
                                                                                                    
                                                                                                    
                                                                                                    
                                                                                                    
                                                                                                    
                           
<?xpacket end="w"?></metadata>
<defs>
    <style>
      .cls-1 {
        fill: #fff;
        fill-rule: evenodd;
      }
    </style>
  </defs>
  <path class="cls-1" d="M1788.49,5839.01a1.811,1.811,0,0,0,1.61-1.09,27.875,27.875,0,0,0,50.96,3.78,1.756,1.756,0,0,0,1.49.84h188.41a1.7,1.7,0,0,0,.9-0.27,27.852,27.852,0,0,0,48.49.31l8.61,3.04a1.8,1.8,0,0,0,2.4-1.71v-4.05l18.51-5.06a1.811,1.811,0,0,0,1.23-2.32l-1.61-4.85c1.11-3.38,5.99-19.75.73-30.15a14.742,14.742,0,0,0-8.04-7.32v-11.37a1.809,1.809,0,0,0-.53-1.28c-0.75-.76-18.77-18.47-53.07-20.41l-68.2-36.01c-1.19-.6-30.44-14.61-130.7-7.43-1.78.08-43.8,1.91-60.15,9.2a1.8,1.8,0,0,0-.71,2.74l4.05,5.43c-8.04,3.91-35.63,20.06-31.58,55.91l-4.49,3a1.82,1.82,0,0,0-.8,1.51v27.13a1.679,1.679,0,0,0,.07.5C1756.13,5819.28,1762.13,5839.58,1788.49,5839.01Zm27.91,13.95a24.425,24.425,0,1,1,24.34-24.43A24.414,24.414,0,0,1,1816.4,5852.96Zm239.8,0a24.425,24.425,0,1,1,24.35-24.43A24.414,24.414,0,0,1,2056.2,5852.96Zm-296.59-60.54,4.6-3.08a1.815,1.815,0,0,0,.79-1.74c-5.16-39.66,29.82-53.58,31.31-54.16a1.808,1.808,0,0,0,.8-2.77l-4-5.36c17.12-6.3,56.31-8.01,56.78-8.03,51.69-3.71,83.98-1.6,101.96.83,19.5,2.63,26.85,6.18,26.89,6.2l68.51,36.18a1.957,1.957,0,0,0,.75.21c29.94,1.58,47.39,16.01,50.58,18.87v11.88a1.8,1.8,0,0,0,1.28,1.73,11.237,11.237,0,0,1,7.14,5.94c5.07,10.01-1.05,27.73-1.11,27.91a1.8,1.8,0,0,0-.01,1.17l1.2,3.61-17.99,4.93a1.8,1.8,0,0,0-1.33,1.74v2.88l-5.77-2.03a27.952,27.952,0,1,0-51.72-.4H1842.55a1.846,1.846,0,0,0-.23.04,27.971,27.971,0,1,0-52.9-3.26,1.854,1.854,0,0,0-1-.32c-22.29.52-28.12-14.94-28.81-17.08v-25.89Zm30.75-38.96c13.65-.81,28.93-1.15,31.28-0.35,0.9,0.74,2.26.78,4.58,0.86,6.37,0.22,21.3.72,40.39,17.14a1.781,1.781,0,0,0,1.18.44h39.66c3.47,0,9.79-1.94,10.71-9.04h104.69a1.81,1.81,0,0,0,0-3.62H1916.47a1.8,1.8,0,0,0-1.8,1.81c0,6.97-6.48,7.23-7.22,7.23h-39c-19.81-16.82-35.42-17.35-42.11-17.57a24.364,24.364,0,0,1-2.56-.17c-0.94-.73-4.8-2.04-33.63-0.34a1.8,1.8,0,0,0-1.69,1.91A1.815,1.815,0,0,0,1790.36,5753.46Zm331.66,56.3c1.63,27.9-2.84,32.65-2.81,32.64h0a1.833,1.833,0,0,0-.8,1.51v16.28a1.807,1.807,0,0,0,1.8,1.81h37.87a1.807,1.807,0,0,0,1.8-1.81v-14.47h128.01v14.47a1.81,1.81,0,0,0,1.81,1.81h37.86a1.8,1.8,0,0,0,1.8-1.81V5845.1c4.03-1.99,16.45-10.24,18.02-37.17l3.61-32.56a1.34,1.34,0,0,0,.01-0.2c0-.83-0.36-19.42-29.15-30.81a1.45,1.45,0,0,0,.3.06,1.526,1.526,0,0,0,.3-0.03l10.82-1.81a1.8,1.8,0,0,0,1.11-.65c0.32-.41,3.14-4.11,1.47-7.61-1.41-2.95-5.3-4.38-11.9-4.38-5.33,0-8.75,1.12-10.41,3.4a82.381,82.381,0,0,0-5.49-8.54c-9.44-12.84-21.33-20.44-34.52-21.99l-52.29-1.81c-0.02,0-.04.01-0.06,0.01s-0.04-.01-0.07-0.01l-47.02,1.82c-13.04,1.54-24.92,9.14-34.37,21.98a82.182,82.182,0,0,0-5.48,8.54c-1.66-2.28-5.08-3.4-10.42-3.4-6.59,0-10.49,1.43-11.9,4.38-1.67,3.5,1.15,7.2,1.48,7.61a1.745,1.745,0,0,0,1.11.65l10.81,1.81a1.6,1.6,0,0,0,.3.03,1.813,1.813,0,0,0,.3-3.6l-10.07-1.68c-0.51-.85-1.15-2.28-0.67-3.26,0.34-.7,1.85-2.32,8.64-2.32,4.23,0,7.04.82,7.71,2.25,0.82,1.74-1.14,4.73-1.88,5.64a1.777,1.777,0,0,0-.32,1.65c-9.84,3.52-15.88,8.79-17.95,15.69-3.07,10.28,3.82,20.48,5.33,22.55Zm194.22-73.95c0.67-1.43,3.48-2.25,7.71-2.25,6.79,0,8.31,1.62,8.64,2.32,0.48,0.98-.16,2.41-0.67,3.26l-10.06,1.68a1.815,1.815,0,0,0-1.49,2.08,1.779,1.779,0,0,0,.75,1.17c-0.86-.34-1.76-0.66-2.68-0.98a1.781,1.781,0,0,0-.31-1.64C2317.38,5740.54,2315.42,5737.55,2316.24,5735.81Zm-201.4,24c1.79-5.96,7.43-10.56,16.76-13.68a1.8,1.8,0,0,0,1.13-1.12c0.12-.35,12.59-35.15,41.64-38.59l46.82-1.8,52.07,1.79c29.15,3.45,41.66,38.25,41.78,38.6a1.821,1.821,0,0,0,1.13,1.12c29.94,10.02,31.17,27.43,31.22,28.95l-3.6,32.54c-0.89,15.22-5.44,23.82-9.1,28.36-3.92,4.85-7.67,6.2-7.7,6.21a1.808,1.808,0,0,0-1.23,1.72v14.47H2291.5v-14.47a1.807,1.807,0,0,0-1.8-1.81H2158.08a1.81,1.81,0,0,0-1.81,1.81v14.47h-34.25v-13.76c1.75-2.25,5.08-9.92,3.6-35.19-0.01-.07-0.02-0.15-0.03-0.22l-5.41-28.95a1.778,1.778,0,0,0-.35-0.78C2119.75,5779.38,2112,5769.28,2114.84,5759.81Zm45.04,31.61a0.94,0.94,0,0,0,.45.43c0.29,0.13,7.19,3.14,20.31,3.14,13.09,0,20.79-3,21.11-3.13a0.9,0.9,0,0,0,.48-0.44c6.11-12.65.46-21.1-.6-22.51a6.751,6.751,0,0,0,2.47-2.92c0.11-.48,2.85-11.74-1.89-17.16-0.16-.22-1.44-1.83-5.01-1.59a9.152,9.152,0,0,0,3.01-2.76c3.5-4.87,4.42-14.23,1.67-16.98-3.92-3.94-9.31-2.59-9.54-2.53a0.853,0.853,0,0,0-.43.28,2.75,2.75,0,0,0-.28.19,6.705,6.705,0,0,0-.89-0.78c-3.04-2.31-12.19-3.46-18.62-.32a3.01,3.01,0,0,0-1.07.93,0.053,0.053,0,0,1-.03-0.02,0.928,0.928,0,0,0-.44-0.28c-0.22-.06-5.61-1.41-9.54,2.53-2.74,2.75-1.82,12.11,1.68,16.98a9.053,9.053,0,0,0,3.04,2.77c-3.82-.37-5.16,1.35-5.27,1.51-4.8,5.5-2.07,16.76-1.89,17.39a6.369,6.369,0,0,0,2.05,2.55h-0.01C2160.34,5769.07,2153.32,5777.83,2159.88,5791.42Zm-0.82-13.76h3.58c-0.03,1.08-.1,7.49,3.15,10.64a0.871,0.871,0,0,0,.62.26,0.761,0.761,0,0,0,.21-0.03,0.879,0.879,0,0,0,.64-0.57c1.05-2.9,2.72-6.21,3.54-6.51a0.914,0.914,0,0,0,.52-0.5h2.61a5.345,5.345,0,0,0-1.13,1.31c-1.92,3.24-.91,8.57-0.45,10.47a45.09,45.09,0,0,1-10.99-2.42A22.7,22.7,0,0,1,2159.06,5777.66Zm10.45-50.68a0.654,0.654,0,0,1,.43-0.23,0.268,0.268,0,0,1,.11.02,1.237,1.237,0,0,1,.45.42l1.08,15.15c0.01,0.74.02,1.38,0.03,1.89-3.15-3.02-4.86-6.34-4.98-9.69A10.132,10.132,0,0,1,2169.51,5726.98Zm22.81,0.38a1.456,1.456,0,0,1,.56-0.59,0.268,0.268,0,0,1,.11-0.02,0.639,0.639,0,0,1,.42.23,10.135,10.135,0,0,1,2.89,7.56c-0.12,3.35-1.84,6.67-4.98,9.69,0-.39.01-0.86,0.02-1.38Zm4.69,40.45a2.016,2.016,0,0,1-1.52.55,1.455,1.455,0,0,1-.87-0.57,63.371,63.371,0,0,0-.18-17.57,0.632,0.632,0,0,1,.24-0.34,2.815,2.815,0,0,1,1.52.83C2199.82,5757.1,2197.47,5766.19,2197.01,5767.81Zm0.66,10.54c-0.01,1.52-.21,5.09-1.7,7.51a25.419,25.419,0,0,0-1.93-3.93,0.8,0.8,0,0,0,.19-0.13Zm-0.32-2.23-4.38,4.39c-0.12-.12-0.23-0.24-0.35-0.34l0.26-1.29a28.886,28.886,0,0,0,1.07-5.41l0.46-2.31a2.026,2.026,0,0,1,1.05.35c0.72,0.48,1.61,1.68,2.03,4.51A0.451,0.451,0,0,0,2197.35,5776.12Zm-6.2,2.22c-0.1.27-.18,0.56-0.28,0.8h-19.6c-0.67-4.43-1.68-12.38-1.99-18.99a69.2,69.2,0,0,1,.73-9.85,1.087,1.087,0,0,0-.01-0.18c0.01-.03.02-0.07,0.03-0.1l2.4-1.96h17.48l2.34,1.45c0.17,2.54.92,15.05-.06,23.57Zm-6.38,2.99a3.3,3.3,0,0,1,2.24,1.6c1.94,3.24.19,9.75,0.13,9.99-1.99.16-4.15,0.27-6.5,0.27s-4.46-.11-6.39-0.27c-0.05-.18-1.8-6.53.1-9.73a3.338,3.338,0,0,1,2.27-1.62,0.924,0.924,0,0,0,.65-0.62h6.95A0.986,0.986,0,0,0,2184.77,5781.33Zm5.4-53.38a4.552,4.552,0,0,0-.14.94c-0.33,6.94-.46,11.31-0.5,13.94l-0.21,3.42h-15.65l-0.28-3.98c-0.05-2.68-.18-6.92-0.49-13.38a4.361,4.361,0,0,0-.14-0.94h0C2172.83,5727.93,2179.69,5725.9,2190.17,5727.95Zm-22.21,21.94a0.325,0.325,0,0,1,.14.16c-0.71,2.25-.81,6.11-0.62,10.35a49.68,49.68,0,0,0,.54,7.39,1.516,1.516,0,0,1-.86.58,2.038,2.038,0,0,1-1.53-.55c-0.46-1.62-2.81-10.71.81-17.1A2.751,2.751,0,0,1,2167.96,5749.89Zm-1.34,21.64a1.988,1.988,0,0,1,1.08-.37l1.79,9.01a3.636,3.636,0,0,0-.34.34l-4.39-4.39a0.451,0.451,0,0,0-.14-0.1C2165.04,5773.22,2165.91,5772.03,2166.62,5771.53Zm1.26,10.27a1.072,1.072,0,0,0,.19.13,26.356,26.356,0,0,0-1.93,3.93c-1.49-2.42-1.69-6-1.7-7.51Zm32.88,8.5a54.293,54.293,0,0,1-11.72,2.43c0.45-1.92,1.49-7.43-.48-10.73a5.909,5.909,0,0,0-.85-1.05h3.08a0.914,0.914,0,0,0,.52.5c0.82,0.3,2.49,3.61,3.54,6.51a0.879,0.879,0,0,0,.64.57,0.761,0.761,0,0,0,.21.03,0.871,0.871,0,0,0,.62-0.26c3.24-3.14,3.19-9.52,3.15-10.64h3.58A22.646,22.646,0,0,1,2200.76,5790.3Zm-0.68-20.45a15.533,15.533,0,0,1,2.66,6h-3.46c-0.41-2.85-1.33-4.79-2.75-5.79a3.565,3.565,0,0,0,.52-0.18,0.909,0.909,0,0,0,.66.3h0.01a7.747,7.747,0,0,0,2.3-.45A0.449,0.449,0,0,0,2200.08,5769.85Zm0.71-19.91c4.17,4.78,1.6,15.46,1.61,15.46a5.022,5.022,0,0,1-3.64,2.83c0.58-1.99,3-11.51-1.06-18.54a0.845,0.845,0,0,0-.15-0.18,4.9,4.9,0,0,0-.51-0.45C2199.81,5748.8,2200.73,5749.88,2200.79,5749.94Zm-6.53-1.81h-0.03a1.96,1.96,0,0,0-.5.22,1.848,1.848,0,0,0-.14-0.14l-0.32-.2a5.807,5.807,0,0,0,.72.05c0.1,0,.2-0.01.3-0.02Zm4.49-4.71c-1.81,2.51-4.04,3.35-6.65,2.51,4.7-4.31,5.9-8.49,6-11.32a12.137,12.137,0,0,0-2.66-8.08,7.941,7.941,0,0,1,5.17,2.24C2202.37,5730.54,2202.1,5738.76,2198.75,5743.42Zm-9.28-17.43c-8.86-1.56-14.96-.35-16.71.09a0.828,0.828,0,0,1,.15-0.11C2178.55,5723.21,2186.68,5724.08,2189.47,5725.99Zm-25.29,17.43c-3.35-4.66-3.62-12.88-1.86-14.65a7.882,7.882,0,0,1,5.16-2.23,12.159,12.159,0,0,0-2.65,8.07c0.1,2.83,1.29,7.01,6,11.32C2168.22,5746.77,2165.98,5745.93,2164.18,5743.42Zm4.76,4.64a5.625,5.625,0,0,0,.7-0.05l-0.57.47a1.981,1.981,0,0,0-.66-0.34h-0.03a0.564,0.564,0,0,0-.04-0.12C2168.54,5748.04,2168.74,5748.06,2168.94,5748.06Zm-8.65,17.5c-0.03-.11-2.63-10.81,1.61-15.67,0.01-.01.93-1.08,3.69-0.83-0.24.2-.42,0.37-0.51,0.46a0.862,0.862,0,0,0-.14.18c-4.07,7.03-1.64,16.57-1.06,18.54A4.867,4.867,0,0,1,2160.29,5765.56Zm4.63,4.62h0.01a0.861,0.861,0,0,0,.65-0.29l0.18,0.06c-0.04.02-.07,0.03-0.11,0.05-1.46.98-2.4,2.95-2.82,5.85h-3.46a15.533,15.533,0,0,1,2.66-6,0.7,0.7,0,0,0,.14-0.27A8,8,0,0,0,2164.92,5770.18Zm-9.46,17.43a32.5,32.5,0,0,1-3.69-8.67,41.3,41.3,0,0,1-1.01-9.28,63.355,63.355,0,0,1,.83-9.39,92.967,92.967,0,0,1,2.01-9.33,39.585,39.585,0,0,0-3.38,9.05,42.359,42.359,0,0,0-1.26,9.66,32.2,32.2,0,0,0,1.46,9.69A22.486,22.486,0,0,0,2155.46,5787.61Zm-8.75-.8a27.693,27.693,0,0,0,3.44,4.72,37.118,37.118,0,0,1-2.65-5.12,32.4,32.4,0,0,1-1.86-5.39,51.054,51.054,0,0,1-1.21-11.3,78.386,78.386,0,0,1,1.01-11.41c0.28-1.9.66-3.79,1.1-5.66,0.38-1.9.89-3.76,1.4-5.64a52.078,52.078,0,0,0-3.85,11.03,53.811,53.811,0,0,0-1.47,11.67,40.6,40.6,0,0,0,1.68,11.69A32.78,32.78,0,0,0,2146.71,5786.81Zm-3.12,7.31c-1.04-1.94-2.38-3.63-3.09-5.68a35.737,35.737,0,0,1-2.17-5.99,56.1,56.1,0,0,1-1.44-12.65,83.222,83.222,0,0,1,1.2-12.77c0.34-2.12.78-4.23,1.3-6.32,0.46-2.12,1.05-4.19,1.67-6.28a58.118,58.118,0,0,0-4.32,12.32,59.476,59.476,0,0,0-1.65,13.04,44.429,44.429,0,0,0,1.91,13.05A31.676,31.676,0,0,0,2143.59,5794.12Z" transform="translate(-1756 -5701)"/>
</svg>
