<svg xmlns="http://www.w3.org/2000/svg" width="95" height="107" viewBox="0 0 95 107">
  <metadata><?xpacket begin="﻿" id="W5M0MpCehiHzreSzNTczkc9d"?>
<x:xmpmeta xmlns:x="adobe:ns:meta/" x:xmptk="Adobe XMP Core 5.6-c138 79.159824, 2016/09/14-01:09:01        ">
   <rdf:RDF xmlns:rdf="http://www.w3.org/1999/02/22-rdf-syntax-ns#">
      <rdf:Description rdf:about=""/>
   </rdf:RDF>
</x:xmpmeta>
                                                                                                    
                                                                                                    
                                                                                                    
                                                                                                    
                                                                                                    
                                                                                                    
                                                                                                    
                                                                                                    
                                                                                                    
                                                                                                    
                                                                                                    
                                                                                                    
                                                                                                    
                                                                                                    
                                                                                                    
                                                                                                    
                                                                                                    
                                                                                                    
                                                                                                    
                                                                                                    
                           
<?xpacket end="w"?></metadata>
<defs>
    <style>
      .cls-1 {
        fill: #fff;
        fill-rule: evenodd;
      }
    </style>
  </defs>
  <path class="cls-1" d="M2283,11407.1a2.008,2.008,0,0,0-.56-1.6,1.783,1.783,0,0,0-1.55-.5c-17.04,2.1-30.16,9.2-39,21.2-6.59,9-9.97,19.5-11.59,29.3-10.54-21.8-35.19-27.7-35.54-27.7a1.863,1.863,0,0,0-2.22,1.3c-6.89,23.5-5.94,41.5,2.81,53.5,9.39,12.9,24.42,14.2,26.91,14.3,1.04,7.6,1.32,13.1,1.33,13.3a1.889,1.889,0,0,0,1.88,1.8h0.09a1.916,1.916,0,0,0,1.8-2c-0.06-1.1-.99-19.9-6.26-36.2-0.17-7.4,2.31-11.4,2.34-11.5a0.939,0.939,0,1,0-1.59-1,20.857,20.857,0,0,0-2.41,7.8c-2.43-6.2-5.59-11.7-9.7-15.3a1.853,1.853,0,0,0-2.66.1,1.932,1.932,0,0,0,.17,2.7,31.734,31.734,0,0,1,7.12,10.2,22.278,22.278,0,0,0-11.58-3.1,0.943,0.943,0,0,0-.89,1,0.961,0.961,0,0,0,.98.9c0.1,0,8.11-.3,13.11,5a115.708,115.708,0,0,1,5.7,22.5c-3.51-.4-15.7-2.3-23.32-12.8-7.78-10.7-8.69-27-2.72-48.4,6.26,1.8,27.26,9.5,33.69,31.3a108.212,108.212,0,0,0,.88,25.5,1.834,1.834,0,0,0,1.85,1.5h0.01a1.834,1.834,0,0,0,1.85-1.5c1.75-10,1.23-18.4-.72-25.5,0.97-11.2,3.99-24.2,11.73-34.7,7.79-10.6,19.26-17.1,34.09-19.4a233.908,233.908,0,0,0-.74,23.4c0.51,19-1.8,40.5-34.88,55.7a165.056,165.056,0,0,1,4.27-17c0.06,0,.11.1,0.18,0.1h0.08a0.973,0.973,0,0,0,.94-0.9c0.72-7.8,15.44-13.3,15.59-13.4a0.934,0.934,0,0,0,.56-1.2,1.032,1.032,0,0,0-1.21-.6c-0.48.2-8.81,3.4-13.58,8.6a109.526,109.526,0,0,1,6.84-14.8c3.75-2.3,10.2-4.2,14.8-5.2a0.926,0.926,0,0,0,.73-1.1,1.011,1.011,0,0,0-1.12-.8,77.974,77.974,0,0,0-12.61,4,69.791,69.791,0,0,1,13.1-15.8,1.924,1.924,0,0,0,.18-2.7,1.954,1.954,0,0,0-2.66-.2,76.874,76.874,0,0,0-14.53,17.9c0.19-2.1.41-4.7,0.68-7.8a1.074,1.074,0,0,0-.86-1.1,1.028,1.028,0,0,0-1.02.9c-0.3,3.6-.74,8.4-1.08,12-1.4,2.7-2.67,5.3-3.82,8a12.512,12.512,0,0,0-2.92-5.4,0.887,0.887,0,0,0-1.33,0,0.9,0.9,0,0,0-.01,1.3,12.21,12.21,0,0,1,2.89,7.4,143.349,143.349,0,0,0-5.94,18.5,165.8,165.8,0,0,0-4.77,31.1,1.872,1.872,0,0,0,1.82,2h0.07a1.875,1.875,0,0,0,1.88-1.8,154.294,154.294,0,0,1,2.03-17.5c35.64-15.4,40.06-38.1,39.47-60.3A230.084,230.084,0,0,1,2283,11407.1Z" transform="translate(-2188 -11405)"/>
</svg>
