<svg xmlns="http://www.w3.org/2000/svg" width="168.97" height="237.1" viewBox="0 0 168.97 237.1">
  <metadata><?xpacket begin="﻿" id="W5M0MpCehiHzreSzNTczkc9d"?>
<x:xmpmeta xmlns:x="adobe:ns:meta/" x:xmptk="Adobe XMP Core 5.6-c138 79.159824, 2016/09/14-01:09:01        ">
   <rdf:RDF xmlns:rdf="http://www.w3.org/1999/02/22-rdf-syntax-ns#">
      <rdf:Description rdf:about=""/>
   </rdf:RDF>
</x:xmpmeta>
                                                                                                    
                                                                                                    
                                                                                                    
                                                                                                    
                                                                                                    
                                                                                                    
                                                                                                    
                                                                                                    
                                                                                                    
                                                                                                    
                                                                                                    
                                                                                                    
                                                                                                    
                                                                                                    
                                                                                                    
                                                                                                    
                                                                                                    
                                                                                                    
                                                                                                    
                                                                                                    
                           
<?xpacket end="w"?></metadata>
<defs>
    <style>
      .cls-1 {
        fill: #fff;
        fill-rule: evenodd;
      }
    </style>
  </defs>
  <path id="_3" data-name="3" class="cls-1" d="M1418.66,10187.6c-24.71-10-53.79-12.1-64.53-12.5l-0.01-.1h-4.47l-1.82.1h-0.01c-10.74.4-39.82,2.5-64.53,12.5-25.74,10.4-12.79,93.7-6.03,115.3a16.848,16.848,0,0,0,15.87,11.8,16.077,16.077,0,0,0,4.32-.6,11.892,11.892,0,0,0,7.49-5.8c4.89-9,5.54-55.1,6.05-66.5l0.09-1.9a25.875,25.875,0,0,0-.18-4.2c6.4,4.8,15.22,11.4,40.01,12.3,17.88,0.6,32.55-6.9,40-11.1a26.59,26.59,0,0,0-.04,3l0.09,1.9c0.51,11.4,7.16,57.5,12.05,66.5a11.892,11.892,0,0,0,7.49,5.8,16.646,16.646,0,0,0,20.19-11.2C1437.45,10281.3,1444.4,10198,1418.66,10187.6Zm-111.42,52.1-0.09,2c-0.5,10.9-1.12,56.6-5.59,64.8a7.66,7.66,0,0,1-4.31,3.6c-4.81-17.7-9.43-78.2-2.57-84.1l12.11,7.1a13.276,13.276,0,0,0,.17,2A26.775,26.775,0,0,1,1307.24,10239.7Zm83.52-7.1c-6.42,3.7-21.43,12.2-39.72,11.5-23.67-.8-31.56-6.7-37.89-11.5l-1.05-.8a8.25,8.25,0,0,0-1.97-1.2l-9.01-5.2c3.48,0.5,8.04,1.6,12.75,2.8,10.73,2.7,24.1,6,37.47,6.1h0.13c13.16,0,25.9-3.4,36.14-6.1,6.53-1.8,12.73-3.4,15.73-3.1Zm18.05,76.5a7.545,7.545,0,0,1-2.42-2.6c-4.47-8.2-11.09-53.9-11.59-64.8l-0.09-2a21.867,21.867,0,0,1,.26-4.4c0.04-.3.08-0.5,0.1-0.8l11.55-6.9C1411.4,10235.8,1413.26,10292.7,1408.81,10309.1Zm18.21-7.4a12.78,12.78,0,0,1-14.62,8.9c2.34-8.6,6.7-81.7-6.07-88.5-3.55-1.9-9.98-.2-19.72,2.4-10.02,2.6-22.48,5.9-35.14,5.9h-0.13c-12.89,0-26-3.3-36.53-5.9s-17.48-4.4-21.13-2.4c-12.89,6.9-2.38,80.7-.22,88.7a12.778,12.778,0,0,1-12.53-9.1c-5.02-16-19.62-101.1,3.8-110.6,25.64-10.3,56.21-12,64.97-12.2l0.73-.1h0.66l1.16,0.1c8.76,0.2,39.33,1.9,64.97,12.2C1440.64,10200.6,1432.04,10285.7,1427.02,10301.7Zm-31.03-18.2a5.308,5.308,0,0,0-4.17-2.4c-3.18-18-17.58-30.1-37.19-30.1-18.36,0-32.15,10.6-36.45,26.8a5.014,5.014,0,0,0-5.51,2.2c-1.67,2.5-.7,5.5.41,7.4-0.85,3.2-.78,8.8,4.53,12.1l0.24-.4c3.58,16.7,15.72,29.6,30.82,32.4,1.22,3.4,2.96,5.2,5.18,5.5h0.46c3.68,0,6.56-4.5,7.12-5.5l-0.28-.2c13.87-2.7,25.16-14.1,29.46-29l0.44,0.7c5.31-3.3,5.38-8.9,4.53-12.1C1396.69,10289,1397.66,10286,1395.99,10283.5Zm-80.39-1.6a1.43,1.43,0,0,1,1.83-.7,45.043,45.043,0,0,0-.6,5.4l-0.4-.5C1316.41,10286,1314.57,10283.5,1315.6,10281.9Zm1.06,5.8,0.15-.4c-0.02.5-.04,1-0.04,1.6,0,1.7.11,3.4,0.28,5.1A8.378,8.378,0,0,1,1316.66,10287.7Zm37.56,45.8a2.643,2.643,0,0,1-1.52-1.6,12.421,12.421,0,0,0,1.93.1,14.56,14.56,0,0,0,2.09-.1A4.427,4.427,0,0,1,1354.22,10333.5Zm0.41-5c-18.93,0-34.33-17.8-34.33-39.6,0-20.6,13.79-34.4,34.33-34.4s34.34,13.8,34.34,34.4C1388.97,10310.7,1373.57,10328.5,1354.63,10328.5Zm37.14-31.3c0.26-1.5.45-3,.57-4.6A7.489,7.489,0,0,1,1391.77,10297.2Zm0.71-8c0-.1.01-0.2,0.01-0.3,0-1.4-.06-2.8-0.18-4.1a1.842,1.842,0,0,1,.75.6C1393.85,10286.6,1392.95,10288.4,1392.48,10289.2Zm-32.54,6.1,5.29,20.2,1.7-.5-5.28-20.2Zm-7.07,22.6h1.76V10295h-1.76v22.9Zm-11.38-5.6,1.63,0.7,6.16-15-1.62-.7Zm12.46-194h2.81q4.26,0,6.45,1.8a6.483,6.483,0,0,1,2.2,5.3,7.147,7.147,0,0,1-2.03,5.4,8.235,8.235,0,0,1-5.66,1.8,8.685,8.685,0,0,1-5.84-2,6.972,6.972,0,0,1-2.27-5.3h-2.81a9.476,9.476,0,0,0,1.39,5.1,9.6,9.6,0,0,0,3.94,3.4,12.92,12.92,0,0,0,5.59,1.2,10.674,10.674,0,0,0,7.64-2.7,9.129,9.129,0,0,0,2.86-7,8.548,8.548,0,0,0-1.64-5.2,9.172,9.172,0,0,0-4.83-3.1,8.669,8.669,0,0,0,4.28-3.1,7.2,7.2,0,0,0,1.56-4.5,9.061,9.061,0,0,0-2.68-6.9,10.161,10.161,0,0,0-7.31-2.6,11.454,11.454,0,0,0-5.25,1.2,9.13,9.13,0,0,0-5.04,8.3h2.81a6.491,6.491,0,0,1,2.1-5.1,7.622,7.622,0,0,1,5.38-2,6.962,6.962,0,0,1,5.32,1.9,6.764,6.764,0,0,1,1.85,5.1,5.862,5.862,0,0,1-.95,3.4,6.687,6.687,0,0,1-2.75,2.4,9.337,9.337,0,0,1-4.22.8h-2.9v2.4Z" transform="translate(-1267.97 -10099.9)"/>
</svg>
