<svg xmlns="http://www.w3.org/2000/svg" width="161.25" height="216.7" viewBox="0 0 161.25 216.7">
  <metadata><?xpacket begin="﻿" id="W5M0MpCehiHzreSzNTczkc9d"?>
<x:xmpmeta xmlns:x="adobe:ns:meta/" x:xmptk="Adobe XMP Core 5.6-c138 79.159824, 2016/09/14-01:09:01        ">
   <rdf:RDF xmlns:rdf="http://www.w3.org/1999/02/22-rdf-syntax-ns#">
      <rdf:Description rdf:about=""/>
   </rdf:RDF>
</x:xmpmeta>
                                                                                                    
                                                                                                    
                                                                                                    
                                                                                                    
                                                                                                    
                                                                                                    
                                                                                                    
                                                                                                    
                                                                                                    
                                                                                                    
                                                                                                    
                                                                                                    
                                                                                                    
                                                                                                    
                                                                                                    
                                                                                                    
                                                                                                    
                                                                                                    
                                                                                                    
                                                                                                    
                           
<?xpacket end="w"?></metadata>
<defs>
    <style>
      .cls-1 {
        fill: #fff;
        fill-rule: evenodd;
      }
    </style>
  </defs>
  <path id="_1" data-name="1" class="cls-1" d="M833.568,10190c-23.874-9.7-51.956-11.7-62.331-12.1l-0.006-.1h-1.756a10.631,10.631,0,0,0-1.245.1,12.72,12.72,0,0,0-1.319-.1l-1.759.1h0c-10.376.4-38.458,2.4-62.331,12.1-24.857,10-14.35,92.7-7.819,113.6a16.35,16.35,0,0,0,15.33,11.4,14.976,14.976,0,0,0,4.165-.6,11.586,11.586,0,0,0,7.236-5.6c4.729-8.7,7.349-55.3,7.848-66.3l0.085-1.9c0.218-4.7,4.913-6.7,8.813-7.6a148,148,0,0,1,29.717-3.1,153.735,153.735,0,0,1,29.728,3.1c3.893,0.9,8.581,2.9,8.8,7.6l0.085,1.9c0.5,11,1.119,57.6,5.847,66.3a11.586,11.586,0,0,0,7.236,5.6,16.082,16.082,0,0,0,19.495-10.8C845.918,10282.7,858.424,10200,833.568,10190Zm-107.7,52.3c-0.481,10.6-3.08,56.8-7.4,64.7a7.87,7.87,0,0,1-4.16,3.6c-4.639-17.1-7.095-77.6-.511-83.4l13.6,8.5a9.8,9.8,0,0,0-1.448,4.8Zm72.848-12.9a147.2,147.2,0,0,0-61.052,0,17.986,17.986,0,0,0-8.792,4.4l0.716-1.1-11.9-7.4c9.2-3.6,30.652-8.6,50.645-8.6h0.213c22.321,0,43.777,6.4,50.455,9.5l-11.956,7.1A18.112,18.112,0,0,0,798.713,10229.4Zm17.208,77.6c-4.32-7.9-4.919-54.1-5.4-64.7l-0.085-1.8a9.568,9.568,0,0,0-1.105-4.2l12.606-7.6c4.615,7.9.613,65-3.677,80.9A7.37,7.37,0,0,1,815.921,10307Zm19.918-4.5a12.3,12.3,0,0,1-14.111,8.5c2.26-8.3,12.26-81-.072-87.6-6.512-3.5-29.492-10.4-53.107-10.4h-0.223c-23.689,0-48.682,6.7-55.47,10.4-12.452,6.6-4.3,80.1-2.211,87.9a12.583,12.583,0,0,1-12.1-8.8c-4.857-15.6-16.949-99.9,5.67-109.1,24.763-10,54.287-11.6,62.745-11.8l0.706-.1H768.3l1.123,0.1c8.459,0.2,37.982,1.8,62.745,11.8C854.786,10202.6,840.7,10286.9,835.839,10302.5Zm-26.847-39a5.313,5.313,0,0,0-4.167-2.4c-3.183-18-17.584-30.1-37.192-30.1-18.364,0-32.156,10.6-36.449,26.8a5.022,5.022,0,0,0-5.516,2.2c-1.672,2.5-.7,5.5.414,7.4-0.847,3.2-.781,8.8,4.526,12.1l0.245-.4c3.573,16.7,15.719,29.6,30.816,32.4,1.218,3.4,2.957,5.2,5.184,5.5h0.46c3.674,0,6.558-4.5,7.118-5.5l-0.277-.2c13.863-2.7,25.154-14.1,29.457-29l0.441,0.7c5.307-3.3,5.373-8.9,4.526-12.1C809.687,10269,810.664,10266,808.992,10263.5Zm-80.394-1.6a1.432,1.432,0,0,1,1.831-.7,46.08,46.08,0,0,0-.6,5.4l-0.406-.5C729.407,10266,727.572,10263.5,728.6,10261.9Zm1.065,5.8,0.145-.4c-0.017.5-.034,1.1-0.034,1.6a49.512,49.512,0,0,0,.277,5.1A8.332,8.332,0,0,1,729.663,10267.7Zm37.555,45.8a2.667,2.667,0,0,1-1.517-1.6,12.459,12.459,0,0,0,1.932.1,14.511,14.511,0,0,0,2.086-.1A4.419,4.419,0,0,1,767.218,10313.5Zm0.415-5c-18.934,0-34.337-17.8-34.337-39.6,0-20.6,13.8-34.4,34.337-34.4s34.336,13.8,34.336,34.4C801.969,10290.7,786.566,10308.5,767.633,10308.5Zm37.136-31.3a46.162,46.162,0,0,0,.571-4.6A7.49,7.49,0,0,1,804.769,10277.2Zm0.715-8c0-.1.007-0.2,0.007-0.3,0-1.4-.062-2.8-0.182-4.1a1.855,1.855,0,0,1,.753.6C806.851,10266.6,805.95,10268.4,805.484,10269.2Zm-32.541,6.1,5.283,20.2,1.7-.5-5.282-20.2Zm-7.071,22.6h1.761V10275h-1.761v22.9Zm-11.38-5.6,1.629,0.7,6.163-15-1.629-.7Zm20.274-192H774.3l-11.625,4.3v2.6l9.281-3.4v30.7h2.813v-34.2Z" transform="translate(-687.125 -10100.3)"/>
</svg>
