<svg xmlns="http://www.w3.org/2000/svg" width="164.092" height="231.1" viewBox="0 0 164.092 231.1">
  <metadata><?xpacket begin="﻿" id="W5M0MpCehiHzreSzNTczkc9d"?>
<x:xmpmeta xmlns:x="adobe:ns:meta/" x:xmptk="Adobe XMP Core 5.6-c138 79.159824, 2016/09/14-01:09:01        ">
   <rdf:RDF xmlns:rdf="http://www.w3.org/1999/02/22-rdf-syntax-ns#">
      <rdf:Description rdf:about=""/>
   </rdf:RDF>
</x:xmpmeta>
                                                                                                    
                                                                                                    
                                                                                                    
                                                                                                    
                                                                                                    
                                                                                                    
                                                                                                    
                                                                                                    
                                                                                                    
                                                                                                    
                                                                                                    
                                                                                                    
                                                                                                    
                                                                                                    
                                                                                                    
                                                                                                    
                                                                                                    
                                                                                                    
                                                                                                    
                                                                                                    
                           
<?xpacket end="w"?></metadata>
<defs>
    <style>
      .cls-1 {
        fill: #fff;
        fill-rule: evenodd;
      }
    </style>
  </defs>
  <path id="_2" data-name="2" class="cls-1" d="M1128.57,10189.4c-24.29-9.7-52.87-11.8-63.43-12.2l-0.01-.1h-4.39l-1.79.1h-0.01c-10.55.4-39.13,2.5-63.429,12.2-25.3,10.2-12.569,92.5-5.922,113.7a16.535,16.535,0,0,0,15.6,11.6,15.506,15.506,0,0,0,4.24-.6,11.905,11.905,0,0,0,7.36-5.7c4.81-8.8,5.45-54.6,5.95-65.8l0.09-1.8a16.391,16.391,0,0,0-.52-4.7c7.99,3,15.35,4.2,39.66,5,19.19,0.7,32.39-.4,39.33-3.4a25.56,25.56,0,0,0-.05,3.1l0.09,1.8c0.51,11.2,3.14,57,7.95,65.8a11.9,11.9,0,0,0,7.37,5.7,16.452,16.452,0,0,0,19.84-11C1143.14,10281.9,1153.87,10199.6,1128.57,10189.4Zm-109.6,53.1c-0.49,10.7-1.1,56.1-5.5,64.1a7.558,7.558,0,0,1-4.23,3.6c-4.72-17.3-9.26-77.2-2.56-83l11.35,7a8.693,8.693,0,0,0,.37,2,13.185,13.185,0,0,1,.65,4.4Zm82.19-8.9c-3.92,2.2-13.89,4.7-39.05,3.8-25.56-.9-31.69-2.2-38.75-4.9a10.734,10.734,0,0,0-1.81-.5l-10.12-6.3c5.12-.5,13.64.1,22.53,0.7,8.73,0.6,18.62,1.3,28.44,1.3,9.84,0,19.46-.6,27.96-1.3,10.35-.7,19.39-1.4,23.28-0.2Zm13.84,75.6a6.588,6.588,0,0,1-2.38-2.6c-4.4-8-7.01-53.4-7.5-64.1l-0.09-1.9a21.867,21.867,0,0,1,.26-4.4c0.04-.2.07-0.5,0.1-0.7l11.35-6.8C1121.43,10236.7,1119.36,10293.1,1115,10309.2Zm17.89-7.2a12.681,12.681,0,0,1-14.37,8.7c2.3-8.5,10.48-80.7-2.07-87.4-4.07-2.2-13.42-1.5-26.37-.6-8.43.6-17.96,1.3-27.68,1.3-9.68,0-19.51-.7-28.18-1.3-14.09-1-24.27-1.7-28.49.6-12.676,6.7-2.34,79.7-.22,87.6a12.631,12.631,0,0,1-12.311-8.9c-4.943-15.7-19.284-99.8,3.735-109.1,25.206-10.1,55.246-11.7,63.856-12h2.5c8.61,0.3,38.66,1.9,63.86,12C1150.17,10202.2,1137.83,10286.3,1132.89,10302Zm-28.9-24.5a5.308,5.308,0,0,0-4.17-2.4c-3.18-18-17.58-30.1-37.19-30.1-18.36,0-32.15,10.6-36.45,26.8a5.014,5.014,0,0,0-5.51,2.2c-1.67,2.5-.7,5.5.41,7.4-0.85,3.2-.78,8.8,4.53,12.1l0.24-.4c3.58,16.7,15.72,29.6,30.82,32.4,1.22,3.4,2.96,5.2,5.18,5.5h0.46c3.68,0,6.56-4.5,7.12-5.5l-0.28-.2c13.87-2.7,25.16-14.1,29.46-29l0.44,0.7c5.31-3.3,5.38-8.9,4.53-12.1C1104.69,10283,1105.66,10280,1103.99,10277.5Zm-80.39-1.6a1.43,1.43,0,0,1,1.83-.7,45.043,45.043,0,0,0-.6,5.4l-0.4-.5C1024.41,10280,1022.57,10277.5,1023.6,10275.9Zm1.06,5.8,0.15-.4c-0.02.5-.04,1-0.04,1.6,0,1.7.11,3.4,0.28,5.1A8.378,8.378,0,0,1,1024.66,10281.7Zm37.56,45.8a2.643,2.643,0,0,1-1.52-1.6,12.421,12.421,0,0,0,1.93.1,14.56,14.56,0,0,0,2.09-.1A4.427,4.427,0,0,1,1062.22,10327.5Zm0.41-5c-18.93,0-34.33-17.8-34.33-39.6,0-20.6,13.79-34.4,34.33-34.4s34.34,13.8,34.34,34.4C1096.97,10304.7,1081.57,10322.5,1062.63,10322.5Zm37.14-31.3c0.26-1.5.45-3,.57-4.6A7.489,7.489,0,0,1,1099.77,10291.2Zm0.71-8c0-.1.01-0.2,0.01-0.3,0-1.4-.06-2.8-0.18-4.1a1.842,1.842,0,0,1,.75.6C1101.85,10280.6,1100.95,10282.4,1100.48,10283.2Zm-32.54,6,5.29,20.3,1.7-.5-5.28-20.2Zm-7.07,22.7h1.76V10289h-1.76v22.9Zm-11.38-5.6,1.63,0.7,6.16-15-1.62-.7Zm25.6-174.1h-17.93l9.51-10.8a37.55,37.55,0,0,0,5.24-7.1,11.32,11.32,0,0,0,1.49-5.2,8.693,8.693,0,0,0-2.64-6.7,10.522,10.522,0,0,0-7.32-2.5,11.047,11.047,0,0,0-5.48,1.4,9.215,9.215,0,0,0-3.7,3.7,10.617,10.617,0,0,0-1.3,5.2h2.79a8,8,0,0,1,2.12-5.7,7.65,7.65,0,0,1,5.57-2.2,7.309,7.309,0,0,1,5.22,1.9,6.984,6.984,0,0,1,1.9,5.1,9.5,9.5,0,0,1-1.12,4.3,31.741,31.741,0,0,1-4.03,5.5l-11.7,13.3v2.1h21.38v-2.3Z" transform="translate(-980.438 -10099.9)"/>
</svg>
