<?xml version="1.0" encoding="utf-8"?>
<!-- Generator: Adobe Illustrator 21.0.2, SVG Export Plug-In . SVG Version: 6.00 Build 0)  -->
<svg version="1.1" id="Layer_1" xmlns="http://www.w3.org/2000/svg" xmlns:xlink="http://www.w3.org/1999/xlink" x="0px" y="0px"
	 viewBox="0 0 512 512" style="enable-background:new 0 0 512 512;" xml:space="preserve">
<style type="text/css">
	.st0{clip-path:url(#SVGID_2_);}
	.st1{clip-path:url(#SVGID_4_);}
	.st2{clip-path:url(#SVGID_6_);fill:#FFFFFF;}
	.st3{clip-path:url(#SVGID_8_);}
	.st4{clip-path:url(#SVGID_11_);}
	.st5{clip-path:url(#SVGID_12_);}
	.st6{clip-path:url(#SVGID_14_);}
	.st7{clip-path:url(#SVGID_16_);}
	.st8{clip-path:url(#SVGID_18_);}
	.st9{clip-path:url(#SVGID_21_);}
	.st10{clip-path:url(#SVGID_22_);}
	.st11{clip-path:url(#SVGID_24_);}
	.st12{clip-path:url(#SVGID_27_);}
	.st13{clip-path:url(#SVGID_28_);}
	.st14{clip-path:url(#SVGID_30_);}
	.st15{clip-path:url(#SVGID_32_);}
	.st16{clip-path:url(#SVGID_34_);}
	.st17{clip-path:url(#SVGID_36_);}
	.st18{opacity:0.45;}
	.st19{clip-path:url(#SVGID_38_);}
</style>
<g>
	<g>
		<defs>
			<path id="SVGID_1_" d="M195.7,256c0-33.3,27-60.3,60.3-60.3s60.4,27,60.4,60.3s-27,60.3-60.4,60.3
				C222.7,316.3,195.7,289.3,195.7,256 M163,256c0,51.3,41.6,93,93,93s93-41.6,93-93s-41.6-93-93-93C204.7,163,163,204.7,163,256
				 M330.9,159.4c0,12,9.7,21.7,21.7,21.7s21.7-9.7,21.7-21.7s-9.7-21.7-21.7-21.7C340.6,137.6,330.9,147.4,330.9,159.4
				 M182.8,403.4c-17.7-0.8-27.2-3.7-33.6-6.2c-8.5-3.3-14.5-7.2-20.8-13.5s-10.3-12.4-13.5-20.8c-2.5-6.4-5.4-16-6.2-33.6
				c-0.9-19.1-1.1-24.8-1.1-73.2c0-48.3,0.2-54.1,1.1-73.2c0.8-17.6,3.8-27.2,6.2-33.6c3.3-8.5,7.2-14.5,13.5-20.8
				s12.4-10.3,20.8-13.5c6.4-2.5,16-5.4,33.6-6.2c19.1-0.9,24.8-1.1,73.2-1.1c48.3,0,54.1,0.2,73.2,1.1c17.6,0.8,27.2,3.8,33.6,6.2
				c8.5,3.3,14.5,7.2,20.8,13.5s10.3,12.4,13.5,20.8c2.5,6.4,5.4,16,6.2,33.6c0.9,19.1,1,24.8,1,73.2c0,48.3-0.2,54.1-1,73.2
				c-0.8,17.7-3.8,27.2-6.2,33.6c-3.3,8.5-7.2,14.5-13.5,20.8s-12.4,10.3-20.8,13.5c-6.4,2.5-16,5.4-33.6,6.2
				c-19.1,0.9-24.8,1.1-73.2,1.1C207.7,404.4,201.9,404.2,182.8,403.4 M181.4,76c-19.3,0.9-32.4,3.9-43.9,8.4
				c-11.9,4.6-22,10.8-32.1,20.9s-16.3,20.2-20.9,32.1c-4.5,11.5-7.5,24.7-8.4,43.9C75.2,200.7,75,206.8,75,256s0.2,55.3,1.1,74.6
				c0.9,19.3,3.9,32.4,8.4,43.9c4.6,11.9,10.8,22,20.9,32.1s20.2,16.3,32.1,20.9c11.5,4.5,24.7,7.5,43.9,8.4
				c19.3,0.9,25.5,1.1,74.6,1.1c49.2,0,55.3-0.2,74.6-1.1c19.3-0.9,32.4-3.9,44-8.4c11.9-4.6,22-10.8,32.1-20.9s16.3-20.2,20.9-32.1
				c4.5-11.5,7.5-24.7,8.4-43.9c0.9-19.3,1.1-25.5,1.1-74.6s-0.2-55.3-1.1-74.6s-3.9-32.4-8.4-43.9c-4.6-11.9-10.8-22-20.9-32.1
				s-20.2-16.3-32.1-20.9c-11.5-4.5-24.7-7.5-44-8.4C311.3,75.2,305.2,75,256,75S200.7,75.2,181.4,76"/>
		</defs>
		<use xlink:href="#SVGID_1_"  style="overflow:visible;fill:#FFFFFF;"/>
		<clipPath id="SVGID_2_">
			<use xlink:href="#SVGID_1_"  style="overflow:visible;"/>
		</clipPath>
		<g class="st0">
			<g>
				<g>
					<defs>
						<rect id="SVGID_3_" x="-797.4" y="-797.3" width="2107.7" height="2106.7"/>
					</defs>
					<use xlink:href="#SVGID_3_"  style="overflow:visible;fill:#FFFFFF;"/>
					<clipPath id="SVGID_4_">
						<use xlink:href="#SVGID_3_"  style="overflow:visible;"/>
					</clipPath>
					<g class="st1">
						<g>
							<defs>
								<rect id="SVGID_5_" x="-797.4" y="-797.4" width="2107.7" height="2106.7"/>
							</defs>
							<use xlink:href="#SVGID_5_"  style="overflow:visible;fill:#FFFFFF;"/>
							<clipPath id="SVGID_6_">
								<use xlink:href="#SVGID_5_"  style="overflow:visible;"/>
							</clipPath>
							<rect x="-797.4" y="-797.4" class="st2" width="2106.7" height="2106.7"/>
						</g>
						<g>
							<defs>
								<rect id="SVGID_7_" x="-797.4" y="-797.3" width="2107.7" height="2106.7"/>
							</defs>
							<use xlink:href="#SVGID_7_"  style="overflow:visible;fill:#FFFFFF;"/>
							<clipPath id="SVGID_8_">
								<use xlink:href="#SVGID_7_"  style="overflow:visible;"/>
							</clipPath>
							<g class="st3">
								<g>
									<defs>
										<rect id="SVGID_9_" x="-479.5" y="-451.7" width="1789.9" height="1575.9"/>
									</defs>
									<defs>
										<rect id="SVGID_10_" x="-797.4" y="-797.3" width="2107.7" height="2106.7"/>
									</defs>
									<use xlink:href="#SVGID_9_"  style="overflow:visible;fill:#FFFFFF;"/>
									<use xlink:href="#SVGID_10_"  style="overflow:visible;fill:#FFFFFF;"/>
									<clipPath id="SVGID_11_">
										<use xlink:href="#SVGID_9_"  style="overflow:visible;"/>
									</clipPath>
									<clipPath id="SVGID_12_" class="st4">
										<use xlink:href="#SVGID_10_"  style="overflow:visible;"/>
									</clipPath>
									<g class="st5">
										<g>
											<defs>
												<rect id="SVGID_13_" x="-479.5" y="-451.7" width="1789.9" height="1575.9"/>
											</defs>
											<use xlink:href="#SVGID_13_"  style="overflow:visible;fill:#FFFFFF;"/>
											<clipPath id="SVGID_14_">
												<use xlink:href="#SVGID_13_"  style="overflow:visible;"/>
											</clipPath>
											<g class="st6">
												
													<image style="overflow:visible;enable-background:new    ;" width="423" height="372" xlink:href="8B05E686D91CF758.png"  transform="matrix(4.2313 0 0 4.2363 -479.4927 -451.7188)">
												</image>
											</g>
										</g>
									</g>
									<g class="st5">
										<g>
											<defs>
												<rect id="SVGID_15_" x="-660.5" y="-365.3" width="1724" height="1662.3"/>
											</defs>
											<use xlink:href="#SVGID_15_"  style="overflow:visible;fill:#FFFFFF;"/>
											<clipPath id="SVGID_16_">
												<use xlink:href="#SVGID_15_"  style="overflow:visible;"/>
											</clipPath>
											<g class="st7">
												
													<image style="overflow:visible;enable-background:new    ;" width="407" height="393" xlink:href="8B05E686D91CF759.png"  transform="matrix(4.2359 0 0 4.2298 -660.537 -365.3113)">
												</image>
											</g>
										</g>
										<g>
											<defs>
												<rect id="SVGID_17_" x="-797.4" y="-797.3" width="2107.7" height="2106.7"/>
											</defs>
											<use xlink:href="#SVGID_17_"  style="overflow:visible;fill:#FFFFFF;"/>
											<clipPath id="SVGID_18_">
												<use xlink:href="#SVGID_17_"  style="overflow:visible;"/>
											</clipPath>
											<g class="st8">
												<g>
													<defs>
														<rect id="SVGID_19_" x="-450.7" y="-48.5" width="1176.8" height="1176.8"/>
													</defs>
													<defs>
														<rect id="SVGID_20_" x="-797.4" y="-797.3" width="2107.7" height="2106.7"/>
													</defs>
													<use xlink:href="#SVGID_19_"  style="overflow:visible;fill:#FFFFFF;"/>
													<use xlink:href="#SVGID_20_"  style="overflow:visible;fill:#FFFFFF;"/>
													<clipPath id="SVGID_21_">
														<use xlink:href="#SVGID_19_"  style="overflow:visible;"/>
													</clipPath>
													<clipPath id="SVGID_22_" class="st9">
														<use xlink:href="#SVGID_20_"  style="overflow:visible;"/>
													</clipPath>
													<g class="st10">
														<g>
															<defs>
																<rect id="SVGID_23_" x="-450.7" y="-48.5" width="1176.8" height="1176.8"/>
															</defs>
															<use xlink:href="#SVGID_23_"  style="overflow:visible;fill:#FFFFFF;"/>
															<clipPath id="SVGID_24_">
																<use xlink:href="#SVGID_23_"  style="overflow:visible;"/>
															</clipPath>
															<g class="st11">
																
																	<image style="overflow:visible;enable-background:new    ;" width="278" height="278" xlink:href="8B05E686D91CF75F.png"  transform="matrix(4.233 0 0 4.233 -450.6902 -48.4839)">
																</image>
															</g>
														</g>
													</g>
													<g class="st10">
														<g>
															<defs>
																<rect id="SVGID_25_" x="-286.1" y="144.9" width="950.5" height="950.5"/>
															</defs>
															<defs>
																<rect id="SVGID_26_" x="-797.4" y="-797.3" width="2107.7" height="2106.7"/>
															</defs>
															<use xlink:href="#SVGID_25_"  style="overflow:visible;fill:#FFFFFF;"/>
															<use xlink:href="#SVGID_26_"  style="overflow:visible;fill:#FFFFFF;"/>
															<clipPath id="SVGID_27_">
																<use xlink:href="#SVGID_25_"  style="overflow:visible;"/>
															</clipPath>
															<clipPath id="SVGID_28_" class="st12">
																<use xlink:href="#SVGID_26_"  style="overflow:visible;"/>
															</clipPath>
															<g class="st13">
																<g>
																	<defs>
																		<rect id="SVGID_29_" x="-286.1" y="144.9" width="950.5" height="950.5"/>
																	</defs>
																	<use xlink:href="#SVGID_29_"  style="overflow:visible;fill:#FFFFFF;"/>
																	<clipPath id="SVGID_30_">
																		<use xlink:href="#SVGID_29_"  style="overflow:visible;"/>
																	</clipPath>
																	<g class="st14">
																		
																			<image style="overflow:visible;enable-background:new    ;" width="225" height="225" xlink:href="8B05E686D91CF75A.png"  transform="matrix(4.2243 0 0 4.2243 -286.1045 144.9043)">
																		</image>
																	</g>
																</g>
															</g>
															<g class="st13">
																<g>
																	<defs>
																		<rect id="SVGID_31_" x="-347.8" y="206.6" width="938.1" height="909.3"/>
																	</defs>
																	<use xlink:href="#SVGID_31_"  style="overflow:visible;fill:#FFFFFF;"/>
																	<clipPath id="SVGID_32_">
																		<use xlink:href="#SVGID_31_"  style="overflow:visible;"/>
																	</clipPath>
																	<g class="st15">
																		
																			<image style="overflow:visible;enable-background:new    ;" width="222" height="215" xlink:href="8B05E686D91CF75B.png"  transform="matrix(4.2258 0 0 4.2294 -347.8242 206.6239)">
																		</image>
																	</g>
																</g>
																<g>
																	<defs>
																		<rect id="SVGID_33_" x="-797.4" y="-797.3" width="2107.7" height="2106.7"/>
																	</defs>
																	<use xlink:href="#SVGID_33_"  style="overflow:visible;fill:#FFFFFF;"/>
																	<clipPath id="SVGID_34_">
																		<use xlink:href="#SVGID_33_"  style="overflow:visible;"/>
																	</clipPath>
																	<g class="st16">
																		<g>
																			<defs>
																				<rect id="SVGID_35_" x="-797.4" y="-797.4" width="2107.7" height="2106.7"/>
																			</defs>
																			<use xlink:href="#SVGID_35_"  style="overflow:visible;fill:#FFFFFF;"/>
																			<clipPath id="SVGID_36_">
																				<use xlink:href="#SVGID_35_"  style="overflow:visible;"/>
																			</clipPath>
																			<g class="st17">
																				<g>
																					<g class="st18">
																						<defs>
																							<rect id="SVGID_37_" x="-767.5" y="-558.7" class="st18" width="1678.8" height="864.1"/>
																						</defs>
																						<use xlink:href="#SVGID_37_"  style="overflow:visible;fill:#FFFFFF;"/>
																						<clipPath id="SVGID_38_">
																							<use xlink:href="#SVGID_37_"  style="overflow:visible;"/>
																						</clipPath>
																						<g class="st19">
																							<g>
																								<defs>
																									<rect id="SVGID_39_" x="-767.5" y="-558.7" width="1678.8" height="864.1"/>
																								</defs>
																								<use xlink:href="#SVGID_39_"  style="overflow:visible;fill:#FFFFFF;"/>
																								<clipPath id="SVGID_40_">
																									<use xlink:href="#SVGID_39_"  style="overflow:visible;"/>
																								</clipPath>
																							</g>
																						</g>
																					</g>
																				</g>
																			</g>
																		</g>
																	</g>
																</g>
															</g>
														</g>
													</g>
												</g>
											</g>
										</g>
									</g>
								</g>
							</g>
						</g>
					</g>
				</g>
			</g>
		</g>
	</g>
</g>
</svg>
