<svg xmlns="http://www.w3.org/2000/svg" width="137.44" height="302.81" viewBox="0 0 137.44 302.81">
  <metadata><?xpacket begin="﻿" id="W5M0MpCehiHzreSzNTczkc9d"?>
<x:xmpmeta xmlns:x="adobe:ns:meta/" x:xmptk="Adobe XMP Core 5.6-c138 79.159824, 2016/09/14-01:09:01        ">
   <rdf:RDF xmlns:rdf="http://www.w3.org/1999/02/22-rdf-syntax-ns#">
      <rdf:Description rdf:about=""/>
   </rdf:RDF>
</x:xmpmeta>
                                                                                                    
                                                                                                    
                                                                                                    
                                                                                                    
                                                                                                    
                                                                                                    
                                                                                                    
                                                                                                    
                                                                                                    
                                                                                                    
                                                                                                    
                                                                                                    
                                                                                                    
                                                                                                    
                                                                                                    
                                                                                                    
                                                                                                    
                                                                                                    
                                                                                                    
                                                                                                    
                           
<?xpacket end="w"?></metadata>
<defs>
    <style>
      .cls-1 {
        fill: #fff;
        fill-rule: evenodd;
      }
    </style>
  </defs>
  <path id="l" class="cls-1" d="M2437.43,8809.8c-0.64-19.92-13.64-68.5-14.2-70.56l-0.04-.19-0.09-.16c-7.65-14.09-18.4-24.61-31.97-31.27a77.843,77.843,0,0,0-38.31-7.57c-8.61.46-14.32,3-16.97,7.56-3.55,6.11-.15,13.4.17,14.05,7.33,16.56,6.94,40.09,6.92,41.11-0.51,7.04-13.79,13.43-18.89,15.31a9.451,9.451,0,0,0-6.18,8.59v0.17l5.19,23.39c0.92,3.77,9.03,36.83,9.68,38.77l3.04-1.02c-0.45-1.37-5.99-23.78-9.59-38.48l-5.1-22.98a6.22,6.22,0,0,1,4.08-5.42c0.83-.31,20.27-7.57,20.98-18.15v-0.07c0.03-1.01.56-25.03-7.21-42.55l-0.03-.07c-0.03-.06-3.06-6.25-0.28-11.03,2.07-3.56,6.9-5.57,14.36-5.96a74.543,74.543,0,0,1,36.73,7.24,68.468,68.468,0,0,1,28.77,26.82c-11.32-2.27-46.13-7.93-59.63,5.03-6.88,6.6-5.07,26.36,5.37,58.73,7.65,23.71,17.32,45.89,17.41,46.11l2.95-1.29c-10.61-24.25-35.49-89.72-23.51-101.23,13.45-12.91,52.74-5.08,59.3-3.66,1.85,6.98,13.26,50.83,13.84,68.94l2.57,38.64,3.21-.22Zm-24.29-80.99c17.72-6.58,16.57-22.93,16.46-24.16-0.06-1.1-1.33-18.44-15.86-35.99-8.6-10.38-20.09-18.65-34.16-24.57-17.47-7.36-39-11.09-63.97-11.09a1.816,1.816,0,0,0-.32.03c-0.41.09-10.03,2.15-12.26,9.13-1.38,4.32.4,9.35,5.29,14.98h-0.09v13.69l11.71,54.11,5.17,4.54,10.79,39.44a1.614,1.614,0,0,0,1.55,1.19h3.4c2.82-3.2.95-.52,2.67-3.22h-4.85l-10.05-36.75s4.95-.13,12.09-0.32c-1.15-3.09-.38-0.33-1.05-3.2-7.33.2-12.54,0.34-12.54,0.34l-4.27-3.74-11.41-52.74v-11.87a5.3,5.3,0,0,1,5.35,2.54,1.594,1.594,0,0,0,1.54.81c0.47-.04,46.98-4.09,69.91,23.25a1.7,1.7,0,0,0,.19.19c0.1,0.09,8.64,7.49,10.27,18.04-8.97-14.17-25.64-23.88-48.67-28.25a155.365,155.365,0,0,0-37.12-2.28l0.27,3.21a151.406,151.406,0,0,1,36.32,2.25c31.12,5.92,43.94,20.45,49.22,31.78a9.858,9.858,0,0,1-.97,3.01c-0.62,1.18,1.84,3.32,2.71,1.76a13.16,13.16,0,0,0,1.52-4.79c1.94-14.94-10.01-25.9-11.37-27.09-9.97-11.83-25.68-19.77-45.44-22.98a119.389,119.389,0,0,0-26.16-1.38,8.59,8.59,0,0,0-7.94-3.27c-4.34-4.88-6.02-9-4.98-12.26,1.52-4.81,8.59-6.67,9.7-6.93,24.4,0.02,45.4,3.64,62.41,10.78,13.58,5.69,24.66,13.62,32.94,23.57,14.11,16.93,15.25,34.12,15.26,34.29a0.34,0.34,0,0,0,.01.1c0.06,0.61,1.51,14.93-14.38,20.83C2413.96,8727.76,2412.49,8726.78,2413.14,8728.81Zm-23.39,172.89h-2.9v34.12h19.75v-2.44h-16.85V8901.7Z" transform="translate(-2302.56 -8633)"/>
</svg>
