<svg xmlns="http://www.w3.org/2000/svg" width="103" height="99" viewBox="0 0 103 99">
  <metadata><?xpacket begin="﻿" id="W5M0MpCehiHzreSzNTczkc9d"?>
<x:xmpmeta xmlns:x="adobe:ns:meta/" x:xmptk="Adobe XMP Core 5.6-c138 79.159824, 2016/09/14-01:09:01        ">
   <rdf:RDF xmlns:rdf="http://www.w3.org/1999/02/22-rdf-syntax-ns#">
      <rdf:Description rdf:about=""/>
   </rdf:RDF>
</x:xmpmeta>
                                                                                                    
                                                                                                    
                                                                                                    
                                                                                                    
                                                                                                    
                                                                                                    
                                                                                                    
                                                                                                    
                                                                                                    
                                                                                                    
                                                                                                    
                                                                                                    
                                                                                                    
                                                                                                    
                                                                                                    
                                                                                                    
                                                                                                    
                                                                                                    
                                                                                                    
                                                                                                    
                           
<?xpacket end="w"?></metadata>
<defs>
    <style>
      .cls-1 {
        fill: #fff;
        fill-rule: evenodd;
      }
    </style>
  </defs>
  <path class="cls-1" d="M677.728,12747H601.279A13.349,13.349,0,0,0,588,12760.4v72.2a13.349,13.349,0,0,0,13.281,13.4h76.449a13.348,13.348,0,0,0,13.279-13.4v-72.2A13.348,13.348,0,0,0,677.728,12747Zm9.336,85.6a9.369,9.369,0,0,1-9.336,9.4H601.279a9.369,9.369,0,0,1-9.337-9.4v-72.2a9.369,9.369,0,0,1,9.337-9.4h76.449a9.369,9.369,0,0,1,9.336,9.4v72.2Zm-73.506-66.6-2.869,1.8,11.2,22.5h33.882l13.355-22.3-1.519-1.1A48.2,48.2,0,0,0,613.558,12766Zm39.975,20.4H624.322l-8.523-17.2a47.117,47.117,0,0,1,9.813-4.7l1.535,4.7,3.741-1.3-1.486-4.5a47.882,47.882,0,0,1,7.5-1.2v4.4h3.943v-4.4a39.375,39.375,0,0,1,7.643.8l-1.627,4.9,3.741,1.3,1.735-5.3a46.115,46.115,0,0,1,11.48,5.2Zm-18.6-4h7.887l-3.944-11.9Z" transform="translate(-588 -12747)"/>
</svg>
