<?xml version="1.0" encoding="UTF-8"?>
<svg width="163px" height="44px" viewBox="0 0 163 44" version="1.1" xmlns="http://www.w3.org/2000/svg" xmlns:xlink="http://www.w3.org/1999/xlink">
    <!-- Generator: Sketch 46.2 (44496) - http://www.bohemiancoding.com/sketch -->
    <title>logo-main</title>
    <desc>Created with Sketch.</desc>
    <defs></defs>
    <g id="pages" stroke="none" stroke-width="1" fill="none" fill-rule="evenodd">
        <g id="vput-one" transform="translate(-105.000000, -24.000000)" fill="#777777">
            <g id="head" transform="translate(105.000000, 24.000000)">
                <g id="logo-main">
                    <path d="M43.3015198,18.3910112 L43.3015198,29.9595506 C43.3015198,37.4247191 37.2075988,43.505618 29.7264438,43.505618 L13.7732523,43.505618 C6.24255319,43.505618 0.148632219,37.4247191 0.148632219,29.9595506 L0.148632219,18.3910112 L9.66109422,18.3910112 L9.66109422,29.9595506 C9.66109422,33.4696629 12.5346505,36.3370787 16.0522796,36.3370787 L27.3978723,36.3370787 C30.9155015,36.3370787 33.7890578,33.4696629 33.7890578,29.9595506 L33.7890578,18.3910112 L43.3015198,18.3910112 L43.3015198,18.3910112 Z M18.6285714,14.7820225 L24.8711246,14.7820225 C25.8620061,14.7820225 26.7042553,15.5730337 26.7042553,16.611236 L26.7042553,27.3393258 C26.7042553,28.3280899 25.9115502,29.1685393 24.8711246,29.1685393 L18.6285714,29.1685393 C17.63769,29.1685393 16.7954407,28.3775281 16.7954407,27.3393258 L16.7954407,16.611236 C16.7954407,15.6224719 17.63769,14.7820225 18.6285714,14.7820225 L18.6285714,14.7820225 Z" id="Shape"></path>
                    <path d="M33.8386018,1.08764045 C38.4462006,2.57078652 42.0133739,6.42696629 43.0537994,11.2224719 L33.8386018,11.2224719 L33.8386018,1.08764045 L33.8386018,1.08764045 Z M13.7732523,0.44494382 L26.7042553,0.44494382 L26.7042553,7.61348315 L16.0522796,7.61348315 C13.5255319,7.61348315 11.3455927,9.09662921 10.3051672,11.2224719 L0.445896657,11.2224719 C1.73404255,5.09213483 7.23343465,0.44494382 13.7732523,0.44494382 L13.7732523,0.44494382 Z" id="Shape"></path>
                    <path d="M136.939818,21.9011236 L136.939818,14.8314607 L141.151064,14.8314607 L141.151064,21.9505618 C141.151064,25.3123596 141.696049,25.658427 144.321884,25.658427 L146.997264,25.658427 L146.997264,29.1191011 L143.826444,29.1191011 C139.169301,29.1191011 136.939818,27.4382022 136.939818,21.9011236 L136.939818,21.9011236 Z M127.080547,23.4831461 C127.278723,25.4606742 128.021884,25.658427 130.201824,25.658427 L134.462614,25.658427 L134.462614,29.1191011 L129.706383,29.1191011 C125.098784,29.1191011 122.819757,27.4382022 122.819757,21.8516854 C122.819757,16.2651685 125.04924,14.7820225 129.706383,14.7820225 L134.462614,14.7820225 L134.462614,18.2426966 L130.201824,18.2426966 C128.170517,18.2426966 127.377812,18.3910112 127.130091,20.0719101 L132.976292,20.0719101 L132.976292,23.4337079 L127.080547,23.4337079 L127.080547,23.4831461 Z M107.16383,14.8314607 L107.16383,29.1191011 L113.654103,29.1191011 C118.261702,29.1191011 120.540729,27.4382022 120.540729,21.8516854 C120.540729,16.2651685 118.311246,14.7820225 113.654103,14.7820225 L107.16383,14.7820225 L107.16383,14.8314607 Z M116.379027,21.9505618 C116.379027,25.3123596 115.834043,25.658427 113.208207,25.658427 L111.1769,25.658427 L111.1769,18.2921348 L113.208207,18.2921348 C115.784498,18.2921348 116.379027,18.5393258 116.379027,21.9505618 L116.379027,21.9505618 Z M155.865653,14.4853933 C160.473252,14.4853933 163,16.0179775 163,21.8022472 C163,27.6853933 160.522796,29.4157303 155.865653,29.4157303 C151.208511,29.4157303 148.731307,27.6853933 148.731307,21.8022472 C148.731307,16.0179775 151.208511,14.4853933 155.865653,14.4853933 L155.865653,14.4853933 Z M155.865653,25.8067416 C158.491489,25.8067416 158.788754,25.4606742 158.788754,21.8022472 C158.788754,18.3910112 158.491489,18.094382 155.865653,18.094382 C153.190274,18.094382 152.942553,18.3910112 152.942553,21.8022472 C152.893009,25.4606742 153.190274,25.8067416 155.865653,25.8067416 L155.865653,25.8067416 Z" id="Shape" fill-rule="nonzero"></path>
                    <path d="M82.4908815,23.4831461 C82.6890578,25.4606742 83.4322188,25.658427 85.6121581,25.658427 L89.8729483,25.658427 L89.8729483,29.1191011 L85.1167173,29.1191011 C80.5091185,29.1191011 78.2300912,27.4382022 78.2300912,21.8516854 C78.2300912,16.2651685 80.4595745,14.7820225 85.1167173,14.7820225 L89.8729483,14.7820225 L89.8729483,18.2426966 L85.6121581,18.2426966 C83.5808511,18.2426966 82.7881459,18.3910112 82.5404255,20.0719101 L88.3866261,20.0719101 L88.3866261,23.4337079 L82.4908815,23.4337079 L82.4908815,23.4831461 Z M64.4072948,29.1191011 C59.799696,29.1191011 57.5206687,27.4382022 57.5206687,21.8516854 L57.5206687,14.8314607 L61.7319149,14.8314607 L61.7319149,21.9505618 C61.7319149,25.2629213 62.2768997,25.658427 64.8036474,25.658427 L64.8036474,14.8314607 L68.7176292,14.8314607 L68.7176292,25.658427 C71.293921,25.658427 71.8389058,25.2629213 71.8389058,21.9505618 L71.8389058,14.8314607 L76.050152,14.8314607 L76.050152,21.9011236 C76.050152,27.4876404 73.8206687,29.1685393 69.1635258,29.1685393 C67.6276596,29.1191011 66.0422492,29.1191011 64.4072948,29.1191011 L64.4072948,29.1191011 Z M96.2641337,18.1438202 L99.6331307,18.1438202 C99.9799392,18.1438202 100.22766,18.341573 100.22766,19.1820225 C100.22766,20.0719101 99.9799392,20.1707865 99.6331307,20.1707865 L96.2641337,20.1707865 L96.2641337,18.1438202 L96.2641337,18.1438202 Z M96.2641337,25.7573034 L96.2641337,23.3348315 L99.6331307,23.3348315 C100.128571,23.3348315 100.47538,23.5820225 100.47538,24.5707865 C100.47538,25.5101124 100.178116,25.7573034 99.7322188,25.7573034 L96.2641337,25.7573034 L96.2641337,25.7573034 Z M101.367173,21.6539326 C103.943465,21.4561798 104.48845,20.3191011 104.48845,18.2921348 C104.48845,15.8696629 103.745289,14.8314607 100.871733,14.8314607 L92.350152,14.8314607 L92.350152,29.1191011 L100.871733,29.1191011 C103.200304,29.1191011 104.73617,28.2292135 104.73617,25.3123596 C104.686626,22.988764 104.092097,21.8022472 101.367173,21.6539326 L101.367173,21.6539326 Z" id="Shape" fill-rule="nonzero"></path>
                    <path d="M111.325532,34.458427 C110.929179,34.3101124 110.235562,34.211236 109.541945,34.211236 C107.857447,34.211236 107.16383,34.7550562 107.16383,36.0898876 C107.16383,37.0786517 107.659271,37.4247191 108.74924,37.5730337 C109.740122,37.6719101 109.83921,37.7707865 109.83921,38.0179775 C109.83921,38.2651685 109.740122,38.3640449 108.99696,38.3640449 C108.402432,38.3640449 107.857447,38.2651685 107.510638,38.2157303 L107.213374,39.4516854 C107.659271,39.6 108.303343,39.6988764 108.99696,39.6988764 C110.731003,39.6988764 111.375076,39.3033708 111.375076,37.9191011 C111.375076,36.9303371 110.830091,36.4359551 109.641033,36.2876404 C108.74924,36.188764 108.650152,36.1393258 108.650152,35.8426966 C108.650152,35.6449438 108.74924,35.4966292 109.492401,35.4966292 C110.136474,35.4966292 110.631915,35.5955056 110.978723,35.6449438 L111.325532,34.458427 L111.325532,34.458427 Z M117.072644,39.6 L117.072644,35.5955056 L118.806687,35.5955056 L118.806687,34.3101124 L113.901824,34.3101124 L113.901824,35.5955056 L115.635866,35.5955056 L115.635866,39.6 L117.072644,39.6 L117.072644,39.6 Z M124.702432,34.3595506 L126.13921,34.3595506 L126.13921,38.2651685 C126.13921,39.4022472 125.197872,39.7483146 123.860182,39.7483146 C122.472948,39.7483146 121.581155,39.4516854 121.581155,38.2651685 L121.581155,34.3595506 L123.017933,34.3595506 L123.017933,37.9191011 C123.017933,38.2157303 123.216109,38.3640449 123.860182,38.3640449 C124.504255,38.3640449 124.702432,38.2157303 124.702432,37.9191011 L124.702432,34.3595506 L124.702432,34.3595506 Z M129.210942,34.3595506 L129.210942,39.6 L131.589058,39.6 C133.273556,39.6 134.115805,39.0067416 134.115805,36.9303371 C134.115805,34.9033708 133.273556,34.3595506 131.589058,34.3595506 L129.210942,34.3595506 L129.210942,34.3595506 Z M132.579939,36.9797753 C132.579939,38.2157303 132.381763,38.3640449 131.390881,38.3640449 L130.64772,38.3640449 L130.64772,35.5955056 L131.390881,35.5955056 C132.381763,35.5955056 132.579939,35.694382 132.579939,36.9797753 L132.579939,36.9797753 Z M138.42614,34.3595506 L138.42614,39.6 L136.989362,39.6 L136.989362,34.3595506 L138.42614,34.3595506 L138.42614,34.3595506 Z M144.371429,34.211236 C146.055927,34.211236 146.997264,34.7550562 146.997264,36.8808989 C146.997264,39.0561798 146.105471,39.6988764 144.371429,39.6988764 C142.68693,39.6988764 141.745593,39.0561798 141.745593,36.8808989 C141.745593,34.7550562 142.637386,34.211236 144.371429,34.211236 L144.371429,34.211236 Z M144.371429,38.3640449 C145.36231,38.3640449 145.461398,38.2157303 145.461398,36.8808989 C145.461398,35.6449438 145.36231,35.4966292 144.371429,35.4966292 C143.380547,35.4966292 143.281459,35.5955056 143.281459,36.8808989 C143.281459,38.2651685 143.380547,38.3640449 144.371429,38.3640449 L144.371429,38.3640449 Z" id="Shape" fill-rule="nonzero"></path>
                </g>
            </g>
        </g>
    </g>
</svg>