<svg xmlns="http://www.w3.org/2000/svg" width="133.44" height="282.62" viewBox="0 0 133.44 282.62">
  <metadata><?xpacket begin="﻿" id="W5M0MpCehiHzreSzNTczkc9d"?>
<x:xmpmeta xmlns:x="adobe:ns:meta/" x:xmptk="Adobe XMP Core 5.6-c138 79.159824, 2016/09/14-01:09:01        ">
   <rdf:RDF xmlns:rdf="http://www.w3.org/1999/02/22-rdf-syntax-ns#">
      <rdf:Description rdf:about=""/>
   </rdf:RDF>
</x:xmpmeta>
                                                                                                    
                                                                                                    
                                                                                                    
                                                                                                    
                                                                                                    
                                                                                                    
                                                                                                    
                                                                                                    
                                                                                                    
                                                                                                    
                                                                                                    
                                                                                                    
                                                                                                    
                                                                                                    
                                                                                                    
                                                                                                    
                                                                                                    
                                                                                                    
                                                                                                    
                                                                                                    
                           
<?xpacket end="w"?></metadata>
<defs>
    <style>
      .cls-1 {
        fill: #fff;
        fill-rule: evenodd;
      }
    </style>
  </defs>
  <path id="m" class="cls-1" d="M2175.37,8809.8c-0.64-19.92-13.64-68.5-14.19-70.56l-0.05-.19-0.09-.16c-7.64-14.09-18.4-24.61-31.96-31.27a77.9,77.9,0,0,0-38.32-7.57c-8.61.46-14.32,3-16.97,7.56-3.55,6.11-.15,13.4.17,14.05,7.34,16.56,6.94,40.09,6.92,41.11-0.51,7.04-13.79,13.43-18.88,15.31a9.449,9.449,0,0,0-6.19,8.59v0.17l5.19,23.39c0.92,3.77,9.03,36.83,9.68,38.77l3.05-1.02c-0.46-1.37-6-23.78-9.6-38.48l-5.1-22.98a6.239,6.239,0,0,1,4.08-5.42c0.83-.31,20.28-7.57,20.98-18.15v-0.07c0.03-1.01.57-25.03-7.2-42.55l-0.04-.07c-0.03-.06-3.06-6.25-0.28-11.03,2.07-3.56,6.9-5.57,14.36-5.96a74.543,74.543,0,0,1,36.73,7.24,68.55,68.55,0,0,1,28.78,26.82c-11.33-2.27-46.14-7.93-59.64,5.03-6.88,6.6-5.07,26.36,5.37,58.73,7.65,23.71,17.32,45.89,17.41,46.11l2.95-1.29c-10.6-24.25-35.49-89.72-23.5-101.23,13.45-12.91,52.74-5.08,59.29-3.66,1.85,6.98,13.26,50.83,13.84,68.94l2.58,38.64,3.2-.22Zm-14.07-63.97c11.21-7.58,10.34-19.94,10.24-21-0.06-1.11-1.32-18.45-15.86-35.99-8.6-10.39-20.09-18.65-34.15-24.57-17.48-7.36-39-11.09-63.97-11.09a1.841,1.841,0,0,0-.33.03c-0.41.08-10.03,2.15-12.26,9.13-1.37,4.31.41,9.35,5.29,14.98h-0.09v13.69l11.71,54.11,5.17,4.54s3.58,13.09,6.62,24.19c4.01-2.28,1.23-.6,2.79-1.98-2.77-10.11-5.9-21.55-5.9-21.55s4.64-.13,11.41-0.31c-0.29-1.8.69,0.7-.39-3.21a62.635,62.635,0,0,0-12.52.34l-4.27-3.74-11.41-52.74v-11.87a5.261,5.261,0,0,1,5.35,2.54,1.609,1.609,0,0,0,1.55.81c0.46-.05,46.97-4.09,69.9,23.25a1.7,1.7,0,0,0,.19.19,36.053,36.053,0,0,1,7.33,9.45c1.33,2.5,6.19,7,5.03,3.5a37.768,37.768,0,0,0-10.17-15.31c-9.97-11.83-25.68-19.77-45.45-22.99a119.78,119.78,0,0,0-26.16-1.37,8.615,8.615,0,0,0-7.94-3.28c-4.34-4.87-6.02-8.99-4.98-12.25,1.53-4.81,8.6-6.67,9.71-6.93,24.39,0.01,45.39,3.64,62.41,10.78,13.57,5.69,24.65,13.62,32.94,23.56,14.1,16.94,15.24,34.13,15.25,34.3a0.375,0.375,0,0,0,.01.1,19.929,19.929,0,0,1-8.28,17.65C2158.39,8743.99,2159.54,8747.02,2161.3,8745.83Zm-39.99-40.17c-8.12-4.67-17.95-8.13-29.34-10.29a155.348,155.348,0,0,0-37.12-2.28l0.27,3.21a151.085,151.085,0,0,1,36.32,2.24,106.907,106.907,0,0,1,15.59,4.14C2127.09,8709.78,2129.6,8710.43,2121.31,8705.66Zm-10.46,196.04v34.12h2.88v-14.95l-0.24-15.03,12.66,29.98h2.23l12.7-30.09-0.23,15.23v14.86h2.88V8901.7h-3.85l-12.63,30.11-12.58-30.11h-3.82Z" transform="translate(-2044.5 -8653.19)"/>
</svg>
