<svg xmlns="http://www.w3.org/2000/svg" width="29.28" height="29.25" viewBox="0 0 29.28 29.25">
  <metadata><?xpacket begin="﻿" id="W5M0MpCehiHzreSzNTczkc9d"?>
<x:xmpmeta xmlns:x="adobe:ns:meta/" x:xmptk="Adobe XMP Core 5.6-c138 79.159824, 2016/09/14-01:09:01        ">
   <rdf:RDF xmlns:rdf="http://www.w3.org/1999/02/22-rdf-syntax-ns#">
      <rdf:Description rdf:about=""/>
   </rdf:RDF>
</x:xmpmeta>
                                                                                                    
                                                                                                    
                                                                                                    
                                                                                                    
                                                                                                    
                                                                                                    
                                                                                                    
                                                                                                    
                                                                                                    
                                                                                                    
                                                                                                    
                                                                                                    
                                                                                                    
                                                                                                    
                                                                                                    
                                                                                                    
                                                                                                    
                                                                                                    
                                                                                                    
                                                                                                    
                           
<?xpacket end="w"?></metadata>
<defs>
    <style>
      .cls-1 {
        fill: #2487b8;
        fill-rule: evenodd;
      }
    </style>
  </defs>
  <path id="Phone_2" class="cls-1" d="M1830.15,89.49a3.23,3.23,0,0,1-2.3-.949l-0.82-.822c-3.59-3.583-.71-12.084,6.57-19.349,5.01-5,10.82-8.109,15.16-8.109a5.819,5.819,0,0,1,4.23,1.547l0.82,0.821a3.238,3.238,0,0,1,0,4.582l-3.29,3.281a3.325,3.325,0,0,1-4.59,0l-0.82-.821a1.383,1.383,0,0,0-1.04-.391c-0.82,0-2.67.477-5.87,3.673-3.77,3.753-4.17,6.025-3.29,6.9l0.82,0.821a3.232,3.232,0,0,1,0,4.583l-3.29,3.281A3.219,3.219,0,0,1,1830.15,89.49Z" transform="translate(-1825.47 -60.25)"/>
</svg>
