<svg xmlns="http://www.w3.org/2000/svg" width="206.812" height="271.78" viewBox="0 0 206.812 271.78">
  <metadata><?xpacket begin="﻿" id="W5M0MpCehiHzreSzNTczkc9d"?>
<x:xmpmeta xmlns:x="adobe:ns:meta/" x:xmptk="Adobe XMP Core 5.6-c138 79.159824, 2016/09/14-01:09:01        ">
   <rdf:RDF xmlns:rdf="http://www.w3.org/1999/02/22-rdf-syntax-ns#">
      <rdf:Description rdf:about=""/>
   </rdf:RDF>
</x:xmpmeta>
                                                                                                    
                                                                                                    
                                                                                                    
                                                                                                    
                                                                                                    
                                                                                                    
                                                                                                    
                                                                                                    
                                                                                                    
                                                                                                    
                                                                                                    
                                                                                                    
                                                                                                    
                                                                                                    
                                                                                                    
                                                                                                    
                                                                                                    
                                                                                                    
                                                                                                    
                                                                                                    
                           
<?xpacket end="w"?></metadata>
<defs>
    <style>
      .cls-1 {
        fill: #fff;
        fill-rule: evenodd;
      }
    </style>
  </defs>
  <path class="cls-1" d="M897.283,7319.02v-0.13a249.766,249.766,0,0,0-22.659-104.32c-10.886-23.53-21.914-37.02-22.647-37.91-0.658-.68-5.672-6.14-4.814-13.37,0.657-5.53,4.527-10.5,11.5-14.76a20.4,20.4,0,0,0,8.533-10.01c2.013-5.21,1.953-11.26-.2-20.24-0.337-1.4.453-2.92,1.368-4.67a11.089,11.089,0,0,0,1.166-2.72c-0.282-.86-1.385-1.67-2.551-2.52-1.7-1.24-3.629-2.64-4.45-5.08-0.611-1.82-.156-4.35.326-7.04,0.42-2.35.944-5.26,0.362-6.5a107.911,107.911,0,0,0-7.876-13.81c-1.176-1.77-2.4-3.43-3.646-4.96a52.956,52.956,0,0,0-5.022-5.37,46.788,46.788,0,0,0-3.969-3.28,48.273,48.273,0,0,0-18.658-8.15c-12.827-2.8-34.281,3.45-49.551,15.23-0.6-1.18-1.017-.07-3.622-1.57a78.9,78.9,0,0,1,13.9-9.02c14.171-7.28,29.507-10.37,40.022-8.07a51.716,51.716,0,0,1,19.99,8.75,50.324,50.324,0,0,1,4.275,3.53,56.973,56.973,0,0,1,5.361,5.73c1.313,1.61,2.607,3.37,3.845,5.23a111.036,111.036,0,0,1,8.132,14.27c1.059,2.24.479,5.48-.082,8.61-0.365,2.03-.778,4.34-0.455,5.3,0.464,1.38,1.788,2.34,3.189,3.36,1.617,1.18,3.289,2.4,3.876,4.45,0.459,1.6-.465,3.38-1.444,5.25a12.456,12.456,0,0,0-1.044,2.33c2.313,9.67,2.324,16.32.041,22.23a24.167,24.167,0,0,1-9.978,11.74c-6,3.66-9.307,7.75-9.842,12.15-0.712,5.86,3.825,10.52,3.87,10.57l0.1,0.1c0.474,0.56,11.724,14,23.132,38.62A253.239,253.239,0,0,1,900.8,7318.76Zm-27.754-208.16h0ZM853.418,7206l-10.737-36.31-0.089-.17a85.838,85.838,0,0,0-12.4-17.38,25.967,25.967,0,0,0,4.1-15.91c-0.085-1.38-1.539-20.37-17.515-39.58-9.5-11.42-22.195-20.52-37.727-27.03-19.3-8.1-43.073-12.2-70.651-12.2a2.144,2.144,0,0,0-.358.03c-0.451.1-11.076,2.36-13.539,10.05-1.521,4.74.444,10.28,5.839,16.47h-0.1v15.06l12.932,59.54,5.713,4.99,11.917,43.39a1.78,1.78,0,0,0,1.71,1.31H742.52a64.4,64.4,0,0,1-9.212,4.36,10.39,10.39,0,0,0-6.824,9.45v0.19l5.7,25.6c1.449,12.17,8.561,71.73,9.289,73.91l3.38-1.07c-0.586-2.28-5.8-45.11-9.158-73.35l-5.654-25.44a6.866,6.866,0,0,1,4.5-5.97,71.083,71.083,0,0,0,11.037-5.37c7.7-4.67,11.775-9.57,12.11-14.59l0-.07c0.023-.9.408-18.2-3.921-34.97l-0.027-1.02H753.5a74.461,74.461,0,0,0-3.765-10.81l-0.032-.07c-0.034-.06-3.367-6.92-0.307-12.14,2.291-3.91,7.618-6.11,15.835-6.54a82.48,82.48,0,0,1,40.531,7.96,75.425,75.425,0,0,1,31.758,29.5,195.763,195.763,0,0,0-24.035-3.2c-20.283-1.33-34.338,1.61-41.772,8.72-7.653,7.32-5.96,33.5,5.177,80.03,8.078,33.76,18.374,65.94,18.477,66.26l3.377-1.08c-0.1-.33-10.357-32.38-18.4-66-13.989-58.45-9.871-73.11-6.172-76.65,14.86-14.22,58.314-5.57,65.46-4.03L850.017,7207a273.464,273.464,0,0,1,11.231,77.59v32.72H864.8v-32.72A277.012,277.012,0,0,0,853.418,7206Zm-99.271-10.22c-0.231,3.2-2.872,6.28-6.285,8.94h-14l-11.1-40.43,27.984-.75A144.468,144.468,0,0,1,754.147,7195.78Zm10.9-68.96c-9.5.5-15.8,3.29-18.723,8.31-3.916,6.72-.166,14.73.187,15.45a68.957,68.957,0,0,1,3.329,9.44l-28.74.77-4.711-4.11-12.6-58.02v-13.07a5.836,5.836,0,0,1,5.908,2.8,1.775,1.775,0,0,0,1.706.89c0.516-.05,51.879-4.5,77.208,25.58a1.864,1.864,0,0,0,.207.2c0.085,0.08,7.914,6.85,10.685,16.77-0.762-.28-1.528-0.55-2.3-0.8l0.176-.14c-11.067-14.37-30.512-24.04-56.233-27.95a171.691,171.691,0,0,0-35.731-1.61l0.3,3.53c0.606-.05,58.556-4.54,85.7,24.49A88.941,88.941,0,0,0,765.047,7126.82Zm42.278,8.32c-1.272-.62-2.568-1.2-3.875-1.75l0.056-.02c-2.24-11.78-11.091-19.86-12.275-20.9-11.012-13.01-28.363-21.75-50.189-25.29a132.769,132.769,0,0,0-28.9-1.51,9.511,9.511,0,0,0-8.762-3.6c-4.8-5.37-6.649-9.9-5.5-13.49,1.687-5.29,9.5-7.33,10.72-7.62,26.947,0.02,50.137,4.01,68.928,11.86,14.992,6.26,27.234,14.98,36.383,25.93,15.581,18.63,16.835,37.54,16.846,37.72q0,0.06.009,0.12a22.777,22.777,0,0,1-3.113,12.92A77.187,77.187,0,0,0,807.325,7135.14Z" transform="translate(-694 -7050)"/>
</svg>
