<svg xmlns="http://www.w3.org/2000/svg" width="133.44" height="255.12" viewBox="0 0 133.44 255.12">
  <metadata><?xpacket begin="﻿" id="W5M0MpCehiHzreSzNTczkc9d"?>
<x:xmpmeta xmlns:x="adobe:ns:meta/" x:xmptk="Adobe XMP Core 5.6-c138 79.159824, 2016/09/14-01:09:01        ">
   <rdf:RDF xmlns:rdf="http://www.w3.org/1999/02/22-rdf-syntax-ns#">
      <rdf:Description rdf:about=""/>
   </rdf:RDF>
</x:xmpmeta>
                                                                                                    
                                                                                                    
                                                                                                    
                                                                                                    
                                                                                                    
                                                                                                    
                                                                                                    
                                                                                                    
                                                                                                    
                                                                                                    
                                                                                                    
                                                                                                    
                                                                                                    
                                                                                                    
                                                                                                    
                                                                                                    
                                                                                                    
                                                                                                    
                                                                                                    
                                                                                                    
                           
<?xpacket end="w"?></metadata>
<defs>
    <style>
      .cls-1 {
        fill: #fff;
        fill-rule: evenodd;
      }
    </style>
  </defs>
  <path id="s" class="cls-1" d="M1915.85,8809.8c-0.64-19.92-13.64-68.5-14.19-70.56l-0.05-.19-0.09-.16c-7.65-14.09-18.4-24.61-31.97-31.27a77.843,77.843,0,0,0-38.31-7.57c-8.61.46-14.32,3-16.97,7.56-3.55,6.11-.15,13.4.17,14.05,7.33,16.56,6.94,40.09,6.92,41.11-0.51,7.04-13.79,13.43-18.89,15.31a9.451,9.451,0,0,0-6.18,8.59v0.17l5.19,23.39c0.92,3.77,9.03,36.83,9.68,38.77l3.05-1.02c-0.46-1.37-6-23.78-9.6-38.48l-5.1-22.98a6.22,6.22,0,0,1,4.08-5.42c0.83-.31,20.28-7.57,20.98-18.15v-0.07c0.03-1.01.57-25.03-7.21-42.55l-0.03-.07c-0.03-.06-3.06-6.25-0.28-11.03,2.07-3.56,6.9-5.57,14.36-5.96a74.543,74.543,0,0,1,36.73,7.24,68.468,68.468,0,0,1,28.77,26.82c-11.32-2.27-46.13-7.93-59.63,5.03-6.88,6.6-5.07,26.36,5.37,58.73,7.65,23.71,17.32,45.89,17.41,46.11l2.95-1.29c-10.6-24.25-35.49-89.72-23.5-101.23,13.45-12.91,52.73-5.08,59.29-3.66,1.85,6.98,13.26,50.83,13.84,68.94l2.57,38.64,3.21-.22Zm-106.31-34.68-4.27-3.75-11.41-52.73v-11.88a5.289,5.289,0,0,1,5.35,2.55,1.6,1.6,0,0,0,1.54.8,105.877,105.877,0,0,1,13.98-.02c1.56-1.62.77-1.72,2.2-3.13a114.168,114.168,0,0,0-15.5-.13,8.613,8.613,0,0,0-7.94-3.27c-4.34-4.88-6.02-9-4.98-12.26,1.53-4.8,8.59-6.66,9.7-6.93,24.4,0.02,45.4,3.64,62.41,10.78,13.58,5.69,24.66,13.62,32.95,23.57,14.1,16.93,15.24,34.12,15.25,34.29a0.34,0.34,0,0,0,.01.1,20.175,20.175,0,0,1-2.43,11.13c0.64,2.48-1.04,7.19,1.4,3.71a24.177,24.177,0,0,0,4.22-15.15c-0.06-1.1-1.32-18.44-15.86-35.99-8.6-10.38-20.09-18.65-34.16-24.57-17.47-7.36-38.99-11.09-63.96-11.09a1.242,1.242,0,0,0-.33.04c-0.41.08-10.03,2.14-12.26,9.12-1.37,4.32.4,9.35,5.29,14.98h-0.09v13.69l11.71,54.12s3,2.63,4.43,3.88c0.45,0.39.74,0.65,0.74,0.65Zm7.88-50.56a117.281,117.281,0,0,1-21.82-.29l-0.27-3.2c0.12-.01,9.12.3,20.54,0.15C1817.52,8725.09,1815.03,8721.55,1817.42,8724.56Zm45.32,207.53a10.563,10.563,0,0,1-6.39,1.76,11.43,11.43,0,0,1-7.18-2.08,6.83,6.83,0,0,1-2.69-5.7h-2.88a9.311,9.311,0,0,0,1.55,5.32,10.144,10.144,0,0,0,4.57,3.61,16.681,16.681,0,0,0,6.63,1.29,13.689,13.689,0,0,0,8.49-2.44,7.7,7.7,0,0,0,3.22-6.47,8.043,8.043,0,0,0-1.19-4.43,10.016,10.016,0,0,0-3.56-3.22,31.553,31.553,0,0,0-6.96-2.6,19.42,19.42,0,0,1-6.68-2.9,5.147,5.147,0,0,1-2.09-4.25,5.459,5.459,0,0,1,2.32-4.57,10.144,10.144,0,0,1,6.23-1.74,9.323,9.323,0,0,1,6.43,2.12,7.191,7.191,0,0,1,2.39,5.63h2.9a9.612,9.612,0,0,0-1.47-5.22,9.972,9.972,0,0,0-4.16-3.66,13.757,13.757,0,0,0-6.09-1.31,13.156,13.156,0,0,0-8.23,2.45,7.868,7.868,0,0,0,.24,12.88,25.671,25.671,0,0,0,7.74,3.24q5.3,1.485,7.29,3.14a5.548,5.548,0,0,1,1.99,4.49A5.487,5.487,0,0,1,1862.74,8932.09Z" transform="translate(-1784.97 -8681.16)"/>
</svg>
