
<svg width="939px" height="250px" viewBox="0 0 939 250" version="1.1" xmlns="http://www.w3.org/2000/svg" xmlns:xlink="http://www.w3.org/1999/xlink">
    <!-- Generator: Sketch 41.2 (35397) - http://www.bohemiancoding.com/sketch -->
    <desc>Created with Sketch.</desc>
    <defs></defs>
    <g id="size-table" stroke="none" stroke-width="1" fill="none" fill-rule="evenodd">
        <g id="Page-1">
            <g id="Artboard">
                <g id="size-table">
                    <g id="back" opacity="0.6" transform="translate(86.000000, 60.000000)" fill="#FFFFFF">
                        <rect id="Rectangle-2" x="0" y="0" width="63.9095128" height="36.5384615"></rect>
                        <rect id="Rectangle-2-Copy-24" x="0" y="76.7307692" width="63.9095128" height="36.5384615"></rect>
                        <rect id="Rectangle-2-Copy-12" x="0" y="38.3653846" width="63.9095128" height="36.5384615"></rect>
                        <rect id="Rectangle-2-Copy-25" x="0" y="115.096154" width="63.9095128" height="36.5384615"></rect>
                        <rect id="Rectangle-2-Copy-48" x="0" y="153.461538" width="63.9095128" height="36.5384615"></rect>
                        <rect id="Rectangle-2-Copy" x="65.7354988" y="0" width="63.9095128" height="36.5384615"></rect>
                        <rect id="Rectangle-2-Copy-26" x="65.7354988" y="76.7307692" width="63.9095128" height="36.5384615"></rect>
                        <rect id="Rectangle-2-Copy-13" x="65.7354988" y="38.3653846" width="63.9095128" height="36.5384615"></rect>
                        <rect id="Rectangle-2-Copy-27" x="65.7354988" y="115.096154" width="63.9095128" height="36.5384615"></rect>
                        <rect id="Rectangle-2-Copy-49" x="65.7354988" y="153.461538" width="63.9095128" height="36.5384615"></rect>
                        <rect id="Rectangle-2-Copy-2" x="131.470998" y="0" width="63.9095128" height="36.5384615"></rect>
                        <rect id="Rectangle-2-Copy-28" x="131.470998" y="76.7307692" width="63.9095128" height="36.5384615"></rect>
                        <rect id="Rectangle-2-Copy-14" x="131.470998" y="38.3653846" width="63.9095128" height="36.5384615"></rect>
                        <rect id="Rectangle-2-Copy-29" x="131.470998" y="115.096154" width="63.9095128" height="36.5384615"></rect>
                        <rect id="Rectangle-2-Copy-50" x="131.470998" y="153.461538" width="63.9095128" height="36.5384615"></rect>
                        <rect id="Rectangle-2-Copy-3" x="197.206497" y="0" width="63.9095128" height="36.5384615"></rect>
                        <rect id="Rectangle-2-Copy-30" x="197.206497" y="76.7307692" width="63.9095128" height="36.5384615"></rect>
                        <rect id="Rectangle-2-Copy-15" x="197.206497" y="38.3653846" width="63.9095128" height="36.5384615"></rect>
                        <rect id="Rectangle-2-Copy-31" x="197.206497" y="115.096154" width="63.9095128" height="36.5384615"></rect>
                        <rect id="Rectangle-2-Copy-51" x="197.206497" y="153.461538" width="63.9095128" height="36.5384615"></rect>
                        <rect id="Rectangle-2-Copy-4" x="262.941995" y="0" width="63.9095128" height="36.5384615"></rect>
                        <rect id="Rectangle-2-Copy-32" x="262.941995" y="76.7307692" width="63.9095128" height="36.5384615"></rect>
                        <rect id="Rectangle-2-Copy-23" x="262.941995" y="38.3653846" width="63.9095128" height="36.5384615"></rect>
                        <rect id="Rectangle-2-Copy-33" x="262.941995" y="115.096154" width="63.9095128" height="36.5384615"></rect>
                        <rect id="Rectangle-2-Copy-52" x="262.941995" y="153.461538" width="63.9095128" height="36.5384615"></rect>
                        <rect id="Rectangle-2-Copy-5" x="328.677494" y="0" width="63.9095128" height="36.5384615"></rect>
                        <rect id="Rectangle-2-Copy-34" x="328.677494" y="76.7307692" width="63.9095128" height="36.5384615"></rect>
                        <rect id="Rectangle-2-Copy-47" x="328.677494" y="115.096154" width="63.9095128" height="36.5384615"></rect>
                        <rect id="Rectangle-2-Copy-53" x="328.677494" y="153.461538" width="63.9095128" height="36.5384615"></rect>
                        <rect id="Rectangle-2-Copy-16" x="328.677494" y="38.3653846" width="63.9095128" height="36.5384615"></rect>
                        <rect id="Rectangle-2-Copy-6" x="394.412993" y="0" width="63.9095128" height="36.5384615"></rect>
                        <rect id="Rectangle-2-Copy-35" x="394.412993" y="76.7307692" width="63.9095128" height="36.5384615"></rect>
                        <rect id="Rectangle-2-Copy-17" x="394.412993" y="38.3653846" width="63.9095128" height="36.5384615"></rect>
                        <rect id="Rectangle-2-Copy-36" x="394.412993" y="115.096154" width="63.9095128" height="36.5384615"></rect>
                        <rect id="Rectangle-2-Copy-59" x="394.412993" y="153.461538" width="63.9095128" height="36.5384615"></rect>
                        <rect id="Rectangle-2-Copy-7" x="460.148492" y="0" width="63.9095128" height="36.5384615"></rect>
                        <rect id="Rectangle-2-Copy-37" x="460.148492" y="76.7307692" width="63.9095128" height="36.5384615"></rect>
                        <rect id="Rectangle-2-Copy-18" x="460.148492" y="38.3653846" width="63.9095128" height="36.5384615"></rect>
                        <rect id="Rectangle-2-Copy-38" x="460.148492" y="115.096154" width="63.9095128" height="36.5384615"></rect>
                        <rect id="Rectangle-2-Copy-54" x="460.148492" y="153.461538" width="63.9095128" height="36.5384615"></rect>
                        <rect id="Rectangle-2-Copy-8" x="525.883991" y="0" width="63.9095128" height="36.5384615"></rect>
                        <rect id="Rectangle-2-Copy-39" x="525.883991" y="76.7307692" width="63.9095128" height="36.5384615"></rect>
                        <rect id="Rectangle-2-Copy-19" x="525.883991" y="38.3653846" width="63.9095128" height="36.5384615"></rect>
                        <rect id="Rectangle-2-Copy-40" x="525.883991" y="115.096154" width="63.9095128" height="36.5384615"></rect>
                        <rect id="Rectangle-2-Copy-55" x="525.883991" y="153.461538" width="63.9095128" height="36.5384615"></rect>
                        <rect id="Rectangle-2-Copy-9" x="591.61949" y="0" width="63.9095128" height="36.5384615"></rect>
                        <rect id="Rectangle-2-Copy-41" x="591.61949" y="76.7307692" width="63.9095128" height="36.5384615"></rect>
                        <rect id="Rectangle-2-Copy-20" x="591.61949" y="38.3653846" width="63.9095128" height="36.5384615"></rect>
                        <rect id="Rectangle-2-Copy-42" x="591.61949" y="115.096154" width="63.9095128" height="36.5384615"></rect>
                        <rect id="Rectangle-2-Copy-56" x="591.61949" y="153.461538" width="63.9095128" height="36.5384615"></rect>
                        <rect id="Rectangle-2-Copy-10" x="657.354988" y="0" width="63.9095128" height="36.5384615"></rect>
                        <rect id="Rectangle-2-Copy-43" x="657.354988" y="76.7307692" width="63.9095128" height="36.5384615"></rect>
                        <rect id="Rectangle-2-Copy-21" x="657.354988" y="38.3653846" width="63.9095128" height="36.5384615"></rect>
                        <rect id="Rectangle-2-Copy-44" x="657.354988" y="115.096154" width="63.9095128" height="36.5384615"></rect>
                        <rect id="Rectangle-2-Copy-57" x="657.354988" y="153.461538" width="63.9095128" height="36.5384615"></rect>
                        <rect id="Rectangle-2-Copy-11" x="723" y="0" width="63.9095128" height="36.5384615"></rect>
                        <rect id="Rectangle-2-Copy-60" x="789" y="0" width="63.9095128" height="36.5384615"></rect>
                        <rect id="Rectangle-2-Copy-45" x="723" y="77" width="63.9095128" height="36.5384615"></rect>
                        <rect id="Rectangle-2-Copy-61" x="789" y="77" width="63.9095128" height="36.5384615"></rect>
                        <rect id="Rectangle-2-Copy-22" x="723.090487" y="38.3653846" width="63.9095128" height="36.5384615"></rect>
                        <rect id="Rectangle-2-Copy-22" x="789.090487" y="38.3653846" width="63.9095128" height="36.5384615"></rect>
                        <rect id="Rectangle-2-Copy-46" x="723" y="115" width="63.9095128" height="36.5384615"></rect>
                        <rect id="Rectangle-2-Copy-62" x="789" y="115" width="63.9095128" height="36.5384615"></rect>
                        <rect id="Rectangle-2-Copy-58" x="723" y="153" width="63.9095128" height="36.5384615"></rect>
                        <rect id="Rectangle-2-Copy-63" x="789" y="153" width="63.9095128" height="36.5384615"></rect>
                    </g>
                    <g id="Group-2" transform="translate(32.000000, 68.000000)" font-size="18" font-family="Helvetica" fill="#FFFFFF" font-weight="normal">
                        <g id="0+/I" transform="translate(1.000000, 0.000000)">
                            <text>
                                <tspan x="0.91894531" y="18">0+/I</tspan>
                            </text>
                        </g>
                        <g id="0+" transform="translate(14.000000, 37.000000)">
                            <text>
                                <tspan x="0.2324219" y="18">0+</tspan>
                            </text>
                        </g>
                        <g id="I---III" transform="translate(5.000000, 114.000000)">
                            <text>
                                <tspan x="0.54003906" y="18">I - III</tspan>
                            </text>
                        </g>
                        <g id="II---III" transform="translate(0.000000, 151.000000)">
                            <text>
                                <tspan x="0.64453125" y="18">II - III</tspan>
                            </text>
                        </g>
                        <g id="I" transform="translate(34.000000, 75.000000)">
                            <text>
                                <tspan x="0.1044922" y="18">I</tspan>
                            </text>
                        </g>
                    </g>
                    <g id="Group" transform="translate(116.000000, 36.000000)" fill="#FFFFFF">
                        <path d="M8.08789062,7.54199219 C8.08789062,9.44629858 7.76269856,10.8613235 7.11230469,11.7871094 C6.46191081,12.7128953 5.44531941,13.1757812 4.0625,13.1757812 C2.6972588,13.1757812 1.68652672,12.7231491 1.03027344,11.8178711 C0.374020156,10.9125931 0.0341798047,9.56055587 0.0107421875,7.76171875 L0.0107421875,5.59082031 C0.0107421875,3.70995153 0.335934248,2.31250457 0.986328125,1.3984375 C1.636722,0.48437043 2.65624306,0.02734375 4.04492188,0.02734375 C5.42188188,0.02734375 6.43554362,0.46825731 7.0859375,1.35009766 C7.73633138,2.231938 8.07031241,3.59276424 8.08789062,5.43261719 L8.08789062,7.54199219 Z M6.46191406,5.31835938 C6.46191406,3.94139937 6.26855662,2.93799143 5.88183594,2.30810547 C5.49511525,1.67821951 4.88281669,1.36328125 4.04492188,1.36328125 C3.21288646,1.36328125 2.60644722,1.67675468 2.22558594,2.30371094 C1.84472466,2.9306672 1.64843756,3.89452475 1.63671875,5.1953125 L1.63671875,7.796875 C1.63671875,9.17969441 1.83740034,10.2006803 2.23876953,10.8598633 C2.64013873,11.5190463 3.2480428,11.8486328 4.0625,11.8486328 C4.86523839,11.8486328 5.46142383,11.538089 5.85107422,10.9169922 C6.2407246,10.2958953 6.44433585,9.31738949 6.46191406,7.98144531 L6.46191406,5.31835938 Z" id="0"></path>
                        <polygon id="1" points="68.4072266 13 66.7724609 13 66.7724609 2.16308594 63.4941406 3.3671875 63.4941406 1.890625 68.1523438 0.141601562 68.4072266 0.141601562"></polygon>
                        <path d="M136.448242,13 L128.063477,13 L128.063477,11.8310547 L132.493164,6.90917969 C133.149417,6.16503534 133.60205,5.56006092 133.851074,5.09423828 C134.100099,4.62841564 134.224609,4.14648687 134.224609,3.6484375 C134.224609,2.98046541 134.022463,2.43261933 133.618164,2.00488281 C133.213865,1.5771463 132.674808,1.36328125 132.000977,1.36328125 C131.192379,1.36328125 130.563967,1.59325942 130.115723,2.05322266 C129.667478,2.51318589 129.443359,3.15331621 129.443359,3.97363281 L127.817383,3.97363281 C127.817383,2.79589255 128.196774,1.84375363 128.955566,1.1171875 C129.714359,0.390621367 130.729486,0.02734375 132.000977,0.02734375 C133.190436,0.02734375 134.130856,0.339352349 134.822266,0.963378906 C135.513675,1.58740546 135.859375,2.41796356 135.859375,3.45507812 C135.859375,4.71485005 135.056649,6.21483505 133.451172,7.95507813 L130.023438,11.6728516 L136.448242,11.6728516 L136.448242,13 Z" id="2"></path>
                        <path d="M198.427734,5.81054688 L199.649414,5.81054688 C200.416996,5.79882807 201.020506,5.59668165 201.459961,5.20410156 C201.899416,4.81152147 202.119141,4.28125334 202.119141,3.61328125 C202.119141,2.11327375 201.372078,1.36328125 199.87793,1.36328125 C199.174801,1.36328125 198.613772,1.56396284 198.194824,1.96533203 C197.775877,2.36670123 197.566406,2.89843419 197.566406,3.56054688 L195.94043,3.56054688 C195.94043,2.54686993 196.311031,1.7045932 197.052246,1.03369141 C197.793461,0.362789614 198.735346,0.02734375 199.87793,0.02734375 C201.084967,0.02734375 202.031247,0.346676494 202.716797,0.985351562 C203.402347,1.62402663 203.745117,2.51171307 203.745117,3.6484375 C203.745117,4.20508091 203.564943,4.74413802 203.20459,5.265625 C202.844236,5.78711198 202.353519,6.17675652 201.732422,6.43457031 C202.43555,6.65722768 202.979002,7.02636461 203.362793,7.54199219 C203.746584,8.05761977 203.938477,8.68749628 203.938477,9.43164062 C203.938477,10.5800839 203.56348,11.4912076 202.813477,12.1650391 C202.063473,12.8388706 201.087897,13.1757812 199.886719,13.1757812 C198.685541,13.1757812 197.7085,12.8505892 196.955566,12.2001953 C196.202633,11.5498014 195.826172,10.6914116 195.826172,9.625 L197.460938,9.625 C197.460938,10.2988315 197.680662,10.8378886 198.120117,11.2421875 C198.559573,11.6464864 199.148434,11.8486328 199.886719,11.8486328 C200.671879,11.8486328 201.272459,11.6435567 201.688477,11.2333984 C202.104494,10.8232401 202.3125,10.2343788 202.3125,9.46679688 C202.3125,8.72265253 202.083987,8.15136918 201.626953,7.75292969 C201.16992,7.3544902 200.510746,7.14941412 199.649414,7.13769531 L198.427734,7.13769531 L198.427734,5.81054688 Z" id="3"></path>
                        <path d="M266.927734,8.70214844 L268.703125,8.70214844 L268.703125,10.0292969 L266.927734,10.0292969 L266.927734,13 L265.292969,13 L265.292969,10.0292969 L259.46582,10.0292969 L259.46582,9.07128906 L265.196289,0.203125 L266.927734,0.203125 L266.927734,8.70214844 Z M261.311523,8.70214844 L265.292969,8.70214844 L265.292969,2.42675781 L265.099609,2.77832031 L261.311523,8.70214844 Z" id="4"></path>
                        <path d="M329.810547,6.58398438 L330.460938,0.203125 L337.017578,0.203125 L337.017578,1.70605469 L331.84082,1.70605469 L331.454102,5.1953125 C332.081058,4.82617003 332.792965,4.64160156 333.589844,4.64160156 C334.755865,4.64160156 335.681637,5.02685162 336.367188,5.79736328 C337.052738,6.56787495 337.395508,7.60936844 337.395508,8.921875 C337.395508,10.240241 337.039554,11.2788048 336.327637,12.0375977 C335.615719,12.7963905 334.6211,13.1757812 333.34375,13.1757812 C332.212885,13.1757812 331.290043,12.8623078 330.575195,12.2353516 C329.860348,11.6083953 329.453125,10.7412165 329.353516,9.63378906 L330.891602,9.63378906 C330.991211,10.3662146 331.251951,10.9184552 331.673828,11.2905273 C332.095705,11.6625995 332.65234,11.8486328 333.34375,11.8486328 C334.099613,11.8486328 334.692869,11.5908229 335.123535,11.0751953 C335.554201,10.5595677 335.769531,9.84766079 335.769531,8.93945312 C335.769531,8.0839801 335.536623,7.39697525 335.070801,6.87841797 C334.604978,6.35986069 333.985355,6.10058594 333.211914,6.10058594 C332.502926,6.10058594 331.946291,6.25585782 331.541992,6.56640625 L331.111328,6.91796875 L329.810547,6.58398438 Z" id="5"></path>
                        <path d="M397.444336,0.194335938 L397.444336,1.57421875 L397.145508,1.57421875 C395.879876,1.59765637 394.872074,1.97265262 394.12207,2.69921875 C393.372067,3.42578488 392.938477,4.4482356 392.821289,5.76660156 C393.495121,4.9931602 394.415033,4.60644531 395.581055,4.60644531 C396.694342,4.60644531 397.583493,4.99901951 398.248535,5.78417969 C398.913578,6.56933986 399.246094,7.5830016 399.246094,8.82519531 C399.246094,10.1435613 398.887211,11.1982382 398.169434,11.9892578 C397.451657,12.7802774 396.489264,13.1757812 395.282227,13.1757812 C394.057611,13.1757812 393.064457,12.7055711 392.302734,11.7651367 C391.541012,10.8247023 391.160156,9.61328866 391.160156,8.13085938 L391.160156,7.50683594 C391.160156,5.15135541 391.662593,3.35108044 392.66748,2.10595703 C393.672368,0.860833618 395.167959,0.223632959 397.154297,0.194335938 L397.444336,0.194335938 Z M395.308594,5.95996094 C394.75195,5.95996094 394.23926,6.12695146 393.770508,6.4609375 C393.301755,6.79492354 392.976563,7.21386467 392.794922,7.71777344 L392.794922,8.31542969 C392.794922,9.37012246 393.032224,10.2197233 393.506836,10.8642578 C393.981448,11.5087923 394.573239,11.8310547 395.282227,11.8310547 C396.014652,11.8310547 396.59033,11.5615261 397.009277,11.0224609 C397.428225,10.4833957 397.637695,9.77734812 397.637695,8.90429688 C397.637695,8.02538623 397.425295,7.31494412 397.000488,6.77294922 C396.575681,6.23095432 396.011722,5.95996094 395.308594,5.95996094 Z" id="6"></path>
                        <polygon id="7" points="466.325195 1.1171875 461.025391 13 459.320312 13 464.602539 1.5390625 457.676758 1.5390625 457.676758 0.203125 466.325195 0.203125"></polygon>
                        <path d="M530.824219,3.54296875 C530.824219,4.18164382 530.655763,4.74999751 530.318848,5.24804688 C529.981932,5.74609624 529.52637,6.13574078 528.952148,6.41699219 C529.620121,6.704103 530.148924,7.12304412 530.538574,7.67382812 C530.928225,8.22461213 531.123047,8.84862933 531.123047,9.54589844 C531.123047,10.6533258 530.749515,11.535153 530.002441,12.1914062 C529.255367,12.8476595 528.272467,13.1757812 527.053711,13.1757812 C525.823236,13.1757812 524.837406,12.8461947 524.096191,12.1870117 C523.354977,11.5278287 522.984375,10.6474664 522.984375,9.54589844 C522.984375,8.85448873 523.173338,8.23047153 523.55127,7.67382812 C523.929201,7.11718472 524.452145,6.69531394 525.120117,6.40820312 C524.551755,6.12695172 524.103517,5.73730718 523.775391,5.23925781 C523.447264,4.74120845 523.283203,4.17578441 523.283203,3.54296875 C523.283203,2.46483836 523.628903,1.60937816 524.320312,0.9765625 C525.011722,0.343746836 525.922846,0.02734375 527.053711,0.02734375 C528.178717,0.02734375 529.088375,0.343746836 529.782715,0.9765625 C530.477054,1.60937816 530.824219,2.46483836 530.824219,3.54296875 Z M529.49707,9.51074219 C529.49707,8.79589486 529.270022,8.21289288 528.815918,7.76171875 C528.361814,7.31054462 527.768558,7.08496094 527.036133,7.08496094 C526.303707,7.08496094 525.716311,7.30761496 525.273926,7.75292969 C524.831541,8.19824441 524.610352,8.78417605 524.610352,9.51074219 C524.610352,10.2373083 524.825681,10.8085917 525.256348,11.2246094 C525.687014,11.6406271 526.286129,11.8486328 527.053711,11.8486328 C527.815433,11.8486328 528.413084,11.6391623 528.84668,11.2202148 C529.280276,10.8012674 529.49707,10.2314489 529.49707,9.51074219 Z M527.053711,1.36328125 C526.415036,1.36328125 525.897951,1.56103318 525.502441,1.95654297 C525.106932,2.35205276 524.90918,2.88964504 524.90918,3.56933594 C524.90918,4.21972981 525.104002,4.74560346 525.493652,5.14697266 C525.883303,5.54834185 526.403317,5.74902344 527.053711,5.74902344 C527.704105,5.74902344 528.224119,5.54834185 528.61377,5.14697266 C529.00342,4.74560346 529.198242,4.21972981 529.198242,3.56933594 C529.198242,2.91894206 528.996096,2.38867393 528.591797,1.97851562 C528.187498,1.56835732 527.674808,1.36328125 527.053711,1.36328125 Z" id="8"></path>
                        <path d="M595.294922,7.375 C594.955076,7.7792989 594.549319,8.10449096 594.077637,8.35058594 C593.605955,8.59668092 593.08887,8.71972656 592.526367,8.71972656 C591.788082,8.71972656 591.145022,8.53808775 590.597168,8.17480469 C590.049314,7.81152162 589.625978,7.30029626 589.327148,6.64111328 C589.028319,5.9819303 588.878906,5.25391023 588.878906,4.45703125 C588.878906,3.60155822 589.041502,2.83105812 589.366699,2.14550781 C589.691896,1.45995751 590.153317,0.935548691 590.750977,0.572265625 C591.348636,0.208982559 592.045894,0.02734375 592.842773,0.02734375 C594.108405,0.02734375 595.105953,0.50048355 595.835449,1.44677734 C596.564945,2.39307114 596.929688,3.68358558 596.929688,5.31835937 L596.929688,5.79296875 C596.929688,8.28321558 596.437505,10.1010685 595.453125,11.246582 C594.468745,12.3920956 592.983408,12.979492 590.99707,13.0087891 L590.680664,13.0087891 L590.680664,11.6376953 L591.023438,11.6376953 C592.365241,11.6142577 593.396481,11.2641635 594.117188,10.5874023 C594.837894,9.91064115 595.230468,8.83985107 595.294922,7.375 Z M592.790039,7.375 C593.334964,7.375 593.8374,7.20800948 594.297363,6.87402344 C594.757327,6.54003739 595.092772,6.12695559 595.303711,5.63476562 L595.303711,4.984375 C595.303711,3.91796342 595.072268,3.05078459 594.609375,2.3828125 C594.146482,1.71484041 593.56055,1.38085938 592.851562,1.38085938 C592.136715,1.38085938 591.562502,1.65478242 591.128906,2.20263672 C590.69531,2.75049102 590.478516,3.47265177 590.478516,4.36914062 C590.478516,5.24219187 590.687986,5.96142295 591.106934,6.52685547 C591.525881,7.09228798 592.086911,7.375 592.790039,7.375 Z" id="9"></path>
                        <path d="M653.407227,13 L651.772461,13 L651.772461,2.16308594 L648.494141,3.3671875 L648.494141,1.890625 L653.152344,0.141601562 L653.407227,0.141601562 L653.407227,13 Z M666.195312,7.54199219 C666.195312,9.44629858 665.87012,10.8613235 665.219727,11.7871094 C664.569333,12.7128953 663.552741,13.1757812 662.169922,13.1757812 C660.804681,13.1757812 659.793949,12.7231491 659.137695,11.8178711 C658.481442,10.9125931 658.141602,9.56055587 658.118164,7.76171875 L658.118164,5.59082031 C658.118164,3.70995153 658.443356,2.31250457 659.09375,1.3984375 C659.744144,0.48437043 660.763665,0.02734375 662.152344,0.02734375 C663.529304,0.02734375 664.542965,0.46825731 665.193359,1.35009766 C665.843753,2.231938 666.177734,3.59276424 666.195312,5.43261719 L666.195312,7.54199219 Z M664.569336,5.31835938 C664.569336,3.94139937 664.375978,2.93799143 663.989258,2.30810547 C663.602537,1.67821951 662.990239,1.36328125 662.152344,1.36328125 C661.320308,1.36328125 660.713869,1.67675468 660.333008,2.30371094 C659.952147,2.9306672 659.755859,3.89452475 659.744141,5.1953125 L659.744141,7.796875 C659.744141,9.17969441 659.944822,10.2006803 660.346191,10.8598633 C660.747561,11.5190463 661.355465,11.8486328 662.169922,11.8486328 C662.97266,11.8486328 663.568846,11.538089 663.958496,10.9169922 C664.348146,10.2958953 664.551758,9.31738949 664.569336,7.98144531 L664.569336,5.31835938 Z" id="10"></path>
                        <path d="M720.407227,13 L718.772461,13 L718.772461,2.16308594 L715.494141,3.3671875 L715.494141,1.890625 L720.152344,0.141601562 L720.407227,0.141601562 L720.407227,13 Z M730.514648,13 L728.879883,13 L728.879883,2.16308594 L725.601562,3.3671875 L725.601562,1.890625 L730.259766,0.141601562 L730.514648,0.141601562 L730.514648,13 Z" id="11"></path>
                        <path d="M783.407227,13 L781.772461,13 L781.772461,2.16308594 L778.494141,3.3671875 L778.494141,1.890625 L783.152344,0.141601562 L783.407227,0.141601562 L783.407227,13 Z M796.555664,13 L788.170898,13 L788.170898,11.8310547 L792.600586,6.90917969 C793.256839,6.16503534 793.709471,5.56006092 793.958496,5.09423828 C794.207521,4.62841564 794.332031,4.14648687 794.332031,3.6484375 C794.332031,2.98046541 794.129885,2.43261933 793.725586,2.00488281 C793.321287,1.5771463 792.78223,1.36328125 792.108398,1.36328125 C791.299801,1.36328125 790.671389,1.59325942 790.223145,2.05322266 C789.7749,2.51318589 789.550781,3.15331621 789.550781,3.97363281 L787.924805,3.97363281 C787.924805,2.79589255 788.304195,1.84375363 789.062988,1.1171875 C789.821781,0.390621367 790.836908,0.02734375 792.108398,0.02734375 C793.297858,0.02734375 794.238278,0.339352349 794.929688,0.963378906 C795.621097,1.58740546 795.966797,2.41796356 795.966797,3.45507812 C795.966797,4.71485005 795.164071,6.21483505 793.558594,7.95507813 L790.130859,11.6728516 L796.555664,11.6728516 L796.555664,13 Z" id="12"></path>
                    </g>
                    <g id="Group-3" transform="translate(0.000000, 80.000000)">
                        <path d="M-19.6796883,71.5917968 L-25.8496102,71.5917968 L-25.8496102,82.9999999 L-27.5458992,82.9999999 L-27.5458992,70.2031249 L-19.6796883,70.2031249 L-19.6796883,71.5917968 Z M-15.9179696,77.9902343 L-15.9179696,82.9999999 L-17.6054696,82.9999999 L-17.6054696,70.2031249 L-12.885743,70.2031249 C-11.4853454,70.2031249 -10.3881884,70.5605432 -9.59423908,71.2753905 C-8.8002898,71.9902378 -8.40332111,72.9365174 -8.40332111,74.1142577 C-8.40332111,75.3564514 -8.79150082,76.3129848 -9.56787189,76.9838866 C-10.344243,77.6547884 -11.4560483,77.9902343 -12.9033211,77.9902343 L-15.9179696,77.9902343 Z M-15.9179696,76.6103515 L-12.885743,76.6103515 C-11.9833947,76.6103515 -11.2919954,76.3979512 -10.8115242,75.9731444 C-10.3310531,75.5483376 -10.0908211,74.9345742 -10.0908211,74.1318358 C-10.0908211,73.3701133 -10.3310531,72.7607444 -10.8115242,72.3037108 C-11.2919954,71.8466773 -11.9511685,71.609375 -12.7890633,71.5917968 L-15.9179696,71.5917968 L-15.9179696,76.6103515 Z M-1.85546955,77.6298827 L1.08886639,70.2031249 L3.04882732,70.2031249 L-1.47753986,80.8642577 C-1.78222889,81.5439486 -2.06640573,82.0258774 -2.33007892,82.3100585 C-2.59375212,82.5942396 -2.90283106,82.8110343 -3.25732502,82.9604491 C-3.61181898,83.1098639 -4.0556622,83.1845702 -4.58886799,83.1845702 C-5.05176093,83.1845702 -5.34765641,83.1582033 -5.4765633,83.1054687 L-5.42382892,81.7695311 L-4.62402424,81.8046874 C-4.00878679,81.8046874 -3.55176011,81.5087919 -3.25293049,80.9169921 L-3.03320392,80.4599608 L-2.69921955,79.6777343 L-7.05859455,70.2031249 L-5.16894611,70.2031249 L-1.85546955,77.6298827 Z M14.8349601,82.9999999 L13.1386711,82.9999999 L13.1386711,71.5917968 L6.8281242,71.5917968 L6.8281242,82.9999999 L5.1406242,82.9999999 L5.1406242,70.2031249 L14.8349601,70.2031249 L14.8349601,82.9999999 Z M27.6757804,82.9999999 L25.9794914,82.9999999 L25.9794914,71.5917968 L19.6689445,71.5917968 L19.6689445,82.9999999 L17.9814445,82.9999999 L17.9814445,70.2031249 L27.6757804,70.2031249 L27.6757804,82.9999999 Z M37.8095695,79.6601561 L32.4482414,79.6601561 L31.2441398,82.9999999 L29.5039054,82.9999999 L34.3906242,70.2031249 L35.8671867,70.2031249 L40.7626945,82.9999999 L39.0312492,82.9999999 L37.8095695,79.6601561 Z M32.958007,78.2714843 L37.308593,78.2714843 L35.1289054,72.2861327 L32.958007,78.2714843 Z" id="Группа" fill="#FFFFFF" transform="translate(6.608398, 76.693848) rotate(-90.000000) translate(-6.608398, -76.693848) "></path>
                        <path d="M25.0293864,0 L8,0" id="Line-Copy-3" stroke="#FFFFFF"></path>
                        <path d="M7.5,27.5 L7.5,0.5" id="Line" stroke="#FFFFFF"></path>
                        <path d="M7.5,150.5 L7.5,123.5" id="Line-Copy-5" stroke="#FFFFFF"></path>
                        <path d="M25.0293864,151 L8,151" id="Line-Copy-4" stroke="#FFFFFF"></path>
                    </g>
                    <g id="Group-4" transform="translate(119.000000, 0.000000)">
                        <path d="M351.236328,13 L351.236328,0.203125 L355.419922,0.203125 C356.808601,0.203125 357.853024,0.490231504 358.553223,1.06445312 C359.253421,1.63867475 359.603516,2.48827562 359.603516,3.61328125 C359.603516,4.21094049 359.433595,4.73974379 359.09375,5.19970703 C358.753905,5.65967027 358.291019,6.01562374 357.705078,6.26757813 C358.396488,6.46093847 358.942869,6.82861057 359.344238,7.37060547 C359.745607,7.91260037 359.946289,8.55859 359.946289,9.30859375 C359.946289,10.457037 359.574222,11.3593717 358.830078,12.015625 C358.085934,12.6718783 357.034186,13 355.674805,13 L351.236328,13 Z M352.923828,7.01464844 L352.923828,11.6201172 L355.709961,11.6201172 C356.495121,11.6201172 357.114744,11.4165059 357.568848,11.0092773 C358.022951,10.6020487 358.25,10.0410192 358.25,9.32617188 C358.25,7.78514854 357.412118,7.01464844 355.736328,7.01464844 L352.923828,7.01464844 Z M352.923828,5.66113281 L355.472656,5.66113281 C356.210941,5.66113281 356.801267,5.47656435 357.243652,5.10742188 C357.686037,4.7382794 357.907227,4.23730785 357.907227,3.60449219 C357.907227,2.90136367 357.70215,2.39013832 357.291992,2.07080078 C356.881834,1.75146325 356.257817,1.59179688 355.419922,1.59179688 L352.923828,1.59179688 L352.923828,5.66113281 Z M372.286133,7.01464844 C372.286133,8.26856096 372.075197,9.3627883 371.65332,10.2973633 C371.231443,11.2319383 370.633793,11.94531 369.860352,12.4375 C369.08691,12.92969 368.184575,13.1757812 367.15332,13.1757812 C366.145503,13.1757812 365.251957,12.9282251 364.472656,12.4331055 C363.693355,11.9379858 363.088381,11.2319382 362.657715,10.3149414 C362.227049,9.39794463 362.005859,8.33594354 361.994141,7.12890625 L361.994141,6.20605469 C361.994141,4.97557979 362.208006,3.88867659 362.635742,2.9453125 C363.063479,2.00194841 363.668453,1.27978766 364.450684,0.778808594 C365.232914,0.277829526 366.127925,0.02734375 367.135742,0.02734375 C368.161138,0.02734375 369.064937,0.274899868 369.847168,0.770019531 C370.629398,1.26513919 371.231443,1.98290545 371.65332,2.92333984 C372.075197,3.86377423 372.286133,4.95800157 372.286133,6.20605469 L372.286133,7.01464844 Z M370.607422,6.18847656 C370.607422,4.67089085 370.302737,3.50635171 369.693359,2.69482422 C369.083981,1.88329672 368.231451,1.47753906 367.135742,1.47753906 C366.069331,1.47753906 365.229984,1.88329672 364.617676,2.69482422 C364.005368,3.50635171 363.69043,4.63280529 363.672852,6.07421875 L363.672852,7.01464844 C363.672852,8.48535892 363.981931,9.64110908 364.600098,10.4819336 C365.218265,11.3227581 366.069331,11.7431641 367.15332,11.7431641 C368.24317,11.7431641 369.086911,11.3461954 369.68457,10.5522461 C370.28223,9.75829681 370.589844,8.6201246 370.607422,7.13769531 L370.607422,6.18847656 Z M381.382812,3.63964844 C381.382812,2.95995754 381.135256,2.4194356 380.640137,2.01806641 C380.145017,1.61669721 379.449223,1.41601562 378.552734,1.41601562 C377.802731,1.41601562 377.174319,1.62255653 376.66748,2.03564453 C376.160642,2.44873253 375.907227,2.95995789 375.907227,3.56933594 L374.219727,3.56933594 C374.219727,2.88964504 374.40576,2.28027613 374.777832,1.74121094 C375.149904,1.20214574 375.669919,0.78173979 376.337891,0.479980469 C377.005863,0.178221147 377.744137,0.02734375 378.552734,0.02734375 C379.982429,0.02734375 381.092769,0.348141323 381.883789,0.989746094 C382.674809,1.63135086 383.070312,2.52343179 383.070312,3.66601562 C383.070312,4.25781546 382.888674,4.79687257 382.525391,5.28320312 C382.162108,5.76953368 381.655277,6.15331891 381.004883,6.43457031 C382.51075,6.93847908 383.263672,7.93749253 383.263672,9.43164062 C383.263672,10.5800839 382.835942,11.4912076 381.980469,12.1650391 C381.124996,12.8388706 379.982429,13.1757812 378.552734,13.1757812 C377.703121,13.1757812 376.931156,13.0249039 376.236816,12.7231445 C375.542477,12.4213852 375.001955,11.9921903 374.615234,11.4355469 C374.228514,10.8789035 374.035156,10.2168007 374.035156,9.44921875 L375.722656,9.44921875 C375.722656,10.1230502 375.989255,10.6840798 376.522461,11.1323242 C377.055667,11.5805686 377.732418,11.8046875 378.552734,11.8046875 C379.472661,11.8046875 380.20654,11.5908225 380.754395,11.1630859 C381.302249,10.7353494 381.576172,10.1699254 381.576172,9.46679688 C381.576172,7.96678937 380.64747,7.20214858 378.790039,7.17285156 L377.208008,7.17285156 L377.208008,5.78417969 L378.78125,5.78417969 C379.636723,5.76660147 380.284177,5.57324403 380.723633,5.20410156 C381.163088,4.83495909 381.382812,4.31347993 381.382812,3.63964844 Z M387.183594,7.99023438 L387.183594,13 L385.496094,13 L385.496094,0.203125 L390.21582,0.203125 C391.616218,0.203125 392.713375,0.560543301 393.507324,1.27539062 C394.301274,1.99023795 394.698242,2.93651755 394.698242,4.11425781 C394.698242,5.35645152 394.310062,6.31298493 393.533691,6.98388672 C392.75732,7.65478851 391.645515,7.99023438 390.198242,7.99023438 L387.183594,7.99023438 Z M387.183594,6.61035156 L390.21582,6.61035156 C391.118169,6.61035156 391.809568,6.39795134 392.290039,5.97314453 C392.77051,5.54833772 393.010742,4.93457433 393.010742,4.13183594 C393.010742,3.37011338 392.77051,2.76074447 392.290039,2.30371094 C391.809568,1.8466774 391.150395,1.60937509 390.3125,1.59179688 L387.183594,1.59179688 L387.183594,6.61035156 Z M402.705078,9.66015625 L397.34375,9.66015625 L396.139648,13 L394.399414,13 L399.286133,0.203125 L400.762695,0.203125 L405.658203,13 L403.926758,13 L402.705078,9.66015625 Z M397.853516,8.27148438 L402.204102,8.27148438 L400.024414,2.28613281 L397.853516,8.27148438 Z M416.697266,8.93945312 C416.539062,10.2929755 416.039555,11.3373987 415.19873,12.0727539 C414.357906,12.8081091 413.240241,13.1757812 411.845703,13.1757812 C410.333977,13.1757812 409.122563,12.6337945 408.211426,11.5498047 C407.300288,10.4658149 406.844727,9.01563408 406.844727,7.19921875 L406.844727,5.96875 C406.844727,4.77929093 407.057127,3.73340295 407.481934,2.83105469 C407.90674,1.92870643 408.508785,1.23584226 409.288086,0.752441406 C410.067387,0.269040552 410.969721,0.02734375 411.995117,0.02734375 C413.354499,0.02734375 414.444332,0.406734487 415.264648,1.16552734 C416.084965,1.9243202 416.562499,2.97460267 416.697266,4.31640625 L415.000977,4.31640625 C414.854491,3.2968699 414.536624,2.55859604 414.047363,2.1015625 C413.558103,1.64452896 412.874028,1.41601562 411.995117,1.41601562 C410.916987,1.41601562 410.07178,1.81444914 409.459473,2.61132812 C408.847165,3.40820711 408.541016,4.54198483 408.541016,6.01269531 L408.541016,7.25195312 C408.541016,8.64063194 408.831052,9.74511309 409.411133,10.5654297 C409.991214,11.3857463 410.802729,11.7958984 411.845703,11.7958984 C412.783208,11.7958984 413.502439,11.5834982 414.003418,11.1586914 C414.504397,10.7338846 414.836913,9.9941459 415.000977,8.93945312 L416.697266,8.93945312 Z M427.586914,1.59179688 L423.473633,1.59179688 L423.473633,13 L421.794922,13 L421.794922,1.59179688 L417.69043,1.59179688 L417.69043,0.203125 L427.586914,0.203125 L427.586914,1.59179688 Z" id="Возраст" fill="#FFFFFF"></path>
                        <path d="M0.5,25.5 L0.5,8.47061363" id="Line" stroke="#FFFFFF"></path>
                        <path d="M784.5,25.5 L784.5,8.47061363" id="Line-Copy" stroke="#FFFFFF"></path>
                        <path d="M0.5,7.5 L330.312068,7.5" id="Line" stroke="#FFFFFF"></path>
                        <path d="M454.5,7.5 L784.312068,7.5" id="Line-Copy-2" stroke="#FFFFFF"></path>
                    </g>
                    <rect id="Rectangle-3" fill="#8FBC94" x="100" y="66" width="233" height="26" rx="13"></rect>
                    <rect id="Rectangle-3-Copy" fill="#548687" x="100" y="104" width="84" height="26" rx="13"></rect>
                    <rect id="Rectangle-3-Copy-2" fill="#56445D" x="126" y="142" width="216" height="26" rx="13"></rect>
                    <rect id="Rectangle-3-Copy-3" fill="#F6B352" x="158" y="180" width="772" height="26" rx="13"></rect>
                    <rect id="Rectangle-3-Copy-4" fill="#F68657" x="286" y="218" width="644" height="26" rx="13"></rect>
                    <path d="M115.992188,84 L114.546875,84 L114.546875,75.546875 L115.992188,75.546875 L115.992188,84 Z M114.429688,73.3046875 C114.429688,73.0703113 114.501301,72.8723966 114.644531,72.7109375 C114.787761,72.5494784 114.999999,72.46875 115.28125,72.46875 C115.562501,72.46875 115.776041,72.5494784 115.921875,72.7109375 C116.067709,72.8723966 116.140625,73.0703113 116.140625,73.3046875 C116.140625,73.5390637 116.067709,73.7343742 115.921875,73.890625 C115.776041,74.0468758 115.562501,74.125 115.28125,74.125 C114.999999,74.125 114.787761,74.0468758 114.644531,73.890625 C114.501301,73.7343742 114.429688,73.5390637 114.429688,73.3046875 Z M121.3125,79.7578125 L117.5,79.7578125 L117.5,78.578125 L121.3125,78.578125 L121.3125,79.7578125 Z M126.296875,78.9296875 C125.01041,78.559894 124.074222,78.1054714 123.488281,77.5664062 C122.902341,77.0273411 122.609375,76.3619831 122.609375,75.5703125 C122.609375,74.6744747 122.967444,73.9335967 123.683594,73.3476562 C124.399743,72.7617158 125.330723,72.46875 126.476562,72.46875 C127.257816,72.46875 127.954424,72.6197902 128.566406,72.921875 C129.178388,73.2239598 129.652342,73.6406223 129.988281,74.171875 C130.32422,74.7031277 130.492188,75.283851 130.492188,75.9140625 L128.984375,75.9140625 C128.984375,75.2265591 128.765627,74.6861999 128.328125,74.2929688 C127.890623,73.8997376 127.273441,73.703125 126.476562,73.703125 C125.736975,73.703125 125.160158,73.8658838 124.746094,74.1914062 C124.332029,74.5169287 124.125,74.9687471 124.125,75.546875 C124.125,76.010419 124.321613,76.4023421 124.714844,76.7226562 C125.108075,77.0429704 125.777339,77.3359362 126.722656,77.6015625 C127.667973,77.8671888 128.407549,78.1601546 128.941406,78.4804688 C129.475263,78.8007829 129.871092,79.174477 130.128906,79.6015625 C130.38672,80.028648 130.515625,80.5312471 130.515625,81.109375 C130.515625,82.0312546 130.156254,82.7695285 129.4375,83.3242188 C128.718746,83.878909 127.757819,84.15625 126.554688,84.15625 C125.773434,84.15625 125.044274,84.0065119 124.367188,83.7070312 C123.690101,83.4075506 123.167971,82.9973984 122.800781,82.4765625 C122.433592,81.9557266 122.25,81.3645866 122.25,80.703125 L123.757812,80.703125 C123.757812,81.3906284 124.011716,81.9335918 124.519531,82.3320312 C125.027346,82.7304707 125.705725,82.9296875 126.554688,82.9296875 C127.346358,82.9296875 127.953123,82.7682308 128.375,82.4453125 C128.796877,82.1223942 129.007812,81.6822945 129.007812,81.125 C129.007812,80.5677055 128.812502,80.1367203 128.421875,79.8320312 C128.031248,79.5273422 127.322922,79.226564 126.296875,78.9296875 Z M133.78125,84 L132.335938,84 L132.335938,75.546875 L133.78125,75.546875 L133.78125,84 Z M132.21875,73.3046875 C132.21875,73.0703113 132.290364,72.8723966 132.433594,72.7109375 C132.576824,72.5494784 132.789061,72.46875 133.070312,72.46875 C133.351564,72.46875 133.565103,72.5494784 133.710938,72.7109375 C133.856772,72.8723966 133.929688,73.0703113 133.929688,73.3046875 C133.929688,73.5390637 133.856772,73.7343742 133.710938,73.890625 C133.565103,74.0468758 133.351564,74.125 133.070312,74.125 C132.789061,74.125 132.576824,74.0468758 132.433594,73.890625 C132.290364,73.7343742 132.21875,73.5390637 132.21875,73.3046875 Z M137.453125,82.8203125 L142.398438,82.8203125 L142.398438,84 L135.6875,84 L135.6875,82.9375 L140.351562,76.7421875 L135.757812,76.7421875 L135.757812,75.546875 L142.164062,75.546875 L142.164062,76.5703125 L137.453125,82.8203125 Z M147.40625,84.15625 C146.260411,84.15625 145.328129,83.7799517 144.609375,83.0273438 C143.890621,82.2747358 143.53125,81.2682355 143.53125,80.0078125 L143.53125,79.7421875 C143.53125,78.9036416 143.691405,78.1549512 144.011719,77.4960938 C144.332033,76.8372363 144.779945,76.3216164 145.355469,75.9492188 C145.930992,75.5768211 146.554684,75.390625 147.226562,75.390625 C148.325526,75.390625 149.179684,75.7526005 149.789062,76.4765625 C150.398441,77.2005245 150.703125,78.2369724 150.703125,79.5859375 L150.703125,80.1875 L144.976562,80.1875 C144.997396,81.0208375 145.240883,81.6940079 145.707031,82.2070312 C146.173179,82.7200546 146.765621,82.9765625 147.484375,82.9765625 C147.994794,82.9765625 148.427082,82.8723969 148.78125,82.6640625 C149.135418,82.4557281 149.445311,82.1796892 149.710938,81.8359375 L150.59375,82.5234375 C149.885413,83.6119846 148.822924,84.15625 147.40625,84.15625 Z M147.226562,76.578125 C146.643226,76.578125 146.153648,76.7903625 145.757812,77.2148438 C145.361977,77.639325 145.117188,78.2343712 145.023438,79 L149.257812,79 L149.257812,78.890625 C149.216146,78.1562463 149.018231,77.5872416 148.664062,77.1835938 C148.309894,76.7799459 147.830732,76.578125 147.226562,76.578125 Z M159.726562,82.9765625 C160.24219,82.9765625 160.692706,82.8203141 161.078125,82.5078125 C161.463544,82.1953109 161.677083,81.8046898 161.71875,81.3359375 L163.085938,81.3359375 C163.059896,81.8203149 162.893231,82.2812478 162.585938,82.71875 C162.278644,83.1562522 161.868492,83.505207 161.355469,83.765625 C160.842445,84.026043 160.299482,84.15625 159.726562,84.15625 C158.575515,84.15625 157.66016,83.7721393 156.980469,83.0039062 C156.300778,82.2356732 155.960938,81.1849025 155.960938,79.8515625 L155.960938,79.609375 C155.960938,78.7864542 156.111978,78.0546907 156.414062,77.4140625 C156.716147,76.7734343 157.149737,76.2760434 157.714844,75.921875 C158.279951,75.5677066 158.947913,75.390625 159.71875,75.390625 C160.666671,75.390625 161.454424,75.6744763 162.082031,76.2421875 C162.709639,76.8098987 163.044271,77.5468705 163.085938,78.453125 L161.71875,78.453125 C161.677083,77.9062473 161.470054,77.457033 161.097656,77.1054688 C160.725259,76.7539045 160.265628,76.578125 159.71875,76.578125 C158.984371,76.578125 158.415367,76.8424453 158.011719,77.3710938 C157.608071,77.8997422 157.40625,78.6640575 157.40625,79.6640625 L157.40625,79.9375 C157.40625,80.9114632 157.606769,81.6614557 158.007812,82.1875 C158.408856,82.7135443 158.981767,82.9765625 159.726562,82.9765625 Z M175.8125,79.8671875 C175.8125,81.1536523 175.518232,82.1901002 174.929688,82.9765625 C174.341143,83.7630248 173.544276,84.15625 172.539062,84.15625 C171.513016,84.15625 170.705732,83.8307324 170.117188,83.1796875 L170.117188,87.25 L168.671875,87.25 L168.671875,75.546875 L169.992188,75.546875 L170.0625,76.484375 C170.651045,75.7552047 171.468745,75.390625 172.515625,75.390625 C173.531255,75.390625 174.334632,75.7734337 174.925781,76.5390625 C175.51693,77.3046913 175.8125,78.3697848 175.8125,79.734375 L175.8125,79.8671875 Z M174.367188,79.703125 C174.367188,78.7499952 174.164065,77.9973986 173.757812,77.4453125 C173.35156,76.8932264 172.794274,76.6171875 172.085938,76.6171875 C171.210933,76.6171875 170.55469,77.0052045 170.117188,77.78125 L170.117188,81.8203125 C170.549481,82.5911497 171.210933,82.9765625 172.101562,82.9765625 C172.794274,82.9765625 173.34505,82.7018257 173.753906,82.1523438 C174.162762,81.6028618 174.367188,80.7864637 174.367188,79.703125 Z M177.265625,79.6953125 C177.265625,78.8671834 177.428384,78.1223991 177.753906,77.4609375 C178.079429,76.7994759 178.532549,76.2890643 179.113281,75.9296875 C179.694013,75.5703107 180.356767,75.390625 181.101562,75.390625 C182.25261,75.390625 183.18359,75.7890585 183.894531,76.5859375 C184.605472,77.3828165 184.960938,78.4427017 184.960938,79.765625 L184.960938,79.8671875 C184.960938,80.6901083 184.803387,81.4283821 184.488281,82.0820312 C184.173176,82.7356804 183.722659,83.2447898 183.136719,83.609375 C182.550778,83.9739602 181.877608,84.15625 181.117188,84.15625 C179.971348,84.15625 179.042972,83.7578165 178.332031,82.9609375 C177.62109,82.1640585 177.265625,81.1093816 177.265625,79.796875 L177.265625,79.6953125 Z M178.71875,79.8671875 C178.71875,80.8046922 178.936196,81.5572888 179.371094,82.125 C179.805992,82.6927112 180.388017,82.9765625 181.117188,82.9765625 C181.851566,82.9765625 182.434894,82.688805 182.867188,82.1132812 C183.299481,81.5377575 183.515625,80.731776 183.515625,79.6953125 C183.515625,78.7682245 183.295575,78.01693 182.855469,77.4414062 C182.415362,76.8658825 181.830733,76.578125 181.101562,76.578125 C180.388017,76.578125 179.812502,76.8619763 179.375,77.4296875 C178.937498,77.9973987 178.71875,78.8098905 178.71875,79.8671875 Z M193.351562,80.328125 L192.335938,80.328125 L192.335938,84 L190.890625,84 L190.890625,80.328125 L189.875,80.328125 L187.507812,84 L185.679688,84 L188.703125,79.625 L185.96875,75.546875 L187.71875,75.546875 L189.898438,79.046875 L190.890625,79.046875 L190.890625,75.546875 L192.335938,75.546875 L192.335938,79.046875 L193.320312,79.046875 L195.515625,75.546875 L197.265625,75.546875 L194.523438,79.6328125 L197.546875,84 L195.71875,84 L193.351562,80.328125 Z M198.789062,82.8203125 L199.289062,82.203125 C199.851565,81.4739547 200.171875,80.3802156 200.25,78.921875 L200.382812,75.546875 L205.828125,75.546875 L205.828125,82.8203125 L206.914062,82.8203125 L206.914062,86.484375 L205.46875,86.484375 L205.46875,84 L199.570312,84 L199.570312,86.484375 L198.125,86.484375 L198.132812,82.8203125 L198.789062,82.8203125 Z M200.5,82.8203125 L204.382812,82.8203125 L204.382812,76.8828125 L201.78125,76.8828125 L201.695312,78.8984375 C201.60677,80.5807376 201.208337,81.8880162 200.5,82.8203125 Z M212.023438,84.15625 C210.877598,84.15625 209.945316,83.7799517 209.226562,83.0273438 C208.507809,82.2747358 208.148438,81.2682355 208.148438,80.0078125 L208.148438,79.7421875 C208.148438,78.9036416 208.308592,78.1549512 208.628906,77.4960938 C208.94922,76.8372363 209.397133,76.3216164 209.972656,75.9492188 C210.54818,75.5768211 211.171872,75.390625 211.84375,75.390625 C212.942714,75.390625 213.796872,75.7526005 214.40625,76.4765625 C215.015628,77.2005245 215.320312,78.2369724 215.320312,79.5859375 L215.320312,80.1875 L209.59375,80.1875 C209.614583,81.0208375 209.858071,81.6940079 210.324219,82.2070312 C210.790367,82.7200546 211.382809,82.9765625 212.101562,82.9765625 C212.611982,82.9765625 213.044269,82.8723969 213.398438,82.6640625 C213.752606,82.4557281 214.062499,82.1796892 214.328125,81.8359375 L215.210938,82.5234375 C214.502601,83.6119846 213.440111,84.15625 212.023438,84.15625 Z M211.84375,76.578125 C211.260414,76.578125 210.770835,76.7903625 210.375,77.2148438 C209.979165,77.639325 209.734375,78.2343712 209.640625,79 L213.875,79 L213.875,78.890625 C213.833333,78.1562463 213.635418,77.5872416 213.28125,77.1835938 C212.927082,76.7799459 212.44792,76.578125 211.84375,76.578125 Z M223.898438,84 L222.453125,84 L222.453125,80.390625 L218.570312,80.390625 L218.570312,84 L217.117188,84 L217.117188,75.546875 L218.570312,75.546875 L218.570312,79.2109375 L222.453125,79.2109375 L222.453125,75.546875 L223.898438,75.546875 L223.898438,84 Z M231.6875,75.546875 L233.132812,75.546875 L233.132812,84 L231.6875,84 L231.6875,77.8359375 L227.789062,84 L226.34375,84 L226.34375,75.546875 L227.789062,75.546875 L227.789062,81.71875 L231.6875,75.546875 Z M241.914062,75.546875 L241.914062,84 L240.460938,84 L240.460938,80.7109375 L238.28125,80.7109375 L236.289062,84 L234.726562,84 L236.851562,80.4921875 C236.309893,80.2942698 235.894533,79.9882833 235.605469,79.5742188 C235.316405,79.1601542 235.171875,78.6770861 235.171875,78.125 C235.171875,77.3541628 235.460935,76.7330753 236.039062,76.2617188 C236.61719,75.7903622 237.39062,75.5520834 238.359375,75.546875 L241.914062,75.546875 Z M236.625,78.140625 C236.625,78.5520854 236.765624,78.8841133 237.046875,79.1367188 C237.328126,79.3893242 237.700519,79.5182291 238.164062,79.5234375 L240.460938,79.5234375 L240.460938,76.71875 L238.382812,76.71875 C237.846351,76.71875 237.419272,76.8502591 237.101562,77.1132812 C236.783853,77.3763034 236.625,77.7187479 236.625,78.140625 Z M248.125,82.8203125 L248.625,82.203125 C249.187503,81.4739547 249.507812,80.3802156 249.585938,78.921875 L249.71875,75.546875 L255.164062,75.546875 L255.164062,82.8203125 L256.25,82.8203125 L256.25,86.484375 L254.804688,86.484375 L254.804688,84 L248.90625,84 L248.90625,86.484375 L247.460938,86.484375 L247.46875,82.8203125 L248.125,82.8203125 Z M249.835938,82.8203125 L253.71875,82.8203125 L253.71875,76.8828125 L251.117188,76.8828125 L251.03125,78.8984375 C250.942708,80.5807376 250.544274,81.8880162 249.835938,82.8203125 Z M257.46875,79.6953125 C257.46875,78.8671834 257.631509,78.1223991 257.957031,77.4609375 C258.282554,76.7994759 258.735674,76.2890643 259.316406,75.9296875 C259.897138,75.5703107 260.559892,75.390625 261.304688,75.390625 C262.455735,75.390625 263.386715,75.7890585 264.097656,76.5859375 C264.808597,77.3828165 265.164062,78.4427017 265.164062,79.765625 L265.164062,79.8671875 C265.164062,80.6901083 265.006512,81.4283821 264.691406,82.0820312 C264.376301,82.7356804 263.925784,83.2447898 263.339844,83.609375 C262.753903,83.9739602 262.080733,84.15625 261.320312,84.15625 C260.174473,84.15625 259.246097,83.7578165 258.535156,82.9609375 C257.824215,82.1640585 257.46875,81.1093816 257.46875,79.796875 L257.46875,79.6953125 Z M258.921875,79.8671875 C258.921875,80.8046922 259.139321,81.5572888 259.574219,82.125 C260.009117,82.6927112 260.591142,82.9765625 261.320312,82.9765625 C262.054691,82.9765625 262.638019,82.688805 263.070312,82.1132812 C263.502606,81.5377575 263.71875,80.731776 263.71875,79.6953125 C263.71875,78.7682245 263.4987,78.01693 263.058594,77.4414062 C262.618487,76.8658825 262.033858,76.578125 261.304688,76.578125 C260.591142,76.578125 260.015627,76.8619763 259.578125,77.4296875 C259.140623,77.9973987 258.921875,78.8098905 258.921875,79.8671875 Z M275.539062,84 L274.085938,84 L274.085938,74.3671875 L271.171875,75.4375 L271.171875,74.125 L275.3125,72.5703125 L275.539062,72.5703125 L275.539062,84 Z M286.90625,79.1484375 C286.90625,80.8411543 286.61719,82.0989542 286.039062,82.921875 C285.460935,83.7447958 284.557298,84.15625 283.328125,84.15625 C282.114577,84.15625 281.216149,83.7539103 280.632812,82.9492188 C280.049476,82.1445272 279.747396,80.9427163 279.726562,79.34375 L279.726562,77.4140625 C279.726562,75.7421791 280.015622,74.5000041 280.59375,73.6875 C281.171878,72.8749959 282.078119,72.46875 283.3125,72.46875 C284.536464,72.46875 285.437497,72.8606732 286.015625,73.6445312 C286.593753,74.4283893 286.890625,75.6380127 286.90625,77.2734375 L286.90625,79.1484375 Z M285.460938,77.171875 C285.460938,75.9479105 285.289064,75.0559924 284.945312,74.4960938 C284.601561,73.9361951 284.057295,73.65625 283.3125,73.65625 C282.572913,73.65625 282.033856,73.934893 281.695312,74.4921875 C281.356769,75.049482 281.182292,75.9062442 281.171875,77.0625 L281.171875,79.375 C281.171875,80.6041728 281.350259,81.5117158 281.707031,82.0976562 C282.063804,82.6835967 282.604163,82.9765625 283.328125,82.9765625 C284.04167,82.9765625 284.571613,82.7005236 284.917969,82.1484375 C285.264325,81.5963514 285.445312,80.7265684 285.460938,79.5390625 L285.460938,77.171875 Z M289.421875,78.296875 L290,72.625 L295.828125,72.625 L295.828125,73.9609375 L291.226562,73.9609375 L290.882812,77.0625 C291.440107,76.7343734 292.072913,76.5703125 292.78125,76.5703125 C293.817714,76.5703125 294.640622,76.912757 295.25,77.5976562 C295.859378,78.2825555 296.164062,79.2083275 296.164062,80.375 C296.164062,81.5468809 295.847659,82.4700487 295.214844,83.1445312 C294.582028,83.8190138 293.697922,84.15625 292.5625,84.15625 C291.557287,84.15625 290.736982,83.877607 290.101562,83.3203125 C289.466143,82.763018 289.104167,81.9921924 289.015625,81.0078125 L290.382812,81.0078125 C290.471355,81.6588574 290.703123,82.1497379 291.078125,82.4804688 C291.453127,82.8111996 291.947914,82.9765625 292.5625,82.9765625 C293.234378,82.9765625 293.761717,82.7473981 294.144531,82.2890625 C294.527346,81.8307269 294.71875,81.1979207 294.71875,80.390625 C294.71875,79.6302045 294.511721,79.0195336 294.097656,78.5585938 C293.683592,78.0976539 293.132816,77.8671875 292.445312,77.8671875 C291.815101,77.8671875 291.320314,78.005207 290.960938,78.28125 L290.578125,78.59375 L289.421875,78.296875 Z M305.242188,82.9765625 C305.757815,82.9765625 306.208331,82.8203141 306.59375,82.5078125 C306.979169,82.1953109 307.192708,81.8046898 307.234375,81.3359375 L308.601562,81.3359375 C308.575521,81.8203149 308.408856,82.2812478 308.101562,82.71875 C307.794269,83.1562522 307.384117,83.505207 306.871094,83.765625 C306.35807,84.026043 305.815107,84.15625 305.242188,84.15625 C304.09114,84.15625 303.175785,83.7721393 302.496094,83.0039062 C301.816403,82.2356732 301.476562,81.1849025 301.476562,79.8515625 L301.476562,79.609375 C301.476562,78.7864542 301.627603,78.0546907 301.929688,77.4140625 C302.231772,76.7734343 302.665362,76.2760434 303.230469,75.921875 C303.795576,75.5677066 304.463538,75.390625 305.234375,75.390625 C306.182296,75.390625 306.970049,75.6744763 307.597656,76.2421875 C308.225264,76.8098987 308.559896,77.5468705 308.601562,78.453125 L307.234375,78.453125 C307.192708,77.9062473 306.985679,77.457033 306.613281,77.1054688 C306.240884,76.7539045 305.781253,76.578125 305.234375,76.578125 C304.499996,76.578125 303.930992,76.8424453 303.527344,77.3710938 C303.123696,77.8997422 302.921875,78.6640575 302.921875,79.6640625 L302.921875,79.9375 C302.921875,80.9114632 303.122394,81.6614557 303.523438,82.1875 C303.924481,82.7135443 304.497392,82.9765625 305.242188,82.9765625 Z M315.09375,82.0859375 L317.96875,75.546875 L319.773438,75.546875 L319.773438,84 L318.328125,84 L318.328125,77.8515625 L315.59375,84 L314.59375,84 L311.804688,77.71875 L311.804688,84 L310.359375,84 L310.359375,75.546875 L312.234375,75.546875 L315.09375,82.0859375 Z" id="i-Size-с-рождения-до" fill="#FFFFFF"></path>
                    <path d="M114,120.820312 L114.5,120.203125 C115.062503,119.473955 115.382812,118.380216 115.460938,116.921875 L115.59375,113.546875 L121.039062,113.546875 L121.039062,120.820312 L122.125,120.820312 L122.125,124.484375 L120.679688,124.484375 L120.679688,122 L114.78125,122 L114.78125,124.484375 L113.335938,124.484375 L113.34375,120.820312 L114,120.820312 Z M115.710938,120.820312 L119.59375,120.820312 L119.59375,114.882812 L116.992188,114.882812 L116.90625,116.898438 C116.817708,118.580738 116.419274,119.888016 115.710938,120.820312 Z M123.34375,117.695312 C123.34375,116.867183 123.506509,116.122399 123.832031,115.460938 C124.157554,114.799476 124.610674,114.289064 125.191406,113.929688 C125.772138,113.570311 126.434892,113.390625 127.179688,113.390625 C128.330735,113.390625 129.261715,113.789059 129.972656,114.585938 C130.683597,115.382816 131.039062,116.442702 131.039062,117.765625 L131.039062,117.867188 C131.039062,118.690108 130.881512,119.428382 130.566406,120.082031 C130.251301,120.73568 129.800784,121.24479 129.214844,121.609375 C128.628903,121.97396 127.955733,122.15625 127.195312,122.15625 C126.049473,122.15625 125.121097,121.757816 124.410156,120.960938 C123.699215,120.164059 123.34375,119.109382 123.34375,117.796875 L123.34375,117.695312 Z M124.796875,117.867188 C124.796875,118.804692 125.014321,119.557289 125.449219,120.125 C125.884117,120.692711 126.466142,120.976562 127.195312,120.976562 C127.929691,120.976562 128.513019,120.688805 128.945312,120.113281 C129.377606,119.537758 129.59375,118.731776 129.59375,117.695312 C129.59375,116.768225 129.3737,116.01693 128.933594,115.441406 C128.493487,114.865883 127.908858,114.578125 127.179688,114.578125 C126.466142,114.578125 125.890627,114.861976 125.453125,115.429688 C125.015623,115.997399 124.796875,116.809891 124.796875,117.867188 Z M141.414062,122 L139.960938,122 L139.960938,112.367188 L137.046875,113.4375 L137.046875,112.125 L141.1875,110.570312 L141.414062,110.570312 L141.414062,122 Z M147.75,115.609375 L148.835938,115.609375 C149.518233,115.598958 150.054686,115.419273 150.445312,115.070312 C150.835939,114.721352 151.03125,114.250003 151.03125,113.65625 C151.03125,112.32291 150.367194,111.65625 149.039062,111.65625 C148.414059,111.65625 147.915366,111.834634 147.542969,112.191406 C147.170571,112.548179 146.984375,113.02083 146.984375,113.609375 L145.539062,113.609375 C145.539062,112.708329 145.868486,111.959638 146.527344,111.363281 C147.186201,110.766924 148.023432,110.46875 149.039062,110.46875 C150.111985,110.46875 150.953122,110.752601 151.5625,111.320312 C152.171878,111.888024 152.476562,112.677078 152.476562,113.6875 C152.476562,114.182294 152.316408,114.661456 151.996094,115.125 C151.67578,115.588544 151.239586,115.934895 150.6875,116.164062 C151.312503,116.36198 151.795571,116.690102 152.136719,117.148438 C152.477866,117.606773 152.648438,118.166663 152.648438,118.828125 C152.648438,119.848963 152.315108,120.658851 151.648438,121.257812 C150.981767,121.856774 150.114589,122.15625 149.046875,122.15625 C147.979161,122.15625 147.11068,121.86719 146.441406,121.289062 C145.772132,120.710935 145.4375,119.947921 145.4375,119 L146.890625,119 C146.890625,119.598961 147.085936,120.078123 147.476562,120.4375 C147.867189,120.796877 148.390622,120.976562 149.046875,120.976562 C149.744795,120.976562 150.278644,120.794273 150.648438,120.429688 C151.018231,120.065102 151.203125,119.54167 151.203125,118.859375 C151.203125,118.197913 151.000002,117.690106 150.59375,117.335938 C150.187498,116.981769 149.601566,116.799479 148.835938,116.789062 L147.75,116.789062 L147.75,115.609375 Z M161.375,118.398438 L160.320312,118.398438 L160.320312,122 L158.867188,122 L158.867188,113.546875 L160.320312,113.546875 L160.320312,117.125 L161.265625,117.125 L164.109375,113.546875 L165.859375,113.546875 L162.515625,117.609375 L166.140625,122 L164.304688,122 L161.375,118.398438 Z M172.84375,114.742188 L168.945312,114.742188 L168.945312,122 L167.492188,122 L167.492188,113.546875 L172.84375,113.546875 L172.84375,114.742188 Z" id="до-13-кг" fill="#FFFFFF"></path>
                    <path d="M204.140625,154.695312 C204.140625,153.867183 204.303384,153.122399 204.628906,152.460938 C204.954429,151.799476 205.407549,151.289064 205.988281,150.929688 C206.569013,150.570311 207.231767,150.390625 207.976562,150.390625 C209.12761,150.390625 210.05859,150.789059 210.769531,151.585938 C211.480472,152.382816 211.835938,153.442702 211.835938,154.765625 L211.835938,154.867188 C211.835938,155.690108 211.678387,156.428382 211.363281,157.082031 C211.048176,157.73568 210.597659,158.24479 210.011719,158.609375 C209.425778,158.97396 208.752608,159.15625 207.992188,159.15625 C206.846348,159.15625 205.917972,158.757816 205.207031,157.960938 C204.49609,157.164059 204.140625,156.109382 204.140625,154.796875 L204.140625,154.695312 Z M205.59375,154.867188 C205.59375,155.804692 205.811196,156.557289 206.246094,157.125 C206.680992,157.692711 207.263017,157.976562 207.992188,157.976562 C208.726566,157.976562 209.309894,157.688805 209.742188,157.113281 C210.174481,156.537758 210.390625,155.731776 210.390625,154.695312 C210.390625,153.768225 210.170575,153.01693 209.730469,152.441406 C209.290362,151.865883 208.705733,151.578125 207.976562,151.578125 C207.263017,151.578125 206.687502,151.861976 206.25,152.429688 C205.812498,152.997399 205.59375,153.809891 205.59375,154.867188 Z M219.757812,151.71875 L216.921875,151.71875 L216.921875,159 L215.476562,159 L215.476562,151.71875 L212.695312,151.71875 L212.695312,150.546875 L219.757812,150.546875 L219.757812,151.71875 Z M230.515625,154 C230.21354,154.359377 229.852867,154.648436 229.433594,154.867188 C229.014321,155.085939 228.55469,155.195312 228.054688,155.195312 C227.398434,155.195312 226.826825,155.033856 226.339844,154.710938 C225.852862,154.388019 225.476564,153.933597 225.210938,153.347656 C224.945311,152.761716 224.8125,152.114587 224.8125,151.40625 C224.8125,150.64583 224.95703,149.960941 225.246094,149.351562 C225.535158,148.742184 225.94531,148.276043 226.476562,147.953125 C227.007815,147.630207 227.627601,147.46875 228.335938,147.46875 C229.460943,147.46875 230.347653,147.889319 230.996094,148.730469 C231.644534,149.571619 231.96875,150.718743 231.96875,152.171875 L231.96875,152.59375 C231.96875,154.807303 231.531254,156.423172 230.65625,157.441406 C229.781246,158.459641 228.460946,158.981771 226.695312,159.007812 L226.414062,159.007812 L226.414062,157.789062 L226.71875,157.789062 C227.911464,157.768229 228.828122,157.457034 229.46875,156.855469 C230.109378,156.253903 230.458333,155.30209 230.515625,154 Z M228.289062,154 C228.77344,154 229.22005,153.851564 229.628906,153.554688 C230.037762,153.257811 230.335937,152.890627 230.523438,152.453125 L230.523438,151.875 C230.523438,150.927079 230.31771,150.156253 229.90625,149.5625 C229.49479,148.968747 228.973961,148.671875 228.34375,148.671875 C227.70833,148.671875 227.197919,148.915362 226.8125,149.402344 C226.427081,149.889325 226.234375,150.531246 226.234375,151.328125 C226.234375,152.104171 226.420571,152.743487 226.792969,153.246094 C227.165366,153.7487 227.664059,154 228.289062,154 Z M238,157.820312 L238.5,157.203125 C239.062503,156.473955 239.382812,155.380216 239.460938,153.921875 L239.59375,150.546875 L245.039062,150.546875 L245.039062,157.820312 L246.125,157.820312 L246.125,161.484375 L244.679688,161.484375 L244.679688,159 L238.78125,159 L238.78125,161.484375 L237.335938,161.484375 L237.34375,157.820312 L238,157.820312 Z M239.710938,157.820312 L243.59375,157.820312 L243.59375,151.882812 L240.992188,151.882812 L240.90625,153.898438 C240.817708,155.580738 240.419274,156.888016 239.710938,157.820312 Z M247.34375,154.695312 C247.34375,153.867183 247.506509,153.122399 247.832031,152.460938 C248.157554,151.799476 248.610674,151.289064 249.191406,150.929688 C249.772138,150.570311 250.434892,150.390625 251.179688,150.390625 C252.330735,150.390625 253.261715,150.789059 253.972656,151.585938 C254.683597,152.382816 255.039062,153.442702 255.039062,154.765625 L255.039062,154.867188 C255.039062,155.690108 254.881512,156.428382 254.566406,157.082031 C254.251301,157.73568 253.800784,158.24479 253.214844,158.609375 C252.628903,158.97396 251.955733,159.15625 251.195312,159.15625 C250.049473,159.15625 249.121097,158.757816 248.410156,157.960938 C247.699215,157.164059 247.34375,156.109382 247.34375,154.796875 L247.34375,154.695312 Z M248.796875,154.867188 C248.796875,155.804692 249.014321,156.557289 249.449219,157.125 C249.884117,157.692711 250.466142,157.976562 251.195312,157.976562 C251.929691,157.976562 252.513019,157.688805 252.945312,157.113281 C253.377606,156.537758 253.59375,155.731776 253.59375,154.695312 C253.59375,153.768225 253.3737,153.01693 252.933594,152.441406 C252.493487,151.865883 251.908858,151.578125 251.179688,151.578125 C250.466142,151.578125 249.890627,151.861976 249.453125,152.429688 C249.015623,152.997399 248.796875,153.809891 248.796875,154.867188 Z M265.414062,159 L263.960938,159 L263.960938,149.367188 L261.046875,150.4375 L261.046875,149.125 L265.1875,147.570312 L265.414062,147.570312 L265.414062,159 Z M276.546875,150.59375 C276.546875,151.161461 276.397137,151.666664 276.097656,152.109375 C275.798176,152.552086 275.393232,152.898436 274.882812,153.148438 C275.476565,153.403647 275.946613,153.776039 276.292969,154.265625 C276.639325,154.755211 276.8125,155.309893 276.8125,155.929688 C276.8125,156.914067 276.480472,157.697914 275.816406,158.28125 C275.15234,158.864586 274.278651,159.15625 273.195312,159.15625 C272.101557,159.15625 271.225264,158.863284 270.566406,158.277344 C269.907549,157.691403 269.578125,156.908859 269.578125,155.929688 C269.578125,155.315101 269.746092,154.760419 270.082031,154.265625 C270.41797,153.770831 270.88281,153.395835 271.476562,153.140625 C270.971352,152.890624 270.572918,152.544273 270.28125,152.101562 C269.989582,151.658852 269.84375,151.156253 269.84375,150.59375 C269.84375,149.635412 270.151039,148.875003 270.765625,148.3125 C271.380211,147.749997 272.190099,147.46875 273.195312,147.46875 C274.195317,147.46875 275.003903,147.749997 275.621094,148.3125 C276.238284,148.875003 276.546875,149.635412 276.546875,150.59375 Z M275.367188,155.898438 C275.367188,155.263018 275.165367,154.744794 274.761719,154.34375 C274.358071,153.942706 273.830732,153.742188 273.179688,153.742188 C272.528643,153.742188 272.006512,153.940102 271.613281,154.335938 C271.22005,154.731773 271.023438,155.252601 271.023438,155.898438 C271.023438,156.544274 271.214842,157.052081 271.597656,157.421875 C271.980471,157.791669 272.513017,157.976562 273.195312,157.976562 C273.872399,157.976562 274.403644,157.790366 274.789062,157.417969 C275.174481,157.045571 275.367188,156.539066 275.367188,155.898438 Z M273.195312,148.65625 C272.627601,148.65625 272.167971,148.832029 271.816406,149.183594 C271.464842,149.535158 271.289062,150.013018 271.289062,150.617188 C271.289062,151.195315 271.462238,151.662759 271.808594,152.019531 C272.15495,152.376304 272.617185,152.554688 273.195312,152.554688 C273.77344,152.554688 274.235675,152.376304 274.582031,152.019531 C274.928387,151.662759 275.101562,151.195315 275.101562,150.617188 C275.101562,150.03906 274.921877,149.56771 274.5625,149.203125 C274.203123,148.83854 273.747399,148.65625 273.195312,148.65625 Z M285.375,155.398438 L284.320312,155.398438 L284.320312,159 L282.867188,159 L282.867188,150.546875 L284.320312,150.546875 L284.320312,154.125 L285.265625,154.125 L288.109375,150.546875 L289.859375,150.546875 L286.515625,154.609375 L290.140625,159 L288.304688,159 L285.375,155.398438 Z M296.84375,151.742188 L292.945312,151.742188 L292.945312,159 L291.492188,159 L291.492188,150.546875 L296.84375,150.546875 L296.84375,151.742188 Z" id="от-9-до-18-кг" fill="#FFFFFF"></path>
                    <path d="M498.140625,192.695312 C498.140625,191.867183 498.303384,191.122399 498.628906,190.460938 C498.954429,189.799476 499.407549,189.289064 499.988281,188.929688 C500.569013,188.570311 501.231767,188.390625 501.976562,188.390625 C503.12761,188.390625 504.05859,188.789059 504.769531,189.585938 C505.480472,190.382816 505.835938,191.442702 505.835938,192.765625 L505.835938,192.867188 C505.835938,193.690108 505.678387,194.428382 505.363281,195.082031 C505.048176,195.73568 504.597659,196.24479 504.011719,196.609375 C503.425778,196.97396 502.752608,197.15625 501.992188,197.15625 C500.846348,197.15625 499.917972,196.757816 499.207031,195.960938 C498.49609,195.164059 498.140625,194.109382 498.140625,192.796875 L498.140625,192.695312 Z M499.59375,192.867188 C499.59375,193.804692 499.811196,194.557289 500.246094,195.125 C500.680992,195.692711 501.263017,195.976562 501.992188,195.976562 C502.726566,195.976562 503.309894,195.688805 503.742188,195.113281 C504.174481,194.537758 504.390625,193.731776 504.390625,192.695312 C504.390625,191.768225 504.170575,191.01693 503.730469,190.441406 C503.290362,189.865883 502.705733,189.578125 501.976562,189.578125 C501.263017,189.578125 500.687502,189.861976 500.25,190.429688 C499.812498,190.997399 499.59375,191.809891 499.59375,192.867188 Z M513.757812,189.71875 L510.921875,189.71875 L510.921875,197 L509.476562,197 L509.476562,189.71875 L506.695312,189.71875 L506.695312,188.546875 L513.757812,188.546875 L513.757812,189.71875 Z M524.515625,192 C524.21354,192.359377 523.852867,192.648436 523.433594,192.867188 C523.014321,193.085939 522.55469,193.195312 522.054688,193.195312 C521.398434,193.195312 520.826825,193.033856 520.339844,192.710938 C519.852862,192.388019 519.476564,191.933597 519.210938,191.347656 C518.945311,190.761716 518.8125,190.114587 518.8125,189.40625 C518.8125,188.64583 518.95703,187.960941 519.246094,187.351562 C519.535158,186.742184 519.94531,186.276043 520.476562,185.953125 C521.007815,185.630207 521.627601,185.46875 522.335938,185.46875 C523.460943,185.46875 524.347653,185.889319 524.996094,186.730469 C525.644534,187.571619 525.96875,188.718743 525.96875,190.171875 L525.96875,190.59375 C525.96875,192.807303 525.531254,194.423172 524.65625,195.441406 C523.781246,196.459641 522.460946,196.981771 520.695312,197.007812 L520.414062,197.007812 L520.414062,195.789062 L520.71875,195.789062 C521.911464,195.768229 522.828122,195.457034 523.46875,194.855469 C524.109378,194.253903 524.458333,193.30209 524.515625,192 Z M522.289062,192 C522.77344,192 523.22005,191.851564 523.628906,191.554688 C524.037762,191.257811 524.335937,190.890627 524.523438,190.453125 L524.523438,189.875 C524.523438,188.927079 524.31771,188.156253 523.90625,187.5625 C523.49479,186.968747 522.973961,186.671875 522.34375,186.671875 C521.70833,186.671875 521.197919,186.915362 520.8125,187.402344 C520.427081,187.889325 520.234375,188.531246 520.234375,189.328125 C520.234375,190.104171 520.420571,190.743487 520.792969,191.246094 C521.165366,191.7487 521.664059,192 522.289062,192 Z M532,195.820312 L532.5,195.203125 C533.062503,194.473955 533.382812,193.380216 533.460938,191.921875 L533.59375,188.546875 L539.039062,188.546875 L539.039062,195.820312 L540.125,195.820312 L540.125,199.484375 L538.679688,199.484375 L538.679688,197 L532.78125,197 L532.78125,199.484375 L531.335938,199.484375 L531.34375,195.820312 L532,195.820312 Z M533.710938,195.820312 L537.59375,195.820312 L537.59375,189.882812 L534.992188,189.882812 L534.90625,191.898438 C534.817708,193.580738 534.419274,194.888016 533.710938,195.820312 Z M541.34375,192.695312 C541.34375,191.867183 541.506509,191.122399 541.832031,190.460938 C542.157554,189.799476 542.610674,189.289064 543.191406,188.929688 C543.772138,188.570311 544.434892,188.390625 545.179688,188.390625 C546.330735,188.390625 547.261715,188.789059 547.972656,189.585938 C548.683597,190.382816 549.039062,191.442702 549.039062,192.765625 L549.039062,192.867188 C549.039062,193.690108 548.881512,194.428382 548.566406,195.082031 C548.251301,195.73568 547.800784,196.24479 547.214844,196.609375 C546.628903,196.97396 545.955733,197.15625 545.195312,197.15625 C544.049473,197.15625 543.121097,196.757816 542.410156,195.960938 C541.699215,195.164059 541.34375,194.109382 541.34375,192.796875 L541.34375,192.695312 Z M542.796875,192.867188 C542.796875,193.804692 543.014321,194.557289 543.449219,195.125 C543.884117,195.692711 544.466142,195.976562 545.195312,195.976562 C545.929691,195.976562 546.513019,195.688805 546.945312,195.113281 C547.377606,194.537758 547.59375,193.731776 547.59375,192.695312 C547.59375,191.768225 547.3737,191.01693 546.933594,190.441406 C546.493487,189.865883 545.908858,189.578125 545.179688,189.578125 C544.466142,189.578125 543.890627,189.861976 543.453125,190.429688 C543.015623,190.997399 542.796875,191.809891 542.796875,192.867188 Z M556.765625,190.609375 L557.851562,190.609375 C558.533858,190.598958 559.070311,190.419273 559.460938,190.070312 C559.851564,189.721352 560.046875,189.250003 560.046875,188.65625 C560.046875,187.32291 559.382819,186.65625 558.054688,186.65625 C557.429684,186.65625 556.930991,186.834634 556.558594,187.191406 C556.186196,187.548179 556,188.02083 556,188.609375 L554.554688,188.609375 C554.554688,187.708329 554.884111,186.959638 555.542969,186.363281 C556.201826,185.766924 557.039057,185.46875 558.054688,185.46875 C559.12761,185.46875 559.968747,185.752601 560.578125,186.320312 C561.187503,186.888024 561.492188,187.677078 561.492188,188.6875 C561.492188,189.182294 561.332033,189.661456 561.011719,190.125 C560.691405,190.588544 560.255211,190.934895 559.703125,191.164062 C560.328128,191.36198 560.811196,191.690102 561.152344,192.148438 C561.493491,192.606773 561.664062,193.166663 561.664062,193.828125 C561.664062,194.848963 561.330732,195.658851 560.664062,196.257812 C559.997393,196.856774 559.130214,197.15625 558.0625,197.15625 C556.994786,197.15625 556.126305,196.86719 555.457031,196.289062 C554.787757,195.710935 554.453125,194.947921 554.453125,194 L555.90625,194 C555.90625,194.598961 556.101561,195.078123 556.492188,195.4375 C556.882814,195.796877 557.406247,195.976562 558.0625,195.976562 C558.76042,195.976562 559.294269,195.794273 559.664062,195.429688 C560.033856,195.065102 560.21875,194.54167 560.21875,193.859375 C560.21875,193.197913 560.015627,192.690106 559.609375,192.335938 C559.203123,191.981769 558.617191,191.799479 557.851562,191.789062 L556.765625,191.789062 L556.765625,190.609375 Z M569.320312,185.617188 L569.320312,186.84375 L569.054688,186.84375 C567.929682,186.864583 567.033857,187.197913 566.367188,187.84375 C565.700518,188.489587 565.315105,189.398432 565.210938,190.570312 C565.809899,189.882809 566.627599,189.539062 567.664062,189.539062 C568.653651,189.539062 569.444007,189.888017 570.035156,190.585938 C570.626305,191.283858 570.921875,192.18489 570.921875,193.289062 C570.921875,194.460943 570.602868,195.398434 569.964844,196.101562 C569.32682,196.804691 568.47136,197.15625 567.398438,197.15625 C566.30989,197.15625 565.427087,196.738285 564.75,195.902344 C564.072913,195.066402 563.734375,193.98959 563.734375,192.671875 L563.734375,192.117188 C563.734375,190.023427 564.180985,188.423183 565.074219,187.316406 C565.967452,186.20963 567.296866,185.643229 569.0625,185.617188 L569.320312,185.617188 Z M567.421875,190.742188 C566.927081,190.742188 566.471356,190.890624 566.054688,191.1875 C565.638019,191.484376 565.348959,191.856769 565.1875,192.304688 L565.1875,192.835938 C565.1875,193.773442 565.398435,194.528643 565.820312,195.101562 C566.24219,195.674482 566.768226,195.960938 567.398438,195.960938 C568.049482,195.960938 568.561196,195.721357 568.933594,195.242188 C569.305991,194.763018 569.492188,194.135421 569.492188,193.359375 C569.492188,192.578121 569.303387,191.946617 568.925781,191.464844 C568.548175,190.983071 568.046878,190.742188 567.421875,190.742188 Z M579.375,193.398438 L578.320312,193.398438 L578.320312,197 L576.867188,197 L576.867188,188.546875 L578.320312,188.546875 L578.320312,192.125 L579.265625,192.125 L582.109375,188.546875 L583.859375,188.546875 L580.515625,192.609375 L584.140625,197 L582.304688,197 L579.375,193.398438 Z M590.84375,189.742188 L586.945312,189.742188 L586.945312,197 L585.492188,197 L585.492188,188.546875 L590.84375,188.546875 L590.84375,189.742188 Z" id="от-9-до-36-кг" fill="#FFFFFF"></path>
                    <path d="M558.15625,231.695312 C558.15625,230.867183 558.319009,230.122399 558.644531,229.460938 C558.970054,228.799476 559.423174,228.289064 560.003906,227.929688 C560.584638,227.570311 561.247392,227.390625 561.992188,227.390625 C563.143235,227.390625 564.074215,227.789059 564.785156,228.585938 C565.496097,229.382816 565.851562,230.442702 565.851562,231.765625 L565.851562,231.867188 C565.851562,232.690108 565.694012,233.428382 565.378906,234.082031 C565.063801,234.73568 564.613284,235.24479 564.027344,235.609375 C563.441403,235.97396 562.768233,236.15625 562.007812,236.15625 C560.861973,236.15625 559.933597,235.757816 559.222656,234.960938 C558.511715,234.164059 558.15625,233.109382 558.15625,231.796875 L558.15625,231.695312 Z M559.609375,231.867188 C559.609375,232.804692 559.826821,233.557289 560.261719,234.125 C560.696617,234.692711 561.278642,234.976562 562.007812,234.976562 C562.742191,234.976562 563.325519,234.688805 563.757812,234.113281 C564.190106,233.537758 564.40625,232.731776 564.40625,231.695312 C564.40625,230.768225 564.1862,230.01693 563.746094,229.441406 C563.305987,228.865883 562.721358,228.578125 561.992188,228.578125 C561.278642,228.578125 560.703127,228.861976 560.265625,229.429688 C559.828123,229.997399 559.609375,230.809891 559.609375,231.867188 Z M573.773438,228.71875 L570.9375,228.71875 L570.9375,236 L569.492188,236 L569.492188,228.71875 L566.710938,228.71875 L566.710938,227.546875 L573.773438,227.546875 L573.773438,228.71875 Z M583.742188,236 L582.289062,236 L582.289062,226.367188 L579.375,227.4375 L579.375,226.125 L583.515625,224.570312 L583.742188,224.570312 L583.742188,236 Z M588.640625,230.296875 L589.21875,224.625 L595.046875,224.625 L595.046875,225.960938 L590.445312,225.960938 L590.101562,229.0625 C590.658857,228.734373 591.291663,228.570312 592,228.570312 C593.036464,228.570312 593.859372,228.912757 594.46875,229.597656 C595.078128,230.282556 595.382812,231.208327 595.382812,232.375 C595.382812,233.546881 595.066409,234.470049 594.433594,235.144531 C593.800778,235.819014 592.916672,236.15625 591.78125,236.15625 C590.776037,236.15625 589.955732,235.877607 589.320312,235.320312 C588.684893,234.763018 588.322917,233.992192 588.234375,233.007812 L589.601562,233.007812 C589.690105,233.658857 589.921873,234.149738 590.296875,234.480469 C590.671877,234.8112 591.166664,234.976562 591.78125,234.976562 C592.453128,234.976562 592.980467,234.747398 593.363281,234.289062 C593.746096,233.830727 593.9375,233.197921 593.9375,232.390625 C593.9375,231.630205 593.730471,231.019534 593.316406,230.558594 C592.902342,230.097654 592.351566,229.867188 591.664062,229.867188 C591.033851,229.867188 590.539064,230.005207 590.179688,230.28125 L589.796875,230.59375 L588.640625,230.296875 Z M601,234.820312 L601.5,234.203125 C602.062503,233.473955 602.382812,232.380216 602.460938,230.921875 L602.59375,227.546875 L608.039062,227.546875 L608.039062,234.820312 L609.125,234.820312 L609.125,238.484375 L607.679688,238.484375 L607.679688,236 L601.78125,236 L601.78125,238.484375 L600.335938,238.484375 L600.34375,234.820312 L601,234.820312 Z M602.710938,234.820312 L606.59375,234.820312 L606.59375,228.882812 L603.992188,228.882812 L603.90625,230.898438 C603.817708,232.580738 603.419274,233.888016 602.710938,234.820312 Z M610.34375,231.695312 C610.34375,230.867183 610.506509,230.122399 610.832031,229.460938 C611.157554,228.799476 611.610674,228.289064 612.191406,227.929688 C612.772138,227.570311 613.434892,227.390625 614.179688,227.390625 C615.330735,227.390625 616.261715,227.789059 616.972656,228.585938 C617.683597,229.382816 618.039062,230.442702 618.039062,231.765625 L618.039062,231.867188 C618.039062,232.690108 617.881512,233.428382 617.566406,234.082031 C617.251301,234.73568 616.800784,235.24479 616.214844,235.609375 C615.628903,235.97396 614.955733,236.15625 614.195312,236.15625 C613.049473,236.15625 612.121097,235.757816 611.410156,234.960938 C610.699215,234.164059 610.34375,233.109382 610.34375,231.796875 L610.34375,231.695312 Z M611.796875,231.867188 C611.796875,232.804692 612.014321,233.557289 612.449219,234.125 C612.884117,234.692711 613.466142,234.976562 614.195312,234.976562 C614.929691,234.976562 615.513019,234.688805 615.945312,234.113281 C616.377606,233.537758 616.59375,232.731776 616.59375,231.695312 C616.59375,230.768225 616.3737,230.01693 615.933594,229.441406 C615.493487,228.865883 614.908858,228.578125 614.179688,228.578125 C613.466142,228.578125 612.890627,228.861976 612.453125,229.429688 C612.015623,229.997399 611.796875,230.809891 611.796875,231.867188 Z M625.765625,229.609375 L626.851562,229.609375 C627.533858,229.598958 628.070311,229.419273 628.460938,229.070312 C628.851564,228.721352 629.046875,228.250003 629.046875,227.65625 C629.046875,226.32291 628.382819,225.65625 627.054688,225.65625 C626.429684,225.65625 625.930991,225.834634 625.558594,226.191406 C625.186196,226.548179 625,227.02083 625,227.609375 L623.554688,227.609375 C623.554688,226.708329 623.884111,225.959638 624.542969,225.363281 C625.201826,224.766924 626.039057,224.46875 627.054688,224.46875 C628.12761,224.46875 628.968747,224.752601 629.578125,225.320312 C630.187503,225.888024 630.492188,226.677078 630.492188,227.6875 C630.492188,228.182294 630.332033,228.661456 630.011719,229.125 C629.691405,229.588544 629.255211,229.934895 628.703125,230.164062 C629.328128,230.36198 629.811196,230.690102 630.152344,231.148438 C630.493491,231.606773 630.664062,232.166663 630.664062,232.828125 C630.664062,233.848963 630.330732,234.658851 629.664062,235.257812 C628.997393,235.856774 628.130214,236.15625 627.0625,236.15625 C625.994786,236.15625 625.126305,235.86719 624.457031,235.289062 C623.787757,234.710935 623.453125,233.947921 623.453125,233 L624.90625,233 C624.90625,233.598961 625.101561,234.078123 625.492188,234.4375 C625.882814,234.796877 626.406247,234.976562 627.0625,234.976562 C627.76042,234.976562 628.294269,234.794273 628.664062,234.429688 C629.033856,234.065102 629.21875,233.54167 629.21875,232.859375 C629.21875,232.197913 629.015627,231.690106 628.609375,231.335938 C628.203123,230.981769 627.617191,230.799479 626.851562,230.789062 L625.765625,230.789062 L625.765625,229.609375 Z M638.320312,224.617188 L638.320312,225.84375 L638.054688,225.84375 C636.929682,225.864583 636.033858,226.197913 635.367188,226.84375 C634.700518,227.489587 634.315105,228.398432 634.210938,229.570312 C634.809899,228.882809 635.627599,228.539062 636.664062,228.539062 C637.653651,228.539062 638.444007,228.888017 639.035156,229.585938 C639.626305,230.283858 639.921875,231.18489 639.921875,232.289062 C639.921875,233.460943 639.602868,234.398434 638.964844,235.101562 C638.32682,235.804691 637.47136,236.15625 636.398438,236.15625 C635.30989,236.15625 634.427087,235.738285 633.75,234.902344 C633.072913,234.066402 632.734375,232.98959 632.734375,231.671875 L632.734375,231.117188 C632.734375,229.023427 633.180985,227.423183 634.074219,226.316406 C634.967452,225.20963 636.296866,224.643229 638.0625,224.617188 L638.320312,224.617188 Z M636.421875,229.742188 C635.927081,229.742188 635.471356,229.890624 635.054688,230.1875 C634.638019,230.484376 634.348959,230.856769 634.1875,231.304688 L634.1875,231.835938 C634.1875,232.773442 634.398435,233.528643 634.820312,234.101562 C635.24219,234.674482 635.768226,234.960938 636.398438,234.960938 C637.049482,234.960938 637.561196,234.721357 637.933594,234.242188 C638.305991,233.763018 638.492188,233.135421 638.492188,232.359375 C638.492188,231.578121 638.303387,230.946617 637.925781,230.464844 C637.548175,229.983071 637.046878,229.742188 636.421875,229.742188 Z M648.375,232.398438 L647.320312,232.398438 L647.320312,236 L645.867188,236 L645.867188,227.546875 L647.320312,227.546875 L647.320312,231.125 L648.265625,231.125 L651.109375,227.546875 L652.859375,227.546875 L649.515625,231.609375 L653.140625,236 L651.304688,236 L648.375,232.398438 Z M659.84375,228.742188 L655.945312,228.742188 L655.945312,236 L654.492188,236 L654.492188,227.546875 L659.84375,227.546875 L659.84375,228.742188 Z" id="от-15-до-36-кг" fill="#FFFFFF"></path>
                </g>
            </g>
        </g>
    </g>
</svg>