<?xml version="1.0" encoding="UTF-8"?>
<svg width="277px" height="572px" viewBox="0 0 277 572" version="1.1" xmlns="http://www.w3.org/2000/svg" xmlns:xlink="http://www.w3.org/1999/xlink">
    <!-- Generator: Sketch 44.1 (41455) - http://www.bohemiancoding.com/sketch -->
    <title>size-table</title>
    <desc>Created with Sketch.</desc>
    <defs></defs>
    <g id="Page-1" stroke="none" stroke-width="1" fill="none" fill-rule="evenodd">
        <g id="Artboard" transform="translate(-369.000000, -93.000000)">
            <g id="size-table" transform="translate(507.171875, 378.511719) rotate(-270.000000) translate(-507.171875, -378.511719) translate(221.671875, 240.511719)">
                <g id="back" opacity="0.6" transform="translate(69.000000, 56.000000)" fill-rule="nonzero" fill="#FFFFFF">
                    <rect id="Rectangle-2" x="0" y="0" width="37.6114601" height="42.3076923"></rect>
                    <rect id="Rectangle-2-Copy-24" x="0" y="88.8461538" width="37.6114601" height="42.3076923"></rect>
                    <rect id="Rectangle-2-Copy-12" x="0" y="44.4230769" width="37.6114601" height="42.3076923"></rect>
                    <rect id="Rectangle-2-Copy-25" x="0" y="133.269231" width="37.6114601" height="42.3076923"></rect>
                    <rect id="Rectangle-2-Copy-48" x="0" y="177.692307" width="37.6114601" height="42.3076923"></rect>
                    <rect id="Rectangle-2-Copy" x="38.6860732" y="0" width="37.6114601" height="42.3076923"></rect>
                    <rect id="Rectangle-2-Copy-26" x="38.6860732" y="88.8461538" width="37.6114601" height="42.3076923"></rect>
                    <rect id="Rectangle-2-Copy-13" x="38.6860732" y="44.4230769" width="37.6114601" height="42.3076923"></rect>
                    <rect id="Rectangle-2-Copy-27" x="38.6860732" y="133.269231" width="37.6114601" height="42.3076923"></rect>
                    <rect id="Rectangle-2-Copy-49" x="38.6860732" y="177.692307" width="37.6114601" height="42.3076923"></rect>
                    <rect id="Rectangle-2-Copy-2" x="77.3721465" y="0" width="37.6114601" height="42.3076923"></rect>
                    <rect id="Rectangle-2-Copy-28" x="77.3721465" y="88.8461538" width="37.6114601" height="42.3076923"></rect>
                    <rect id="Rectangle-2-Copy-14" x="77.3721465" y="44.4230769" width="37.6114601" height="42.3076923"></rect>
                    <rect id="Rectangle-2-Copy-29" x="77.3721465" y="133.269231" width="37.6114601" height="42.3076923"></rect>
                    <rect id="Rectangle-2-Copy-50" x="77.3721465" y="177.692307" width="37.6114601" height="42.3076923"></rect>
                    <rect id="Rectangle-2-Copy-3" x="116.05822" y="0" width="37.6114601" height="42.3076923"></rect>
                    <rect id="Rectangle-2-Copy-30" x="116.05822" y="88.8461538" width="37.6114601" height="42.3076923"></rect>
                    <rect id="Rectangle-2-Copy-15" x="116.05822" y="44.4230769" width="37.6114601" height="42.3076923"></rect>
                    <rect id="Rectangle-2-Copy-31" x="116.05822" y="133.269231" width="37.6114601" height="42.3076923"></rect>
                    <rect id="Rectangle-2-Copy-51" x="116.05822" y="177.692307" width="37.6114601" height="42.3076923"></rect>
                    <rect id="Rectangle-2-Copy-4" x="154.744292" y="0" width="37.6114601" height="42.3076923"></rect>
                    <rect id="Rectangle-2-Copy-32" x="154.744292" y="88.8461538" width="37.6114601" height="42.3076923"></rect>
                    <rect id="Rectangle-2-Copy-23" x="154.744292" y="44.4230769" width="37.6114601" height="42.3076923"></rect>
                    <rect id="Rectangle-2-Copy-33" x="154.744292" y="133.269231" width="37.6114601" height="42.3076923"></rect>
                    <rect id="Rectangle-2-Copy-52" x="154.744292" y="177.692307" width="37.6114601" height="42.3076923"></rect>
                    <rect id="Rectangle-2-Copy-5" x="193.430366" y="0" width="37.6114601" height="42.3076923"></rect>
                    <rect id="Rectangle-2-Copy-34" x="193.430366" y="88.8461538" width="37.6114601" height="42.3076923"></rect>
                    <rect id="Rectangle-2-Copy-47" x="193.430366" y="133.269231" width="37.6114601" height="42.3076923"></rect>
                    <rect id="Rectangle-2-Copy-53" x="193.430366" y="177.692307" width="37.6114601" height="42.3076923"></rect>
                    <rect id="Rectangle-2-Copy-16" x="193.430366" y="44.4230769" width="37.6114601" height="42.3076923"></rect>
                    <rect id="Rectangle-2-Copy-6" x="232.116439" y="0" width="37.6114601" height="42.3076923"></rect>
                    <rect id="Rectangle-2-Copy-35" x="232.116439" y="88.8461538" width="37.6114601" height="42.3076923"></rect>
                    <rect id="Rectangle-2-Copy-17" x="232.116439" y="44.4230769" width="37.6114601" height="42.3076923"></rect>
                    <rect id="Rectangle-2-Copy-36" x="232.116439" y="133.269231" width="37.6114601" height="42.3076923"></rect>
                    <rect id="Rectangle-2-Copy-59" x="232.116439" y="177.692307" width="37.6114601" height="42.3076923"></rect>
                    <rect id="Rectangle-2-Copy-7" x="270.802512" y="0" width="37.6114601" height="42.3076923"></rect>
                    <rect id="Rectangle-2-Copy-37" x="270.802512" y="88.8461538" width="37.6114601" height="42.3076923"></rect>
                    <rect id="Rectangle-2-Copy-18" x="270.802512" y="44.4230769" width="37.6114601" height="42.3076923"></rect>
                    <rect id="Rectangle-2-Copy-38" x="270.802512" y="133.269231" width="37.6114601" height="42.3076923"></rect>
                    <rect id="Rectangle-2-Copy-54" x="270.802512" y="177.692307" width="37.6114601" height="42.3076923"></rect>
                    <rect id="Rectangle-2-Copy-8" x="309.488586" y="0" width="37.6114601" height="42.3076923"></rect>
                    <rect id="Rectangle-2-Copy-39" x="309.488586" y="88.8461538" width="37.6114601" height="42.3076923"></rect>
                    <rect id="Rectangle-2-Copy-19" x="309.488586" y="44.4230769" width="37.6114601" height="42.3076923"></rect>
                    <rect id="Rectangle-2-Copy-40" x="309.488586" y="133.269231" width="37.6114601" height="42.3076923"></rect>
                    <rect id="Rectangle-2-Copy-55" x="309.488586" y="177.692307" width="37.6114601" height="42.3076923"></rect>
                    <rect id="Rectangle-2-Copy-9" x="348.174659" y="0" width="37.6114601" height="42.3076923"></rect>
                    <rect id="Rectangle-2-Copy-41" x="348.174659" y="88.8461538" width="37.6114601" height="42.3076923"></rect>
                    <rect id="Rectangle-2-Copy-20" x="348.174659" y="44.4230769" width="37.6114601" height="42.3076923"></rect>
                    <rect id="Rectangle-2-Copy-42" x="348.174659" y="133.269231" width="37.6114601" height="42.3076923"></rect>
                    <rect id="Rectangle-2-Copy-56" x="348.174659" y="177.692307" width="37.6114601" height="42.3076923"></rect>
                    <rect id="Rectangle-2-Copy-10" x="386.860732" y="0" width="37.6114601" height="42.3076923"></rect>
                    <rect id="Rectangle-2-Copy-43" x="386.860732" y="88.8461538" width="37.6114601" height="42.3076923"></rect>
                    <rect id="Rectangle-2-Copy-21" x="386.860732" y="44.4230769" width="37.6114601" height="42.3076923"></rect>
                    <rect id="Rectangle-2-Copy-44" x="386.860732" y="133.269231" width="37.6114601" height="42.3076923"></rect>
                    <rect id="Rectangle-2-Copy-57" x="386.860732" y="177.692307" width="37.6114601" height="42.3076923"></rect>
                    <rect id="Rectangle-2-Copy-11" x="425.493552" y="0" width="37.6114601" height="42.3076923"></rect>
                    <rect id="Rectangle-2-Copy-60" x="464.335287" y="0" width="37.6114601" height="42.3076923"></rect>
                    <rect id="Rectangle-2-Copy-45" x="425.493552" y="89.1578947" width="37.6114601" height="42.3076923"></rect>
                    <rect id="Rectangle-2-Copy-61" x="464.335287" y="89.1578947" width="37.6114601" height="42.3076923"></rect>
                    <rect id="Rectangle-2-Copy-22" x="425.546805" y="44.4230769" width="37.6114601" height="42.3076923"></rect>
                    <rect id="Rectangle-2-Copy-22" x="464.38854" y="44.4230769" width="37.6114601" height="42.3076923"></rect>
                    <rect id="Rectangle-2-Copy-46" x="425.493552" y="133.157895" width="37.6114601" height="42.3076923"></rect>
                    <rect id="Rectangle-2-Copy-62" x="464.335287" y="133.157895" width="37.6114601" height="42.3076923"></rect>
                    <rect id="Rectangle-2-Copy-58" x="425.493552" y="177.157895" width="37.6114601" height="42.3076923"></rect>
                    <rect id="Rectangle-2-Copy-63" x="464.335287" y="177.157895" width="37.6114601" height="42.3076923"></rect>
                </g>
                <g id="Group-2" transform="translate(48.882812, 163.500000) rotate(-90.000000) translate(-48.882812, -163.500000) translate(-61.617188, 153.000000)" font-size="18" font-family="Roboto-Regular, Roboto" fill="#FFFFFF" font-weight="normal">
                    <g id="0+/I" transform="translate(182.427060, -0.000000)">
                        <text>
                            <tspan x="0.0495099473" y="17">0+/I</tspan>
                        </text>
                    </g>
                    <g id="0+" transform="translate(141.885902, 0.000000)">
                        <text>
                            <tspan x="0.265444628" y="17">0+</tspan>
                        </text>
                    </g>
                    <g id="I---III" transform="translate(48.524858, -0.000000)">
                        <text>
                            <tspan x="0.616768331" y="17">I - III</tspan>
                        </text>
                    </g>
                    <g id="II---III" transform="translate(0.284162, 0.000000)">
                        <text>
                            <tspan x="0.736106873" y="17">II - III</tspan>
                        </text>
                    </g>
                    <g id="I" transform="translate(105.765554, 0.000000)">
                        <text>
                            <tspan x="0.119338553" y="17">I</tspan>
                        </text>
                    </g>
                </g>
                <g id="Group" transform="translate(80.000000, 30.000000)" fill-rule="nonzero" fill="#FFFFFF">
                    <path d="M11.0878906,10.5419922 C11.0878906,12.4462986 10.7626986,13.8613235 10.1123047,14.7871094 C9.46191081,15.7128953 8.44531941,16.1757812 7.0625,16.1757812 C5.6972588,16.1757812 4.68652672,15.7231491 4.03027344,14.8178711 C3.37402016,13.9125931 3.0341798,12.5605559 3.01074219,10.7617188 L3.01074219,8.59082031 C3.01074219,6.70995153 3.33593425,5.31250457 3.98632812,4.3984375 C4.636722,3.48437043 5.65624306,3.02734375 7.04492188,3.02734375 C8.42188188,3.02734375 9.43554362,3.46825731 10.0859375,4.35009766 C10.7363314,5.231938 11.0703124,6.59276424 11.0878906,8.43261719 L11.0878906,10.5419922 Z M9.46191406,8.31835938 C9.46191406,6.94139937 9.26855662,5.93799143 8.88183594,5.30810547 C8.49511525,4.67821951 7.88281669,4.36328125 7.04492188,4.36328125 C6.21288646,4.36328125 5.60644722,4.67675468 5.22558594,5.30371094 C4.84472466,5.9306672 4.64843756,6.89452475 4.63671875,8.1953125 L4.63671875,10.796875 C4.63671875,12.1796944 4.83740034,13.2006803 5.23876953,13.8598633 C5.64013873,14.5190463 6.2480428,14.8486328 7.0625,14.8486328 C7.86523839,14.8486328 8.46142383,14.538089 8.85107422,13.9169922 C9.2407246,13.2958953 9.44433585,12.3173895 9.46191406,10.9814453 L9.46191406,8.31835938 Z" id="0" transform="translate(7.049316, 9.601562) rotate(-90.000000) translate(-7.049316, -9.601562) "></path>
                    <polygon id="1" transform="translate(44.950684, 9.570801) rotate(-90.000000) translate(-44.950684, -9.570801) " points="47.4072266 16 45.7724609 16 45.7724609 5.16308594 42.4941406 6.3671875 42.4941406 4.890625 47.1523438 3.14160156 47.4072266 3.14160156"></polygon>
                    <path d="M86.448242,16 L78.063477,16 L78.063477,14.8310547 L82.493164,9.90917969 C83.149417,9.16503534 83.60205,8.56006092 83.851074,8.09423828 C84.100099,7.62841564 84.224609,7.14648687 84.224609,6.6484375 C84.224609,5.98046541 84.022463,5.43261933 83.618164,5.00488281 C83.213865,4.5771463 82.674808,4.36328125 82.000977,4.36328125 C81.192379,4.36328125 80.563967,4.59325942 80.115723,5.05322266 C79.667478,5.51318589 79.443359,6.15331621 79.443359,6.97363281 L77.817383,6.97363281 C77.817383,5.79589255 78.196774,4.84375363 78.955566,4.1171875 C79.714359,3.39062137 80.729486,3.02734375 82.000977,3.02734375 C83.190436,3.02734375 84.130856,3.33935235 84.822266,3.96337891 C85.513675,4.58740546 85.859375,5.41796356 85.859375,6.45507812 C85.859375,7.71485005 85.056649,9.21483505 83.451172,10.9550781 L80.023438,14.6728516 L86.448242,14.6728516 L86.448242,16 Z" id="2" transform="translate(82.132812, 9.513672) rotate(-90.000000) translate(-82.132812, -9.513672) "></path>
                    <path d="M121.427734,8.81054688 L122.649414,8.81054688 C123.416996,8.79882807 124.020506,8.59668165 124.459961,8.20410156 C124.899416,7.81152147 125.119141,7.28125334 125.119141,6.61328125 C125.119141,5.11327375 124.372078,4.36328125 122.87793,4.36328125 C122.174801,4.36328125 121.613772,4.56396284 121.194824,4.96533203 C120.775877,5.36670123 120.566406,5.89843419 120.566406,6.56054688 L118.94043,6.56054688 C118.94043,5.54686993 119.311031,4.7045932 120.052246,4.03369141 C120.793461,3.36278961 121.735346,3.02734375 122.87793,3.02734375 C124.084967,3.02734375 125.031247,3.34667649 125.716797,3.98535156 C126.402347,4.62402663 126.745117,5.51171307 126.745117,6.6484375 C126.745117,7.20508091 126.564943,7.74413802 126.20459,8.265625 C125.844236,8.78711198 125.353519,9.17675652 124.732422,9.43457031 C125.43555,9.65722768 125.979002,10.0263646 126.362793,10.5419922 C126.746584,11.0576198 126.938477,11.6874963 126.938477,12.4316406 C126.938477,13.5800839 126.56348,14.4912076 125.813477,15.1650391 C125.063473,15.8388706 124.087897,16.1757812 122.886719,16.1757812 C121.685541,16.1757812 120.7085,15.8505892 119.955566,15.2001953 C119.202633,14.5498014 118.826172,13.6914116 118.826172,12.625 L120.460938,12.625 C120.460938,13.2988315 120.680662,13.8378886 121.120117,14.2421875 C121.559573,14.6464864 122.148434,14.8486328 122.886719,14.8486328 C123.671879,14.8486328 124.272459,14.6435567 124.688477,14.2333984 C125.104494,13.8232401 125.3125,13.2343788 125.3125,12.4667969 C125.3125,11.7226525 125.083987,11.1513692 124.626953,10.7529297 C124.16992,10.3544902 123.510746,10.1494141 122.649414,10.1376953 L121.427734,10.1376953 L121.427734,8.81054688 Z" id="3" transform="translate(122.882325, 9.601562) rotate(-90.000000) translate(-122.882325, -9.601562) "></path>
                    <path d="M163.927734,11.7021484 L165.703125,11.7021484 L165.703125,13.0292969 L163.927734,13.0292969 L163.927734,16 L162.292969,16 L162.292969,13.0292969 L156.46582,13.0292969 L156.46582,12.0712891 L162.196289,3.203125 L163.927734,3.203125 L163.927734,11.7021484 Z M158.311523,11.7021484 L162.292969,11.7021484 L162.292969,5.42675781 L162.099609,5.77832031 L158.311523,11.7021484 Z" id="4" transform="translate(161.084473, 9.601562) rotate(-90.000000) translate(-161.084473, -9.601562) "></path>
                    <path d="M195.810547,9.58398438 L196.460938,3.203125 L203.017578,3.203125 L203.017578,4.70605469 L197.84082,4.70605469 L197.454102,8.1953125 C198.081058,7.82617003 198.792965,7.64160156 199.589844,7.64160156 C200.755865,7.64160156 201.681637,8.02685162 202.367188,8.79736328 C203.052738,9.56787495 203.395508,10.6093684 203.395508,11.921875 C203.395508,13.240241 203.039554,14.2788048 202.327637,15.0375977 C201.615719,15.7963905 200.6211,16.1757812 199.34375,16.1757812 C198.212885,16.1757812 197.290043,15.8623078 196.575195,15.2353516 C195.860348,14.6083953 195.453125,13.7412165 195.353516,12.6337891 L196.891602,12.6337891 C196.991211,13.3662146 197.251951,13.9184552 197.673828,14.2905273 C198.095705,14.6625995 198.65234,14.8486328 199.34375,14.8486328 C200.099613,14.8486328 200.692869,14.5908229 201.123535,14.0751953 C201.554201,13.5595677 201.769531,12.8476608 201.769531,11.9394531 C201.769531,11.0839801 201.536623,10.3969753 201.070801,9.87841797 C200.604978,9.35986069 199.985355,9.10058594 199.211914,9.10058594 C198.502926,9.10058594 197.946291,9.25585782 197.541992,9.56640625 L197.111328,9.91796875 L195.810547,9.58398438 Z" id="5" transform="translate(199.374512, 9.689453) rotate(-90.000000) translate(-199.374512, -9.689453) "></path>
                    <path d="M240.444336,3.19433594 L240.444336,4.57421875 L240.145508,4.57421875 C238.879876,4.59765637 237.872074,4.97265262 237.12207,5.69921875 C236.372067,6.42578488 235.938477,7.4482356 235.821289,8.76660156 C236.495121,7.9931602 237.415033,7.60644531 238.581055,7.60644531 C239.694342,7.60644531 240.583493,7.99901951 241.248535,8.78417969 C241.913578,9.56933986 242.246094,10.5830016 242.246094,11.8251953 C242.246094,13.1435613 241.887211,14.1982382 241.169434,14.9892578 C240.451657,15.7802774 239.489264,16.1757812 238.282227,16.1757812 C237.057611,16.1757812 236.064457,15.7055711 235.302734,14.7651367 C234.541012,13.8247023 234.160156,12.6132887 234.160156,11.1308594 L234.160156,10.5068359 C234.160156,8.15135541 234.662593,6.35108044 235.66748,5.10595703 C236.672368,3.86083362 238.167959,3.22363296 240.154297,3.19433594 L240.444336,3.19433594 Z M238.308594,8.95996094 C237.75195,8.95996094 237.23926,9.12695146 236.770508,9.4609375 C236.301755,9.79492354 235.976563,10.2138647 235.794922,10.7177734 L235.794922,11.3154297 C235.794922,12.3701225 236.032224,13.2197233 236.506836,13.8642578 C236.981448,14.5087923 237.573239,14.8310547 238.282227,14.8310547 C239.014652,14.8310547 239.59033,14.5615261 240.009277,14.0224609 C240.428225,13.4833957 240.637695,12.7773481 240.637695,11.9042969 C240.637695,11.0253862 240.425295,10.3149441 240.000488,9.77294922 C239.575681,9.23095432 239.011722,8.95996094 238.308594,8.95996094 Z" id="6" transform="translate(238.203125, 9.685059) rotate(-90.000000) translate(-238.203125, -9.685059) "></path>
                    <polygon id="7" transform="translate(278.000977, 9.601562) rotate(-90.000000) translate(-278.000977, -9.601562) " points="282.325195 4.1171875 277.025391 16 275.320312 16 280.602539 4.5390625 273.676758 4.5390625 273.676758 3.203125 282.325195 3.203125"></polygon>
                    <path d="M319.824219,6.54296875 C319.824219,7.18164382 319.655763,7.74999751 319.318848,8.24804688 C318.981932,8.74609624 318.52637,9.13574078 317.952148,9.41699219 C318.620121,9.704103 319.148924,10.1230441 319.538574,10.6738281 C319.928225,11.2246121 320.123047,11.8486293 320.123047,12.5458984 C320.123047,13.6533258 319.749515,14.535153 319.002441,15.1914062 C318.255367,15.8476595 317.272467,16.1757812 316.053711,16.1757812 C314.823236,16.1757812 313.837406,15.8461947 313.096191,15.1870117 C312.354977,14.5278287 311.984375,13.6474664 311.984375,12.5458984 C311.984375,11.8544887 312.173338,11.2304715 312.55127,10.6738281 C312.929201,10.1171847 313.452145,9.69531394 314.120117,9.40820312 C313.551755,9.12695172 313.103517,8.73730718 312.775391,8.23925781 C312.447264,7.74120845 312.283203,7.17578441 312.283203,6.54296875 C312.283203,5.46483836 312.628903,4.60937816 313.320312,3.9765625 C314.011722,3.34374684 314.922846,3.02734375 316.053711,3.02734375 C317.178717,3.02734375 318.088375,3.34374684 318.782715,3.9765625 C319.477054,4.60937816 319.824219,5.46483836 319.824219,6.54296875 Z M318.49707,12.5107422 C318.49707,11.7958949 318.270022,11.2128929 317.815918,10.7617188 C317.361814,10.3105446 316.768558,10.0849609 316.036133,10.0849609 C315.303707,10.0849609 314.716311,10.307615 314.273926,10.7529297 C313.831541,11.1982444 313.610352,11.784176 313.610352,12.5107422 C313.610352,13.2373083 313.825681,13.8085917 314.256348,14.2246094 C314.687014,14.6406271 315.286129,14.8486328 316.053711,14.8486328 C316.815433,14.8486328 317.413084,14.6391623 317.84668,14.2202148 C318.280276,13.8012674 318.49707,13.2314489 318.49707,12.5107422 Z M316.053711,4.36328125 C315.415036,4.36328125 314.897951,4.56103318 314.502441,4.95654297 C314.106932,5.35205276 313.90918,5.88964504 313.90918,6.56933594 C313.90918,7.21972981 314.104002,7.74560346 314.493652,8.14697266 C314.883303,8.54834185 315.403317,8.74902344 316.053711,8.74902344 C316.704105,8.74902344 317.224119,8.54834185 317.61377,8.14697266 C318.00342,7.74560346 318.198242,7.21972981 318.198242,6.56933594 C318.198242,5.91894206 317.996096,5.38867393 317.591797,4.97851562 C317.187498,4.56835732 316.674808,4.36328125 316.053711,4.36328125 Z" id="8" transform="translate(316.053711, 9.601562) rotate(-90.000000) translate(-316.053711, -9.601562) "></path>
                    <path d="M358.294922,10.375 C357.955076,10.7792989 357.549319,11.104491 357.077637,11.3505859 C356.605955,11.5966809 356.08887,11.7197266 355.526367,11.7197266 C354.788082,11.7197266 354.145022,11.5380878 353.597168,11.1748047 C353.049314,10.8115216 352.625978,10.3002963 352.327148,9.64111328 C352.028319,8.9819303 351.878906,8.25391023 351.878906,7.45703125 C351.878906,6.60155822 352.041502,5.83105812 352.366699,5.14550781 C352.691896,4.45995751 353.153317,3.93554869 353.750977,3.57226562 C354.348636,3.20898256 355.045894,3.02734375 355.842773,3.02734375 C357.108405,3.02734375 358.105953,3.50048355 358.835449,4.44677734 C359.564945,5.39307114 359.929688,6.68358558 359.929688,8.31835937 L359.929688,8.79296875 C359.929688,11.2832156 359.437505,13.1010685 358.453125,14.246582 C357.468745,15.3920956 355.983408,15.979492 353.99707,16.0087891 L353.680664,16.0087891 L353.680664,14.6376953 L354.023438,14.6376953 C355.365241,14.6142577 356.396481,14.2641635 357.117188,13.5874023 C357.837894,12.9106412 358.230468,11.8398511 358.294922,10.375 Z M355.790039,10.375 C356.334964,10.375 356.8374,10.2080095 357.297363,9.87402344 C357.757327,9.54003739 358.092772,9.12695559 358.303711,8.63476562 L358.303711,7.984375 C358.303711,6.91796342 358.072268,6.05078459 357.609375,5.3828125 C357.146482,4.71484041 356.56055,4.38085938 355.851562,4.38085938 C355.136715,4.38085938 354.562502,4.65478242 354.128906,5.20263672 C353.69531,5.75049102 353.478516,6.47265177 353.478516,7.36914062 C353.478516,8.24219187 353.687986,8.96142295 354.106934,9.52685547 C354.525881,10.092288 355.086911,10.375 355.790039,10.375 Z" id="9" transform="translate(355.904297, 9.518066) rotate(-90.000000) translate(-355.904297, -9.518066) "></path>
                    <path d="M390.407227,16 L388.772461,16 L388.772461,5.16308594 L385.494141,6.3671875 L385.494141,4.890625 L390.152344,3.14160156 L390.407227,3.14160156 L390.407227,16 Z M403.195312,10.5419922 C403.195312,12.4462986 402.87012,13.8613235 402.219727,14.7871094 C401.569333,15.7128953 400.552741,16.1757812 399.169922,16.1757812 C397.804681,16.1757812 396.793949,15.7231491 396.137695,14.8178711 C395.481442,13.9125931 395.141602,12.5605559 395.118164,10.7617188 L395.118164,8.59082031 C395.118164,6.70995153 395.443356,5.31250457 396.09375,4.3984375 C396.744144,3.48437043 397.763665,3.02734375 399.152344,3.02734375 C400.529304,3.02734375 401.542965,3.46825731 402.193359,4.35009766 C402.843753,5.231938 403.177734,6.59276424 403.195312,8.43261719 L403.195312,10.5419922 Z M401.569336,8.31835938 C401.569336,6.94139937 401.375978,5.93799143 400.989258,5.30810547 C400.602537,4.67821951 399.990239,4.36328125 399.152344,4.36328125 C398.320308,4.36328125 397.713869,4.67675468 397.333008,5.30371094 C396.952147,5.9306672 396.755859,6.89452475 396.744141,8.1953125 L396.744141,10.796875 C396.744141,12.1796944 396.944822,13.2006803 397.346191,13.8598633 C397.747561,14.5190463 398.355465,14.8486328 399.169922,14.8486328 C399.97266,14.8486328 400.568846,14.538089 400.958496,13.9169922 C401.348146,13.2958953 401.551758,12.3173895 401.569336,10.9814453 L401.569336,8.31835938 Z" id="10" transform="translate(394.344726, 9.601562) rotate(-90.000000) translate(-394.344726, -9.601562) "></path>
                    <path d="M432.407227,16 L430.772461,16 L430.772461,5.16308594 L427.494141,6.3671875 L427.494141,4.890625 L432.152344,3.14160156 L432.407227,3.14160156 L432.407227,16 Z M442.514648,16 L440.879883,16 L440.879883,5.16308594 L437.601562,6.3671875 L437.601562,4.890625 L442.259766,3.14160156 L442.514648,3.14160156 L442.514648,16 Z" id="11" transform="translate(435.004395, 9.570801) rotate(-90.000000) translate(-435.004395, -9.570801) "></path>
                    <path d="M468.407227,16 L466.772461,16 L466.772461,5.16308594 L463.494141,6.3671875 L463.494141,4.890625 L468.152344,3.14160156 L468.407227,3.14160156 L468.407227,16 Z M481.555664,16 L473.170898,16 L473.170898,14.8310547 L477.600586,9.90917969 C478.256839,9.16503534 478.709471,8.56006092 478.958496,8.09423828 C479.207521,7.62841564 479.332031,7.14648687 479.332031,6.6484375 C479.332031,5.98046541 479.129885,5.43261933 478.725586,5.00488281 C478.321287,4.5771463 477.78223,4.36328125 477.108398,4.36328125 C476.299801,4.36328125 475.671389,4.59325942 475.223145,5.05322266 C474.7749,5.51318589 474.550781,6.15331621 474.550781,6.97363281 L472.924805,6.97363281 C472.924805,5.79589255 473.304195,4.84375363 474.062988,4.1171875 C474.821781,3.39062137 475.836908,3.02734375 477.108398,3.02734375 C478.297858,3.02734375 479.238278,3.33935235 479.929688,3.96337891 C480.621097,4.58740546 480.966797,5.41796356 480.966797,6.45507812 C480.966797,7.71485005 480.164071,9.21483505 478.558594,10.9550781 L475.130859,14.6728516 L481.555664,14.6728516 L481.555664,16 Z" id="12" transform="translate(472.524902, 9.513672) rotate(-90.000000) translate(-472.524902, -9.513672) "></path>
                </g>
                <g id="Group-3" transform="translate(0.000000, 88.000000)">
                    <path d="M-19.6796883,71.5917968 L-25.8496102,71.5917968 L-25.8496102,82.9999999 L-27.5458992,82.9999999 L-27.5458992,70.2031249 L-19.6796883,70.2031249 L-19.6796883,71.5917968 Z M-15.9179696,77.9902343 L-15.9179696,82.9999999 L-17.6054696,82.9999999 L-17.6054696,70.2031249 L-12.885743,70.2031249 C-11.4853454,70.2031249 -10.3881884,70.5605432 -9.59423908,71.2753905 C-8.8002898,71.9902378 -8.40332111,72.9365174 -8.40332111,74.1142577 C-8.40332111,75.3564514 -8.79150082,76.3129848 -9.56787189,76.9838866 C-10.344243,77.6547884 -11.4560483,77.9902343 -12.9033211,77.9902343 L-15.9179696,77.9902343 Z M-15.9179696,76.6103515 L-12.885743,76.6103515 C-11.9833947,76.6103515 -11.2919954,76.3979512 -10.8115242,75.9731444 C-10.3310531,75.5483376 -10.0908211,74.9345742 -10.0908211,74.1318358 C-10.0908211,73.3701133 -10.3310531,72.7607444 -10.8115242,72.3037108 C-11.2919954,71.8466773 -11.9511685,71.609375 -12.7890633,71.5917968 L-15.9179696,71.5917968 L-15.9179696,76.6103515 Z M-1.85546955,77.6298827 L1.08886639,70.2031249 L3.04882732,70.2031249 L-1.47753986,80.8642577 C-1.78222889,81.5439486 -2.06640573,82.0258774 -2.33007892,82.3100585 C-2.59375212,82.5942396 -2.90283106,82.8110343 -3.25732502,82.9604491 C-3.61181898,83.1098639 -4.0556622,83.1845702 -4.58886799,83.1845702 C-5.05176093,83.1845702 -5.34765641,83.1582033 -5.4765633,83.1054687 L-5.42382892,81.7695311 L-4.62402424,81.8046874 C-4.00878679,81.8046874 -3.55176011,81.5087919 -3.25293049,80.9169921 L-3.03320392,80.4599608 L-2.69921955,79.6777343 L-7.05859455,70.2031249 L-5.16894611,70.2031249 L-1.85546955,77.6298827 Z M14.8349601,82.9999999 L13.1386711,82.9999999 L13.1386711,71.5917968 L6.8281242,71.5917968 L6.8281242,82.9999999 L5.1406242,82.9999999 L5.1406242,70.2031249 L14.8349601,70.2031249 L14.8349601,82.9999999 Z M27.6757804,82.9999999 L25.9794914,82.9999999 L25.9794914,71.5917968 L19.6689445,71.5917968 L19.6689445,82.9999999 L17.9814445,82.9999999 L17.9814445,70.2031249 L27.6757804,70.2031249 L27.6757804,82.9999999 Z M37.8095695,79.6601561 L32.4482414,79.6601561 L31.2441398,82.9999999 L29.5039054,82.9999999 L34.3906242,70.2031249 L35.8671867,70.2031249 L40.7626945,82.9999999 L39.0312492,82.9999999 L37.8095695,79.6601561 Z M32.958007,78.2714843 L37.308593,78.2714843 L35.1289054,72.2861327 L32.958007,78.2714843 Z" id="Группа" fill="#FFFFFF" fill-rule="nonzero" transform="translate(6.608398, 76.693848) rotate(-90.000000) translate(-6.608398, -76.693848) "></path>
                    <path d="M25.0293864,0 L8,0" id="Line-Copy-3" stroke="#FFFFFF" stroke-linecap="square"></path>
                    <path d="M7.5,27.5 L7.5,0.5" id="Line" stroke="#FFFFFF" stroke-linecap="square"></path>
                    <path d="M7.5,150.5 L7.5,123.5" id="Line-Copy-5" stroke="#FFFFFF" stroke-linecap="square"></path>
                    <path d="M25.0293864,151 L8,151" id="Line-Copy-4" stroke="#FFFFFF" stroke-linecap="square"></path>
                </g>
                <g id="Group-4" transform="translate(83.000000, 4.783079)" stroke="#FFFFFF" stroke-linecap="square">
                    <path d="M0.300890585,13.1329517 L0.300890585,2.88498759" id="Line"></path>
                    <path d="M472.097328,13.1329517 L472.097328,2.88498759" id="Line-Copy"></path>
                    <path d="M0.300890585,2.30089059 L187.488735,2.30089059" id="Line"></path>
                    <path d="M288.487819,2.30089059 L471.984234,2.30089059" id="Line-Copy-2"></path>
                </g>
                <path d="M284.236328,13 L284.236328,0.203125 L288.419922,0.203125 C289.808601,0.203125 290.853024,0.490231504 291.553223,1.06445312 C292.253421,1.63867475 292.603516,2.48827562 292.603516,3.61328125 C292.603516,4.21094049 292.433595,4.73974379 292.09375,5.19970703 C291.753905,5.65967027 291.291019,6.01562374 290.705078,6.26757813 C291.396488,6.46093847 291.942869,6.82861057 292.344238,7.37060547 C292.745607,7.91260037 292.946289,8.55859 292.946289,9.30859375 C292.946289,10.457037 292.574222,11.3593717 291.830078,12.015625 C291.085934,12.6718783 290.034186,13 288.674805,13 L284.236328,13 Z M285.923828,7.01464844 L285.923828,11.6201172 L288.709961,11.6201172 C289.495121,11.6201172 290.114744,11.4165059 290.568848,11.0092773 C291.022951,10.6020487 291.25,10.0410192 291.25,9.32617188 C291.25,7.78514854 290.412118,7.01464844 288.736328,7.01464844 L285.923828,7.01464844 Z M285.923828,5.66113281 L288.472656,5.66113281 C289.210941,5.66113281 289.801267,5.47656435 290.243652,5.10742188 C290.686037,4.7382794 290.907227,4.23730785 290.907227,3.60449219 C290.907227,2.90136367 290.70215,2.39013832 290.291992,2.07080078 C289.881834,1.75146325 289.257817,1.59179688 288.419922,1.59179688 L285.923828,1.59179688 L285.923828,5.66113281 Z M305.286133,7.01464844 C305.286133,8.26856096 305.075197,9.3627883 304.65332,10.2973633 C304.231443,11.2319383 303.633793,11.94531 302.860352,12.4375 C302.08691,12.92969 301.184575,13.1757812 300.15332,13.1757812 C299.145503,13.1757812 298.251957,12.9282251 297.472656,12.4331055 C296.693355,11.9379858 296.088381,11.2319382 295.657715,10.3149414 C295.227049,9.39794463 295.005859,8.33594354 294.994141,7.12890625 L294.994141,6.20605469 C294.994141,4.97557979 295.208006,3.88867659 295.635742,2.9453125 C296.063479,2.00194841 296.668453,1.27978766 297.450684,0.778808594 C298.232914,0.277829526 299.127925,0.02734375 300.135742,0.02734375 C301.161138,0.02734375 302.064937,0.274899868 302.847168,0.770019531 C303.629398,1.26513919 304.231443,1.98290545 304.65332,2.92333984 C305.075197,3.86377423 305.286133,4.95800157 305.286133,6.20605469 L305.286133,7.01464844 Z M303.607422,6.18847656 C303.607422,4.67089085 303.302737,3.50635171 302.693359,2.69482422 C302.083981,1.88329672 301.231451,1.47753906 300.135742,1.47753906 C299.069331,1.47753906 298.229984,1.88329672 297.617676,2.69482422 C297.005368,3.50635171 296.69043,4.63280529 296.672852,6.07421875 L296.672852,7.01464844 C296.672852,8.48535892 296.981931,9.64110908 297.600098,10.4819336 C298.218265,11.3227581 299.069331,11.7431641 300.15332,11.7431641 C301.24317,11.7431641 302.086911,11.3461954 302.68457,10.5522461 C303.28223,9.75829681 303.589844,8.6201246 303.607422,7.13769531 L303.607422,6.18847656 Z M314.382812,3.63964844 C314.382812,2.95995754 314.135256,2.4194356 313.640137,2.01806641 C313.145017,1.61669721 312.449223,1.41601562 311.552734,1.41601562 C310.802731,1.41601562 310.174319,1.62255653 309.66748,2.03564453 C309.160642,2.44873253 308.907227,2.95995789 308.907227,3.56933594 L307.219727,3.56933594 C307.219727,2.88964504 307.40576,2.28027613 307.777832,1.74121094 C308.149904,1.20214574 308.669919,0.78173979 309.337891,0.479980469 C310.005863,0.178221147 310.744137,0.02734375 311.552734,0.02734375 C312.982429,0.02734375 314.092769,0.348141323 314.883789,0.989746094 C315.674809,1.63135086 316.070312,2.52343179 316.070312,3.66601562 C316.070312,4.25781546 315.888674,4.79687257 315.525391,5.28320312 C315.162108,5.76953368 314.655277,6.15331891 314.004883,6.43457031 C315.51075,6.93847908 316.263672,7.93749253 316.263672,9.43164062 C316.263672,10.5800839 315.835942,11.4912076 314.980469,12.1650391 C314.124996,12.8388706 312.982429,13.1757812 311.552734,13.1757812 C310.703121,13.1757812 309.931156,13.0249039 309.236816,12.7231445 C308.542477,12.4213852 308.001955,11.9921903 307.615234,11.4355469 C307.228514,10.8789035 307.035156,10.2168007 307.035156,9.44921875 L308.722656,9.44921875 C308.722656,10.1230502 308.989255,10.6840798 309.522461,11.1323242 C310.055667,11.5805686 310.732418,11.8046875 311.552734,11.8046875 C312.472661,11.8046875 313.20654,11.5908225 313.754395,11.1630859 C314.302249,10.7353494 314.576172,10.1699254 314.576172,9.46679688 C314.576172,7.96678937 313.64747,7.20214858 311.790039,7.17285156 L310.208008,7.17285156 L310.208008,5.78417969 L311.78125,5.78417969 C312.636723,5.76660147 313.284177,5.57324403 313.723633,5.20410156 C314.163088,4.83495909 314.382812,4.31347993 314.382812,3.63964844 Z M320.183594,7.99023438 L320.183594,13 L318.496094,13 L318.496094,0.203125 L323.21582,0.203125 C324.616218,0.203125 325.713375,0.560543301 326.507324,1.27539062 C327.301274,1.99023795 327.698242,2.93651755 327.698242,4.11425781 C327.698242,5.35645152 327.310062,6.31298493 326.533691,6.98388672 C325.75732,7.65478851 324.645515,7.99023438 323.198242,7.99023438 L320.183594,7.99023438 Z M320.183594,6.61035156 L323.21582,6.61035156 C324.118169,6.61035156 324.809568,6.39795134 325.290039,5.97314453 C325.77051,5.54833772 326.010742,4.93457433 326.010742,4.13183594 C326.010742,3.37011338 325.77051,2.76074447 325.290039,2.30371094 C324.809568,1.8466774 324.150395,1.60937509 323.3125,1.59179688 L320.183594,1.59179688 L320.183594,6.61035156 Z M335.705078,9.66015625 L330.34375,9.66015625 L329.139648,13 L327.399414,13 L332.286133,0.203125 L333.762695,0.203125 L338.658203,13 L336.926758,13 L335.705078,9.66015625 Z M330.853516,8.27148438 L335.204102,8.27148438 L333.024414,2.28613281 L330.853516,8.27148438 Z M349.697266,8.93945312 C349.539062,10.2929755 349.039555,11.3373987 348.19873,12.0727539 C347.357906,12.8081091 346.240241,13.1757812 344.845703,13.1757812 C343.333977,13.1757812 342.122563,12.6337945 341.211426,11.5498047 C340.300288,10.4658149 339.844727,9.01563408 339.844727,7.19921875 L339.844727,5.96875 C339.844727,4.77929093 340.057127,3.73340295 340.481934,2.83105469 C340.90674,1.92870643 341.508785,1.23584226 342.288086,0.752441406 C343.067387,0.269040552 343.969721,0.02734375 344.995117,0.02734375 C346.354499,0.02734375 347.444332,0.406734487 348.264648,1.16552734 C349.084965,1.9243202 349.562499,2.97460267 349.697266,4.31640625 L348.000977,4.31640625 C347.854491,3.2968699 347.536624,2.55859604 347.047363,2.1015625 C346.558103,1.64452896 345.874028,1.41601562 344.995117,1.41601562 C343.916987,1.41601562 343.07178,1.81444914 342.459473,2.61132812 C341.847165,3.40820711 341.541016,4.54198483 341.541016,6.01269531 L341.541016,7.25195312 C341.541016,8.64063194 341.831052,9.74511309 342.411133,10.5654297 C342.991214,11.3857463 343.802729,11.7958984 344.845703,11.7958984 C345.783208,11.7958984 346.502439,11.5834982 347.003418,11.1586914 C347.504397,10.7338846 347.836913,9.9941459 348.000977,8.93945312 L349.697266,8.93945312 Z M360.586914,1.59179688 L356.473633,1.59179688 L356.473633,13 L354.794922,13 L354.794922,1.59179688 L350.69043,1.59179688 L350.69043,0.203125 L360.586914,0.203125 L360.586914,1.59179688 Z" id="Возраст" fill="#FFFFFF" fill-rule="nonzero"></path>
                <rect id="Rectangle-3" fill="#8FBC94" fill-rule="nonzero" x="83" y="62" width="134" height="26" rx="13"></rect>
                <path d="M87,107 L129,107 L129,107 C136.179702,107 142,112.820298 142,120 L142,120 L142,120 C142,127.179702 136.179702,133 129,133 L87,133 L87,133 C79.8202983,133 74,127.179702 74,120 L74,120 L74,120 C74,112.820298 79.8202983,107 87,107 Z" id="Rectangle-3-Copy" fill="#548687" fill-rule="nonzero"></path>
                <rect id="Rectangle-3-Copy-2" fill="#56445D" fill-rule="nonzero" x="113" y="153" width="184" height="26" rx="13"></rect>
                <rect id="Rectangle-3-Copy-3" fill="#F6B352" fill-rule="nonzero" x="112" y="196.484375" width="449" height="26" rx="13"></rect>
                <rect id="Rectangle-3-Copy-4" fill="#F68657" fill-rule="nonzero" x="187" y="240" width="374" height="26" rx="13"></rect>
                <path d="M80,121.820312 L80.5,121.203125 C81.062503,120.473955 81.382812,119.380216 81.460938,117.921875 L81.59375,114.546875 L87.039062,114.546875 L87.039062,121.820312 L88.125,121.820312 L88.125,125.484375 L86.679688,125.484375 L86.679688,123 L80.78125,123 L80.78125,125.484375 L79.335938,125.484375 L79.34375,121.820312 L80,121.820312 Z M81.710938,121.820312 L85.59375,121.820312 L85.59375,115.882812 L82.992188,115.882812 L82.90625,117.898438 C82.817708,119.580738 82.419274,120.888016 81.710938,121.820312 Z M89.34375,118.695312 C89.34375,117.867183 89.506509,117.122399 89.832031,116.460938 C90.157554,115.799476 90.610674,115.289064 91.191406,114.929688 C91.772138,114.570311 92.434892,114.390625 93.179688,114.390625 C94.330735,114.390625 95.261715,114.789059 95.972656,115.585938 C96.683597,116.382816 97.039062,117.442702 97.039062,118.765625 L97.039062,118.867188 C97.039062,119.690108 96.881512,120.428382 96.566406,121.082031 C96.251301,121.73568 95.800784,122.24479 95.214844,122.609375 C94.628903,122.97396 93.955733,123.15625 93.195312,123.15625 C92.049473,123.15625 91.121097,122.757816 90.410156,121.960938 C89.699215,121.164059 89.34375,120.109382 89.34375,118.796875 L89.34375,118.695312 Z M90.796875,118.867188 C90.796875,119.804692 91.014321,120.557289 91.449219,121.125 C91.884117,121.692711 92.466142,121.976562 93.195312,121.976562 C93.929691,121.976562 94.513019,121.688805 94.945312,121.113281 C95.377606,120.537758 95.59375,119.731776 95.59375,118.695312 C95.59375,117.768225 95.3737,117.01693 94.933594,116.441406 C94.493487,115.865883 93.908858,115.578125 93.179688,115.578125 C92.466142,115.578125 91.890627,115.861976 91.453125,116.429688 C91.015623,116.997399 90.796875,117.809891 90.796875,118.867188 Z M107.414062,123 L105.960938,123 L105.960938,113.367188 L103.046875,114.4375 L103.046875,113.125 L107.1875,111.570312 L107.414062,111.570312 L107.414062,123 Z M113.75,116.609375 L114.835938,116.609375 C115.518233,116.598958 116.054686,116.419273 116.445312,116.070312 C116.835939,115.721352 117.03125,115.250003 117.03125,114.65625 C117.03125,113.32291 116.367194,112.65625 115.039062,112.65625 C114.414059,112.65625 113.915366,112.834634 113.542969,113.191406 C113.170571,113.548179 112.984375,114.02083 112.984375,114.609375 L111.539062,114.609375 C111.539062,113.708329 111.868486,112.959638 112.527344,112.363281 C113.186201,111.766924 114.023432,111.46875 115.039062,111.46875 C116.111985,111.46875 116.953122,111.752601 117.5625,112.320312 C118.171878,112.888024 118.476562,113.677078 118.476562,114.6875 C118.476562,115.182294 118.316408,115.661456 117.996094,116.125 C117.67578,116.588544 117.239586,116.934895 116.6875,117.164062 C117.312503,117.36198 117.795571,117.690102 118.136719,118.148438 C118.477866,118.606773 118.648438,119.166663 118.648438,119.828125 C118.648438,120.848963 118.315108,121.658851 117.648438,122.257812 C116.981767,122.856774 116.114589,123.15625 115.046875,123.15625 C113.979161,123.15625 113.11068,122.86719 112.441406,122.289062 C111.772132,121.710935 111.4375,120.947921 111.4375,120 L112.890625,120 C112.890625,120.598961 113.085936,121.078123 113.476562,121.4375 C113.867189,121.796877 114.390622,121.976562 115.046875,121.976562 C115.744795,121.976562 116.278644,121.794273 116.648438,121.429688 C117.018231,121.065102 117.203125,120.54167 117.203125,119.859375 C117.203125,119.197913 117.000002,118.690106 116.59375,118.335938 C116.187498,117.981769 115.601566,117.799479 114.835938,117.789062 L113.75,117.789062 L113.75,116.609375 Z M127.375,119.398438 L126.320312,119.398438 L126.320312,123 L124.867188,123 L124.867188,114.546875 L126.320312,114.546875 L126.320312,118.125 L127.265625,118.125 L130.109375,114.546875 L131.859375,114.546875 L128.515625,118.609375 L132.140625,123 L130.304688,123 L127.375,119.398438 Z M138.84375,115.742188 L134.945312,115.742188 L134.945312,123 L133.492188,123 L133.492188,114.546875 L138.84375,114.546875 L138.84375,115.742188 Z" id="до-13-кг" fill="#FFFFFF" fill-rule="nonzero"></path>
                <path d="M159,165.226562 C159,164.398433 159.162759,163.653649 159.488281,162.992188 C159.813804,162.330726 160.266924,161.820314 160.847656,161.460938 C161.428388,161.101561 162.091142,160.921875 162.835937,160.921875 C163.986985,160.921875 164.917965,161.320309 165.628906,162.117188 C166.339847,162.914066 166.695313,163.973952 166.695313,165.296875 L166.695313,165.398438 C166.695313,166.221358 166.537762,166.959632 166.222656,167.613281 C165.907551,168.26693 165.457034,168.77604 164.871094,169.140625 C164.285153,169.50521 163.611983,169.6875 162.851563,169.6875 C161.705723,169.6875 160.777347,169.289066 160.066406,168.492188 C159.355465,167.695309 159,166.640632 159,165.328125 L159,165.226562 Z M160.453125,165.398438 C160.453125,166.335942 160.670571,167.088539 161.105469,167.65625 C161.540367,168.223961 162.122392,168.507812 162.851563,168.507812 C163.585941,168.507812 164.169269,168.220055 164.601563,167.644531 C165.033856,167.069008 165.25,166.263026 165.25,165.226562 C165.25,164.299475 165.02995,163.54818 164.589844,162.972656 C164.149737,162.397133 163.565108,162.109375 162.835937,162.109375 C162.122392,162.109375 161.546877,162.393226 161.109375,162.960938 C160.671873,163.528649 160.453125,164.341141 160.453125,165.398438 Z M174.617187,162.25 L171.78125,162.25 L171.78125,169.53125 L170.335937,169.53125 L170.335937,162.25 L167.554687,162.25 L167.554687,161.078125 L174.617187,161.078125 L174.617187,162.25 Z M185.375,164.53125 C185.072915,164.890627 184.712242,165.179686 184.292969,165.398438 C183.873696,165.617189 183.414065,165.726562 182.914063,165.726562 C182.257809,165.726562 181.6862,165.565106 181.199219,165.242188 C180.712237,164.919269 180.335939,164.464847 180.070313,163.878906 C179.804686,163.292966 179.671875,162.645837 179.671875,161.9375 C179.671875,161.17708 179.816405,160.492191 180.105469,159.882812 C180.394533,159.273434 180.804685,158.807293 181.335937,158.484375 C181.86719,158.161457 182.486976,158 183.195313,158 C184.320318,158 185.207028,158.420569 185.855469,159.261719 C186.503909,160.102869 186.828125,161.249993 186.828125,162.703125 L186.828125,163.125 C186.828125,165.338553 186.390629,166.954422 185.515625,167.972656 C184.640621,168.990891 183.320321,169.513021 181.554687,169.539062 L181.273437,169.539062 L181.273437,168.320312 L181.578125,168.320312 C182.770839,168.299479 183.687497,167.988284 184.328125,167.386719 C184.968753,166.785153 185.317708,165.83334 185.375,164.53125 Z M183.148437,164.53125 C183.632815,164.53125 184.079425,164.382814 184.488281,164.085938 C184.897137,163.789061 185.195312,163.421877 185.382813,162.984375 L185.382813,162.40625 C185.382813,161.458329 185.177085,160.687503 184.765625,160.09375 C184.354165,159.499997 183.833336,159.203125 183.203125,159.203125 C182.567705,159.203125 182.057294,159.446612 181.671875,159.933594 C181.286456,160.420575 181.09375,161.062496 181.09375,161.859375 C181.09375,162.635421 181.279946,163.274737 181.652344,163.777344 C182.024741,164.27995 182.523434,164.53125 183.148437,164.53125 Z M192.859375,168.351562 L193.359375,167.734375 C193.921878,167.005205 194.242187,165.911466 194.320313,164.453125 L194.453125,161.078125 L199.898437,161.078125 L199.898437,168.351562 L200.984375,168.351562 L200.984375,172.015625 L199.539063,172.015625 L199.539063,169.53125 L193.640625,169.53125 L193.640625,172.015625 L192.195313,172.015625 L192.203125,168.351562 L192.859375,168.351562 Z M194.570313,168.351562 L198.453125,168.351562 L198.453125,162.414062 L195.851563,162.414062 L195.765625,164.429688 C195.677083,166.111988 195.278649,167.419266 194.570313,168.351562 Z M202.203125,165.226562 C202.203125,164.398433 202.365884,163.653649 202.691406,162.992188 C203.016929,162.330726 203.470049,161.820314 204.050781,161.460938 C204.631513,161.101561 205.294267,160.921875 206.039063,160.921875 C207.19011,160.921875 208.12109,161.320309 208.832031,162.117188 C209.542972,162.914066 209.898437,163.973952 209.898437,165.296875 L209.898437,165.398438 C209.898437,166.221358 209.740887,166.959632 209.425781,167.613281 C209.110676,168.26693 208.660159,168.77604 208.074219,169.140625 C207.488278,169.50521 206.815108,169.6875 206.054687,169.6875 C204.908848,169.6875 203.980472,169.289066 203.269531,168.492188 C202.55859,167.695309 202.203125,166.640632 202.203125,165.328125 L202.203125,165.226562 Z M203.65625,165.398438 C203.65625,166.335942 203.873696,167.088539 204.308594,167.65625 C204.743492,168.223961 205.325517,168.507812 206.054687,168.507812 C206.789066,168.507812 207.372394,168.220055 207.804687,167.644531 C208.236981,167.069008 208.453125,166.263026 208.453125,165.226562 C208.453125,164.299475 208.233075,163.54818 207.792969,162.972656 C207.352862,162.397133 206.768233,162.109375 206.039063,162.109375 C205.325517,162.109375 204.750002,162.393226 204.3125,162.960938 C203.874998,163.528649 203.65625,164.341141 203.65625,165.398438 Z M220.273437,169.53125 L218.820313,169.53125 L218.820313,159.898438 L215.90625,160.96875 L215.90625,159.65625 L220.046875,158.101562 L220.273437,158.101562 L220.273437,169.53125 Z M231.40625,161.125 C231.40625,161.692711 231.256512,162.197914 230.957031,162.640625 C230.657551,163.083336 230.252607,163.429686 229.742187,163.679688 C230.33594,163.934897 230.805988,164.307289 231.152344,164.796875 C231.4987,165.286461 231.671875,165.841143 231.671875,166.460938 C231.671875,167.445317 231.339847,168.229164 230.675781,168.8125 C230.011715,169.395836 229.138026,169.6875 228.054687,169.6875 C226.960932,169.6875 226.084639,169.394534 225.425781,168.808594 C224.766924,168.222653 224.4375,167.440109 224.4375,166.460938 C224.4375,165.846351 224.605467,165.291669 224.941406,164.796875 C225.277345,164.302081 225.742185,163.927085 226.335937,163.671875 C225.830727,163.421874 225.432293,163.075523 225.140625,162.632812 C224.848957,162.190102 224.703125,161.687503 224.703125,161.125 C224.703125,160.166662 225.010414,159.406253 225.625,158.84375 C226.239586,158.281247 227.049474,158 228.054687,158 C229.054692,158 229.863278,158.281247 230.480469,158.84375 C231.097659,159.406253 231.40625,160.166662 231.40625,161.125 Z M230.226563,166.429688 C230.226563,165.794268 230.024742,165.276044 229.621094,164.875 C229.217446,164.473956 228.690107,164.273438 228.039063,164.273438 C227.388018,164.273438 226.865887,164.471352 226.472656,164.867188 C226.079425,165.263023 225.882813,165.783851 225.882813,166.429688 C225.882813,167.075524 226.074217,167.583331 226.457031,167.953125 C226.839846,168.322919 227.372392,168.507812 228.054687,168.507812 C228.731774,168.507812 229.263019,168.321616 229.648437,167.949219 C230.033856,167.576821 230.226563,167.070316 230.226563,166.429688 Z M228.054687,159.1875 C227.486976,159.1875 227.027346,159.363279 226.675781,159.714844 C226.324217,160.066408 226.148437,160.544268 226.148437,161.148438 C226.148437,161.726565 226.321613,162.194009 226.667969,162.550781 C227.014325,162.907554 227.47656,163.085938 228.054687,163.085938 C228.632815,163.085938 229.09505,162.907554 229.441406,162.550781 C229.787762,162.194009 229.960937,161.726565 229.960937,161.148438 C229.960937,160.57031 229.781252,160.09896 229.421875,159.734375 C229.062498,159.36979 228.606774,159.1875 228.054687,159.1875 Z M240.234375,165.929688 L239.179687,165.929688 L239.179687,169.53125 L237.726563,169.53125 L237.726563,161.078125 L239.179687,161.078125 L239.179687,164.65625 L240.125,164.65625 L242.96875,161.078125 L244.71875,161.078125 L241.375,165.140625 L245,169.53125 L243.164063,169.53125 L240.234375,165.929688 Z M251.703125,162.273438 L247.804687,162.273438 L247.804687,169.53125 L246.351563,169.53125 L246.351563,161.078125 L251.703125,161.078125 L251.703125,162.273438 Z" id="от-9-до-18-кг" fill="#FFFFFF" fill-rule="nonzero"></path>
                <path d="M330,209.226562 C330,208.398433 330.162759,207.653649 330.488281,206.992188 C330.813804,206.330726 331.266924,205.820314 331.847656,205.460938 C332.428388,205.101561 333.091142,204.921875 333.835937,204.921875 C334.986985,204.921875 335.917965,205.320309 336.628906,206.117188 C337.339847,206.914066 337.695313,207.973952 337.695313,209.296875 L337.695313,209.398438 C337.695313,210.221358 337.537762,210.959632 337.222656,211.613281 C336.907551,212.26693 336.457034,212.77604 335.871094,213.140625 C335.285153,213.50521 334.611983,213.6875 333.851563,213.6875 C332.705723,213.6875 331.777347,213.289066 331.066406,212.492188 C330.355465,211.695309 330,210.640632 330,209.328125 L330,209.226562 Z M331.453125,209.398438 C331.453125,210.335942 331.670571,211.088539 332.105469,211.65625 C332.540367,212.223961 333.122392,212.507812 333.851563,212.507812 C334.585941,212.507812 335.169269,212.220055 335.601563,211.644531 C336.033856,211.069008 336.25,210.263026 336.25,209.226562 C336.25,208.299475 336.02995,207.54818 335.589844,206.972656 C335.149737,206.397133 334.565108,206.109375 333.835937,206.109375 C333.122392,206.109375 332.546877,206.393226 332.109375,206.960938 C331.671873,207.528649 331.453125,208.341141 331.453125,209.398438 Z M345.617187,206.25 L342.78125,206.25 L342.78125,213.53125 L341.335937,213.53125 L341.335937,206.25 L338.554687,206.25 L338.554687,205.078125 L345.617187,205.078125 L345.617187,206.25 Z M356.375,208.53125 C356.072915,208.890627 355.712242,209.179686 355.292969,209.398438 C354.873696,209.617189 354.414065,209.726562 353.914063,209.726562 C353.257809,209.726562 352.6862,209.565106 352.199219,209.242188 C351.712237,208.919269 351.335939,208.464847 351.070313,207.878906 C350.804686,207.292966 350.671875,206.645837 350.671875,205.9375 C350.671875,205.17708 350.816405,204.492191 351.105469,203.882812 C351.394533,203.273434 351.804685,202.807293 352.335937,202.484375 C352.86719,202.161457 353.486976,202 354.195313,202 C355.320318,202 356.207028,202.420569 356.855469,203.261719 C357.503909,204.102869 357.828125,205.249993 357.828125,206.703125 L357.828125,207.125 C357.828125,209.338553 357.390629,210.954422 356.515625,211.972656 C355.640621,212.990891 354.320321,213.513021 352.554687,213.539062 L352.273437,213.539062 L352.273437,212.320312 L352.578125,212.320312 C353.770839,212.299479 354.687497,211.988284 355.328125,211.386719 C355.968753,210.785153 356.317708,209.83334 356.375,208.53125 Z M354.148437,208.53125 C354.632815,208.53125 355.079425,208.382814 355.488281,208.085938 C355.897137,207.789061 356.195312,207.421877 356.382813,206.984375 L356.382813,206.40625 C356.382813,205.458329 356.177085,204.687503 355.765625,204.09375 C355.354165,203.499997 354.833336,203.203125 354.203125,203.203125 C353.567705,203.203125 353.057294,203.446612 352.671875,203.933594 C352.286456,204.420575 352.09375,205.062496 352.09375,205.859375 C352.09375,206.635421 352.279946,207.274737 352.652344,207.777344 C353.024741,208.27995 353.523434,208.53125 354.148437,208.53125 Z M363.859375,212.351562 L364.359375,211.734375 C364.921878,211.005205 365.242187,209.911466 365.320313,208.453125 L365.453125,205.078125 L370.898437,205.078125 L370.898437,212.351562 L371.984375,212.351562 L371.984375,216.015625 L370.539063,216.015625 L370.539063,213.53125 L364.640625,213.53125 L364.640625,216.015625 L363.195313,216.015625 L363.203125,212.351562 L363.859375,212.351562 Z M365.570313,212.351562 L369.453125,212.351562 L369.453125,206.414062 L366.851563,206.414062 L366.765625,208.429688 C366.677083,210.111988 366.278649,211.419266 365.570313,212.351562 Z M373.203125,209.226562 C373.203125,208.398433 373.365884,207.653649 373.691406,206.992188 C374.016929,206.330726 374.470049,205.820314 375.050781,205.460938 C375.631513,205.101561 376.294267,204.921875 377.039063,204.921875 C378.19011,204.921875 379.12109,205.320309 379.832031,206.117188 C380.542972,206.914066 380.898437,207.973952 380.898437,209.296875 L380.898437,209.398438 C380.898437,210.221358 380.740887,210.959632 380.425781,211.613281 C380.110676,212.26693 379.660159,212.77604 379.074219,213.140625 C378.488278,213.50521 377.815108,213.6875 377.054687,213.6875 C375.908848,213.6875 374.980472,213.289066 374.269531,212.492188 C373.55859,211.695309 373.203125,210.640632 373.203125,209.328125 L373.203125,209.226562 Z M374.65625,209.398438 C374.65625,210.335942 374.873696,211.088539 375.308594,211.65625 C375.743492,212.223961 376.325517,212.507812 377.054687,212.507812 C377.789066,212.507812 378.372394,212.220055 378.804687,211.644531 C379.236981,211.069008 379.453125,210.263026 379.453125,209.226562 C379.453125,208.299475 379.233075,207.54818 378.792969,206.972656 C378.352862,206.397133 377.768233,206.109375 377.039063,206.109375 C376.325517,206.109375 375.750002,206.393226 375.3125,206.960938 C374.874998,207.528649 374.65625,208.341141 374.65625,209.398438 Z M388.625,207.140625 L389.710937,207.140625 C390.393233,207.130208 390.929686,206.950523 391.320313,206.601562 C391.710939,206.252602 391.90625,205.781253 391.90625,205.1875 C391.90625,203.85416 391.242194,203.1875 389.914063,203.1875 C389.289059,203.1875 388.790366,203.365884 388.417969,203.722656 C388.045571,204.079429 387.859375,204.55208 387.859375,205.140625 L386.414063,205.140625 C386.414063,204.239579 386.743486,203.490888 387.402344,202.894531 C388.061201,202.298174 388.898432,202 389.914063,202 C390.986985,202 391.828122,202.283851 392.4375,202.851562 C393.046878,203.419274 393.351563,204.208328 393.351563,205.21875 C393.351563,205.713544 393.191408,206.192706 392.871094,206.65625 C392.55078,207.119794 392.114586,207.466145 391.5625,207.695312 C392.187503,207.89323 392.670571,208.221352 393.011719,208.679688 C393.352866,209.138023 393.523437,209.697913 393.523437,210.359375 C393.523437,211.380213 393.190107,212.190101 392.523437,212.789062 C391.856768,213.388024 390.989589,213.6875 389.921875,213.6875 C388.854161,213.6875 387.98568,213.39844 387.316406,212.820312 C386.647132,212.242185 386.3125,211.479171 386.3125,210.53125 L387.765625,210.53125 C387.765625,211.130211 387.960936,211.609373 388.351563,211.96875 C388.742189,212.328127 389.265622,212.507812 389.921875,212.507812 C390.619795,212.507812 391.153644,212.325523 391.523437,211.960938 C391.893231,211.596352 392.078125,211.07292 392.078125,210.390625 C392.078125,209.729163 391.875002,209.221356 391.46875,208.867188 C391.062498,208.513019 390.476566,208.330729 389.710937,208.320312 L388.625,208.320312 L388.625,207.140625 Z M401.179687,202.148438 L401.179687,203.375 L400.914063,203.375 C399.789057,203.395833 398.893232,203.729163 398.226563,204.375 C397.559893,205.020837 397.17448,205.929682 397.070313,207.101562 C397.669274,206.414059 398.486974,206.070312 399.523437,206.070312 C400.513026,206.070312 401.303382,206.419267 401.894531,207.117188 C402.48568,207.815108 402.78125,208.71614 402.78125,209.820312 C402.78125,210.992193 402.462243,211.929684 401.824219,212.632812 C401.186195,213.335941 400.330735,213.6875 399.257813,213.6875 C398.169265,213.6875 397.286462,213.269535 396.609375,212.433594 C395.932288,211.597652 395.59375,210.52084 395.59375,209.203125 L395.59375,208.648438 C395.59375,206.554677 396.04036,204.954433 396.933594,203.847656 C397.826827,202.74088 399.156241,202.174479 400.921875,202.148438 L401.179687,202.148438 Z M399.28125,207.273438 C398.786456,207.273438 398.330731,207.421874 397.914063,207.71875 C397.497394,208.015626 397.208334,208.388019 397.046875,208.835938 L397.046875,209.367188 C397.046875,210.304692 397.25781,211.059893 397.679687,211.632812 C398.101565,212.205732 398.627601,212.492188 399.257813,212.492188 C399.908857,212.492188 400.420571,212.252607 400.792969,211.773438 C401.165366,211.294268 401.351563,210.666671 401.351563,209.890625 C401.351563,209.109371 401.162762,208.477867 400.785156,207.996094 C400.40755,207.514321 399.906253,207.273438 399.28125,207.273438 Z M411.234375,209.929688 L410.179687,209.929688 L410.179687,213.53125 L408.726563,213.53125 L408.726563,205.078125 L410.179687,205.078125 L410.179687,208.65625 L411.125,208.65625 L413.96875,205.078125 L415.71875,205.078125 L412.375,209.140625 L416,213.53125 L414.164063,213.53125 L411.234375,209.929688 Z M422.703125,206.273438 L418.804687,206.273438 L418.804687,213.53125 L417.351563,213.53125 L417.351563,205.078125 L422.703125,205.078125 L422.703125,206.273438 Z" id="от-9-до-36-кг" fill="#FFFFFF" fill-rule="nonzero"></path>
                <path d="M328.15625,253.695312 C328.15625,252.867183 328.319009,252.122399 328.644531,251.460938 C328.970054,250.799476 329.423174,250.289064 330.003906,249.929688 C330.584638,249.570311 331.247392,249.390625 331.992188,249.390625 C333.143235,249.390625 334.074215,249.789059 334.785156,250.585938 C335.496097,251.382816 335.851562,252.442702 335.851562,253.765625 L335.851562,253.867188 C335.851562,254.690108 335.694012,255.428382 335.378906,256.082031 C335.063801,256.73568 334.613284,257.24479 334.027344,257.609375 C333.441403,257.97396 332.768233,258.15625 332.007812,258.15625 C330.861973,258.15625 329.933597,257.757816 329.222656,256.960938 C328.511715,256.164059 328.15625,255.109382 328.15625,253.796875 L328.15625,253.695312 Z M329.609375,253.867188 C329.609375,254.804692 329.826821,255.557289 330.261719,256.125 C330.696617,256.692711 331.278642,256.976562 332.007812,256.976562 C332.742191,256.976562 333.325519,256.688805 333.757812,256.113281 C334.190106,255.537758 334.40625,254.731776 334.40625,253.695312 C334.40625,252.768225 334.1862,252.01693 333.746094,251.441406 C333.305987,250.865883 332.721358,250.578125 331.992188,250.578125 C331.278642,250.578125 330.703127,250.861976 330.265625,251.429688 C329.828123,251.997399 329.609375,252.809891 329.609375,253.867188 Z M343.773438,250.71875 L340.9375,250.71875 L340.9375,258 L339.492188,258 L339.492188,250.71875 L336.710938,250.71875 L336.710938,249.546875 L343.773438,249.546875 L343.773438,250.71875 Z M353.742188,258 L352.289062,258 L352.289062,248.367188 L349.375,249.4375 L349.375,248.125 L353.515625,246.570312 L353.742188,246.570312 L353.742188,258 Z M358.640625,252.296875 L359.21875,246.625 L365.046875,246.625 L365.046875,247.960938 L360.445312,247.960938 L360.101562,251.0625 C360.658857,250.734373 361.291663,250.570312 362,250.570312 C363.036464,250.570312 363.859372,250.912757 364.46875,251.597656 C365.078128,252.282556 365.382812,253.208327 365.382812,254.375 C365.382812,255.546881 365.066409,256.470049 364.433594,257.144531 C363.800778,257.819014 362.916672,258.15625 361.78125,258.15625 C360.776037,258.15625 359.955732,257.877607 359.320312,257.320312 C358.684893,256.763018 358.322917,255.992192 358.234375,255.007812 L359.601562,255.007812 C359.690105,255.658857 359.921873,256.149738 360.296875,256.480469 C360.671877,256.8112 361.166664,256.976562 361.78125,256.976562 C362.453128,256.976562 362.980467,256.747398 363.363281,256.289062 C363.746096,255.830727 363.9375,255.197921 363.9375,254.390625 C363.9375,253.630205 363.730471,253.019534 363.316406,252.558594 C362.902342,252.097654 362.351566,251.867188 361.664062,251.867188 C361.033851,251.867188 360.539064,252.005207 360.179688,252.28125 L359.796875,252.59375 L358.640625,252.296875 Z M371,256.820312 L371.5,256.203125 C372.062503,255.473955 372.382812,254.380216 372.460938,252.921875 L372.59375,249.546875 L378.039062,249.546875 L378.039062,256.820312 L379.125,256.820312 L379.125,260.484375 L377.679688,260.484375 L377.679688,258 L371.78125,258 L371.78125,260.484375 L370.335938,260.484375 L370.34375,256.820312 L371,256.820312 Z M372.710938,256.820312 L376.59375,256.820312 L376.59375,250.882812 L373.992188,250.882812 L373.90625,252.898438 C373.817708,254.580738 373.419274,255.888016 372.710938,256.820312 Z M380.34375,253.695312 C380.34375,252.867183 380.506509,252.122399 380.832031,251.460938 C381.157554,250.799476 381.610674,250.289064 382.191406,249.929688 C382.772138,249.570311 383.434892,249.390625 384.179688,249.390625 C385.330735,249.390625 386.261715,249.789059 386.972656,250.585938 C387.683597,251.382816 388.039062,252.442702 388.039062,253.765625 L388.039062,253.867188 C388.039062,254.690108 387.881512,255.428382 387.566406,256.082031 C387.251301,256.73568 386.800784,257.24479 386.214844,257.609375 C385.628903,257.97396 384.955733,258.15625 384.195312,258.15625 C383.049473,258.15625 382.121097,257.757816 381.410156,256.960938 C380.699215,256.164059 380.34375,255.109382 380.34375,253.796875 L380.34375,253.695312 Z M381.796875,253.867188 C381.796875,254.804692 382.014321,255.557289 382.449219,256.125 C382.884117,256.692711 383.466142,256.976562 384.195312,256.976562 C384.929691,256.976562 385.513019,256.688805 385.945312,256.113281 C386.377606,255.537758 386.59375,254.731776 386.59375,253.695312 C386.59375,252.768225 386.3737,252.01693 385.933594,251.441406 C385.493487,250.865883 384.908858,250.578125 384.179688,250.578125 C383.466142,250.578125 382.890627,250.861976 382.453125,251.429688 C382.015623,251.997399 381.796875,252.809891 381.796875,253.867188 Z M395.765625,251.609375 L396.851562,251.609375 C397.533858,251.598958 398.070311,251.419273 398.460938,251.070312 C398.851564,250.721352 399.046875,250.250003 399.046875,249.65625 C399.046875,248.32291 398.382819,247.65625 397.054688,247.65625 C396.429684,247.65625 395.930991,247.834634 395.558594,248.191406 C395.186196,248.548179 395,249.02083 395,249.609375 L393.554688,249.609375 C393.554688,248.708329 393.884111,247.959638 394.542969,247.363281 C395.201826,246.766924 396.039057,246.46875 397.054688,246.46875 C398.12761,246.46875 398.968747,246.752601 399.578125,247.320312 C400.187503,247.888024 400.492188,248.677078 400.492188,249.6875 C400.492188,250.182294 400.332033,250.661456 400.011719,251.125 C399.691405,251.588544 399.255211,251.934895 398.703125,252.164062 C399.328128,252.36198 399.811196,252.690102 400.152344,253.148438 C400.493491,253.606773 400.664062,254.166663 400.664062,254.828125 C400.664062,255.848963 400.330732,256.658851 399.664062,257.257812 C398.997393,257.856774 398.130214,258.15625 397.0625,258.15625 C395.994786,258.15625 395.126305,257.86719 394.457031,257.289062 C393.787757,256.710935 393.453125,255.947921 393.453125,255 L394.90625,255 C394.90625,255.598961 395.101561,256.078123 395.492188,256.4375 C395.882814,256.796877 396.406247,256.976562 397.0625,256.976562 C397.76042,256.976562 398.294269,256.794273 398.664062,256.429688 C399.033856,256.065102 399.21875,255.54167 399.21875,254.859375 C399.21875,254.197913 399.015627,253.690106 398.609375,253.335938 C398.203123,252.981769 397.617191,252.799479 396.851562,252.789062 L395.765625,252.789062 L395.765625,251.609375 Z M408.320312,246.617188 L408.320312,247.84375 L408.054688,247.84375 C406.929682,247.864583 406.033858,248.197913 405.367188,248.84375 C404.700518,249.489587 404.315105,250.398432 404.210938,251.570312 C404.809899,250.882809 405.627599,250.539062 406.664062,250.539062 C407.653651,250.539062 408.444007,250.888017 409.035156,251.585938 C409.626305,252.283858 409.921875,253.18489 409.921875,254.289062 C409.921875,255.460943 409.602868,256.398434 408.964844,257.101562 C408.32682,257.804691 407.47136,258.15625 406.398438,258.15625 C405.30989,258.15625 404.427087,257.738285 403.75,256.902344 C403.072913,256.066402 402.734375,254.98959 402.734375,253.671875 L402.734375,253.117188 C402.734375,251.023427 403.180985,249.423183 404.074219,248.316406 C404.967452,247.20963 406.296866,246.643229 408.0625,246.617188 L408.320312,246.617188 Z M406.421875,251.742188 C405.927081,251.742188 405.471356,251.890624 405.054688,252.1875 C404.638019,252.484376 404.348959,252.856769 404.1875,253.304688 L404.1875,253.835938 C404.1875,254.773442 404.398435,255.528643 404.820312,256.101562 C405.24219,256.674482 405.768226,256.960938 406.398438,256.960938 C407.049482,256.960938 407.561196,256.721357 407.933594,256.242188 C408.305991,255.763018 408.492188,255.135421 408.492188,254.359375 C408.492188,253.578121 408.303387,252.946617 407.925781,252.464844 C407.548175,251.983071 407.046878,251.742188 406.421875,251.742188 Z M418.375,254.398438 L417.320312,254.398438 L417.320312,258 L415.867188,258 L415.867188,249.546875 L417.320312,249.546875 L417.320312,253.125 L418.265625,253.125 L421.109375,249.546875 L422.859375,249.546875 L419.515625,253.609375 L423.140625,258 L421.304688,258 L418.375,254.398438 Z M429.84375,250.742188 L425.945312,250.742188 L425.945312,258 L424.492188,258 L424.492188,249.546875 L429.84375,249.546875 L429.84375,250.742188 Z" id="от-15-до-36-кг" fill="#FFFFFF" fill-rule="nonzero"></path>
                <path d="M114.97998,82.1860352 L114.97998,78.8569336 L115.88916,78.8569336 C115.984864,78.6381825 116.07373,78.4160168 116.155762,78.1904297 C116.237793,77.9648426 116.314127,77.7096368 116.384766,77.4248047 C116.455404,77.1399725 116.521484,76.8129901 116.583008,76.4438477 C116.644532,76.0747052 116.702636,75.6372096 116.757324,75.1313477 C116.821127,74.5981419 116.871256,74.0729193 116.907715,73.5556641 C116.944173,73.0384089 116.972656,72.5542015 116.993164,72.1030273 C117.013672,71.6518532 117.027344,71.2439797 117.03418,70.8793945 C117.041016,70.5148094 117.046712,70.2163098 117.05127,69.9838867 L123.367676,69.9838867 L123.367676,78.8569336 L124.502441,78.8569336 L124.502441,82.1860352 L123.244629,82.1860352 L123.244629,80.0327148 L116.237793,80.0327148 L116.237793,82.1860352 L114.97998,82.1860352 Z M118.309082,71.159668 C118.309082,71.8113639 118.282878,72.4607715 118.230469,73.1079102 C118.17806,73.7550488 118.115397,74.406735 118.04248,75.0629883 C117.99235,75.5825221 117.941081,76.0234357 117.888672,76.3857422 C117.836263,76.7480487 117.781576,77.0693345 117.724609,77.3496094 C117.667643,77.6298842 117.603841,77.8873686 117.533203,78.1220703 C117.462565,78.356772 117.381674,78.601724 117.290527,78.8569336 L121.986816,78.8569336 L121.986816,71.159668 L118.309082,71.159668 Z M130.57959,76.3618164 C130.57959,75.9562154 130.534017,75.5836606 130.442871,75.2441406 C130.351725,74.9046207 130.215007,74.6118176 130.032715,74.3657227 C129.850422,74.1196277 129.625978,73.927084 129.359375,73.7880859 C129.092772,73.6490878 128.784019,73.5795898 128.433105,73.5795898 C128.082192,73.5795898 127.774578,73.6490878 127.510254,73.7880859 C127.24593,73.927084 127.022625,74.1196277 126.840332,74.3657227 C126.658039,74.6118176 126.521322,74.9046207 126.430176,75.2441406 C126.339029,75.5836606 126.293457,75.9562154 126.293457,76.3618164 C126.293457,76.7719747 126.339029,77.1490868 126.430176,77.4931641 C126.521322,77.8372413 126.658039,78.132323 126.840332,78.378418 C127.022625,78.6245129 127.24593,78.8170566 127.510254,78.9560547 C127.774578,79.0950528 128.082192,79.1645508 128.433105,79.1645508 C128.784019,79.1645508 129.092772,79.0950528 129.359375,78.9560547 C129.625978,78.8170566 129.850422,78.6245129 130.032715,78.378418 C130.215007,78.132323 130.351725,77.8372413 130.442871,77.4931641 C130.534017,77.1490868 130.57959,76.7719747 130.57959,76.3618164 Z M131.837402,76.3618164 C131.837402,76.9633819 131.759929,77.5045549 131.60498,77.9853516 C131.450032,78.4661482 131.226727,78.8751611 130.935059,79.2124023 C130.64339,79.5496436 130.286786,79.8082673 129.865234,79.9882812 C129.443683,80.1682952 128.966311,80.2583008 128.433105,80.2583008 C127.8999,80.2583008 127.423667,80.1682952 127.004395,79.9882812 C126.585122,79.8082673 126.229656,79.5496436 125.937988,79.2124023 C125.64632,78.8751611 125.423015,78.4661482 125.268066,77.9853516 C125.113118,77.5045549 125.035645,76.9633819 125.035645,76.3618164 C125.035645,75.7693655 125.113118,75.2338891 125.268066,74.7553711 C125.423015,74.2768531 125.64632,73.8689796 125.937988,73.5317383 C126.229656,73.194497 126.585122,72.9358733 127.004395,72.7558594 C127.423667,72.5758455 127.8999,72.4858398 128.433105,72.4858398 C128.966311,72.4858398 129.443683,72.5758455 129.865234,72.7558594 C130.286786,72.9358733 130.64339,73.194497 130.935059,73.5317383 C131.226727,73.8689796 131.450032,74.2768531 131.60498,74.7553711 C131.759929,75.2338891 131.837402,75.7693655 131.837402,76.3618164 Z M137.559082,73.1010742 L137.559082,72.1577148 C138.447758,72.0711259 139.067544,71.9264333 139.418457,71.7236328 C139.76937,71.5208323 140.031412,71.0411822 140.20459,70.284668 L141.175293,70.284668 L141.175293,80.0327148 L139.862793,80.0327148 L139.862793,73.1010742 L137.559082,73.1010742 Z M150.540527,71.809082 C150.97803,72.6157267 151.196777,73.7208589 151.196777,75.1245117 C151.196777,76.4552475 150.998537,77.5558225 150.602051,78.4262695 C150.027829,79.6749737 149.089036,80.2993164 147.785645,80.2993164 C146.609857,80.2993164 145.734866,79.7889048 145.160645,78.7680664 C144.682127,77.9158486 144.442871,76.7719798 144.442871,75.3364258 C144.442871,74.2244411 144.586424,73.269698 144.873535,72.472168 C145.411298,70.9864835 146.38427,70.2436523 147.79248,70.2436523 C149.059414,70.2436523 149.97542,70.765457 150.540527,71.809082 Z M149.303223,78.3305664 C149.68148,77.7654594 149.870605,76.7127356 149.870605,75.1723633 C149.870605,74.0603786 149.733888,73.1455114 149.460449,72.4277344 C149.18701,71.7099573 148.656091,71.3510742 147.867676,71.3510742 C147.143063,71.3510742 146.613283,71.6917284 146.27832,72.3730469 C145.943358,73.0543654 145.775879,74.0580988 145.775879,75.3842773 C145.775879,76.3823292 145.882974,77.1844045 146.097168,77.7905273 C146.425295,78.7156622 146.985836,79.1782227 147.778809,79.1782227 C148.416833,79.1782227 148.924966,78.8956734 149.303223,78.3305664 Z M153.520996,77.5375977 C153.603028,78.2394241 153.928871,78.7247708 154.498535,78.9936523 C154.790203,79.1303718 155.127439,79.1987305 155.510254,79.1987305 C156.239424,79.1987305 156.779458,78.9663109 157.130371,78.5014648 C157.481284,78.0366188 157.656738,77.52165 157.656738,76.956543 C157.656738,76.2729458 157.448244,75.7443053 157.03125,75.3706055 C156.614256,74.9969057 156.114098,74.8100586 155.530762,74.8100586 C155.106931,74.8100586 154.743491,74.892089 154.44043,75.0561523 C154.137368,75.2202157 153.878745,75.448078 153.664551,75.7397461 L152.598145,75.6782227 L153.343262,70.4077148 L158.429199,70.4077148 L158.429199,71.597168 L154.266113,71.597168 L153.849121,74.3178711 C154.076987,74.1446931 154.293456,74.0148116 154.498535,73.9282227 C154.86312,73.7778313 155.284666,73.7026367 155.763184,73.7026367 C156.660975,73.7026367 157.422035,73.9920218 158.046387,74.5708008 C158.670739,75.1495797 158.98291,75.8832963 158.98291,76.7719727 C158.98291,77.6971075 158.696943,78.5128545 158.125,79.2192383 C157.553057,79.925622 156.640469,80.2788086 155.387207,80.2788086 C154.589677,80.2788086 153.884443,80.0543642 153.271484,79.6054687 C152.658526,79.1565733 152.315593,78.4672898 152.242676,77.5375977 L153.520996,77.5375977 Z M170.145996,77.4555664 C170.127767,77.6333017 170.092448,77.8269846 170.040039,78.0366211 C169.98763,78.2462576 169.911296,78.4547516 169.811035,78.6621094 C169.710774,78.8694672 169.582032,79.0688467 169.424805,79.2602539 C169.267577,79.4516611 169.076173,79.6214185 168.850586,79.7695312 C168.624999,79.917644 168.359539,80.0361324 168.054199,80.125 C167.748859,80.2138676 167.40023,80.2583008 167.008301,80.2583008 C166.794107,80.2583008 166.568523,80.2320966 166.331543,80.1796875 C166.094563,80.1272784 165.863282,80.0395514 165.637695,79.9165039 C165.412108,79.7934564 165.197918,79.6350921 164.995117,79.4414062 C164.792317,79.2477204 164.614584,79.0073257 164.461914,78.7202148 C164.309244,78.433104 164.187338,78.0992858 164.096191,77.71875 C164.005045,77.3382142 163.959473,76.9018579 163.959473,76.409668 C163.959473,75.8035451 164.04606,75.2578149 164.219238,74.7724609 C164.392416,74.2871069 164.623696,73.8758155 164.913086,73.5385742 C165.202475,73.2013329 165.539712,72.9415699 165.924805,72.7592773 C166.309898,72.5769848 166.714353,72.4858398 167.138184,72.4858398 C167.520998,72.4858398 167.859374,72.5268551 168.15332,72.6088867 C168.447267,72.6909184 168.703612,72.8002923 168.922363,72.9370117 C169.141114,73.0737312 169.325683,73.2320955 169.476074,73.4121094 C169.626466,73.5921233 169.748372,73.781249 169.841797,73.9794922 C169.935222,74.1777354 170.005859,74.3793935 170.053711,74.5844727 C170.101563,74.7895518 170.132324,74.9855134 170.145996,75.1723633 L168.970215,75.1723633 C168.906412,74.675616 168.734376,74.2859715 168.454102,74.003418 C168.173827,73.7208645 167.780764,73.5795898 167.274902,73.5795898 C166.928546,73.5795898 166.626629,73.6502272 166.369141,73.7915039 C166.111652,73.9327807 165.897462,74.1298815 165.726562,74.3828125 C165.555663,74.6357435 165.42806,74.9410789 165.34375,75.2988281 C165.25944,75.6565773 165.217285,76.0496398 165.217285,76.4780273 C165.217285,76.9611027 165.262858,77.3769514 165.354004,77.7255859 C165.44515,78.0742205 165.575032,78.361327 165.743652,78.5869141 C165.912273,78.8125011 166.118488,78.9788406 166.362305,79.0859375 C166.606121,79.1930344 166.882974,79.246582 167.192871,79.246582 C167.411622,79.246582 167.618977,79.2067061 167.814941,79.1269531 C168.010906,79.0472001 168.18636,78.9309903 168.341309,78.7783203 C168.496257,78.6256503 168.628417,78.4376639 168.737793,78.2143555 C168.847169,77.9910471 168.924642,77.7381199 168.970215,77.4555664 L170.145996,77.4555664 Z M171.390137,72.7114258 L173.222168,72.7114258 L175.156738,78.7133789 L175.184082,78.7133789 L177.145996,72.7114258 L178.868652,72.7114258 L178.868652,80.0327148 L177.692871,80.0327148 L177.692871,74.1401367 L177.665527,74.1401367 L175.730957,80.0327148 L174.527832,80.0327148 L172.593262,74.1401367 L172.565918,74.1401367 L172.565918,80.0327148 L171.390137,80.0327148 L171.390137,72.7114258 Z" id="До-105-см" fill="#FFFFFF"></path>
            </g>
        </g>
    </g>
</svg>