<svg xmlns="http://www.w3.org/2000/svg" width="106" height="110" viewBox="0 0 106 110">
  <metadata><?xpacket begin="﻿" id="W5M0MpCehiHzreSzNTczkc9d"?>
<x:xmpmeta xmlns:x="adobe:ns:meta/" x:xmptk="Adobe XMP Core 5.6-c138 79.159824, 2016/09/14-01:09:01        ">
   <rdf:RDF xmlns:rdf="http://www.w3.org/1999/02/22-rdf-syntax-ns#">
      <rdf:Description rdf:about=""/>
   </rdf:RDF>
</x:xmpmeta>
                                                                                                    
                                                                                                    
                                                                                                    
                                                                                                    
                                                                                                    
                                                                                                    
                                                                                                    
                                                                                                    
                                                                                                    
                                                                                                    
                                                                                                    
                                                                                                    
                                                                                                    
                                                                                                    
                                                                                                    
                                                                                                    
                                                                                                    
                                                                                                    
                                                                                                    
                                                                                                    
                           
<?xpacket end="w"?></metadata>
<defs>
    <style>
      .cls-1 {
        fill: #fff;
        fill-rule: evenodd;
      }
    </style>
  </defs>
  <path class="cls-1" d="M2313.26,12799.7l2.93-2.9a16.864,16.864,0,0,0-23.72,0l2.94,2.9A12.675,12.675,0,0,1,2313.26,12799.7Zm14.54-2.9,2.94,2.9a12.675,12.675,0,0,1,17.85,0l2.94-2.9A16.876,16.876,0,0,0,2327.8,12796.8Zm-26.24,14.5-5.49-4.9,2.12,7c5.6,18.7,17.96,20.2,21.86,20.2h1c22.51,0,22.77-20.6,22.77-20.8v-4.6l-3.47,3.1C2321.24,12828.5,2302.36,12812,2301.56,12811.3Zm19.4,18.2h-0.29c-0.11,0-9.9,1.2-16.12-11.2,7.29,4.1,20.55,8.8,34.28-.5C2337.31,12822.7,2333.02,12829.5,2320.96,12829.5Zm54.04-31.2c0-4.3-1.16-7.5-3.44-9.4a7.423,7.423,0,0,0-5.23-1.8,45.8,45.8,0,0,0-39.06-34.2,6.807,6.807,0,0,1,3.78-4c3.41-1.1,7.51,1.3,7.55,1.3l2.14-3.6c-0.24-.1-5.75-3.4-11-1.6-2.94,1-5.15,3.3-6.55,6.8l2.29,0.9a23.125,23.125,0,0,0-2.64-.1c-0.81-11.2,6.87-14.6,7.21-14.7l-1.55-3.9c-0.11,0-10.18,4.3-9.86,17.6-2.82-7.4-11.64-9.4-16.39-9.4v4.1c0.11,0,10,.1,12.53,6.8a45.854,45.854,0,0,0-37.11,34,7.423,7.423,0,0,0-5.23,1.8c-2.28,1.9-3.44,5.1-3.44,9.4,0,4.1,1.16,7,3.46,8.8a8.3,8.3,0,0,0,5.05,1.7,45.716,45.716,0,0,0,88.98,0,8.284,8.284,0,0,0,5.05-1.7C2373.84,12805.3,2375,12802.4,2375,12798.3Zm-100,5.5c-1.22-.9-1.84-2.8-1.84-5.5,0-3,.66-5.1,1.91-6.2a3.53,3.53,0,0,1,1.74-.8,45.008,45.008,0,0,0-.09,13.3A3.19,3.19,0,0,1,2275,12803.8Zm47,36a41.55,41.55,0,1,1,41.57-41.5A41.572,41.572,0,0,1,2322,12839.8Zm47-36a3.19,3.19,0,0,1-1.72.8,45.008,45.008,0,0,0-.09-13.3,3.454,3.454,0,0,1,1.7.8c1.28,1,1.95,3.2,1.95,6.2C2370.84,12801,2370.22,12802.9,2369,12803.8Z" transform="translate(-2269 -12734)"/>
</svg>
