<svg xmlns="http://www.w3.org/2000/svg" width="100" height="100" viewBox="0 0 100 100">
  <metadata><?xpacket begin="﻿" id="W5M0MpCehiHzreSzNTczkc9d"?>
<x:xmpmeta xmlns:x="adobe:ns:meta/" x:xmptk="Adobe XMP Core 5.6-c138 79.159824, 2016/09/14-01:09:01        ">
   <rdf:RDF xmlns:rdf="http://www.w3.org/1999/02/22-rdf-syntax-ns#">
      <rdf:Description rdf:about=""/>
   </rdf:RDF>
</x:xmpmeta>
                                                                                                    
                                                                                                    
                                                                                                    
                                                                                                    
                                                                                                    
                                                                                                    
                                                                                                    
                                                                                                    
                                                                                                    
                                                                                                    
                                                                                                    
                                                                                                    
                                                                                                    
                                                                                                    
                                                                                                    
                                                                                                    
                                                                                                    
                                                                                                    
                                                                                                    
                                                                                                    
                           
<?xpacket end="w"?></metadata>
<defs>
    <style>
      .cls-1 {
        fill: #fff;
        fill-rule: evenodd;
      }
    </style>
  </defs>
  <path class="cls-1" d="M1898,11415a50,50,0,1,0,50,50A50.037,50.037,0,0,0,1898,11415Zm0,94.8a44.8,44.8,0,1,1,44.83-44.8A44.867,44.867,0,0,1,1898,11509.8Zm-19.83-27.1a19.83,19.83,0,0,0,39.66,0v-1.8h-39.66v1.8Zm36.12,1.7a16.376,16.376,0,0,1-32.58,0h32.58Zm-32.67-32.3a6.035,6.035,0,1,0-6.03,6A6.046,6.046,0,0,0,1881.62,11452.1Zm38.79-6.1a6.05,6.05,0,1,0,6.04,6.1A6.046,6.046,0,0,0,1920.41,11446Z" transform="translate(-1848 -11415)"/>
</svg>
