<svg xmlns="http://www.w3.org/2000/svg" width="203.596" height="1154" viewBox="0 0 203.596 1154">
  <metadata><?xpacket begin="﻿" id="W5M0MpCehiHzreSzNTczkc9d"?>
<x:xmpmeta xmlns:x="adobe:ns:meta/" x:xmptk="Adobe XMP Core 5.6-c138 79.159824, 2016/09/14-01:09:01        ">
   <rdf:RDF xmlns:rdf="http://www.w3.org/1999/02/22-rdf-syntax-ns#">
      <rdf:Description rdf:about=""/>
   </rdf:RDF>
</x:xmpmeta>
                                                                                                    
                                                                                                    
                                                                                                    
                                                                                                    
                                                                                                    
                                                                                                    
                                                                                                    
                                                                                                    
                                                                                                    
                                                                                                    
                                                                                                    
                                                                                                    
                                                                                                    
                                                                                                    
                                                                                                    
                                                                                                    
                                                                                                    
                                                                                                    
                                                                                                    
                                                                                                    
                           
<?xpacket end="w"?></metadata>
<defs>
    <style>
      .cls-1 {
        fill: #fff;
        fill-rule: evenodd;
        opacity: 0.5;
      }
    </style>
  </defs>
  <path class="cls-1" d="M939.276,5111c8.082,4.01,14.863,10.24,21.041,16.79a139.421,139.421,0,0,1,16.156,21.78,132.732,132.732,0,0,1,6.669,11.83c1.948,4.08,4.3,8.01,5.908,12.24l5.267,12.54,4.433,12.85c1.58,4.26,2.81,8.62,3.97,13l3.61,13.11c1.88,8.86,3.93,17.7,5.56,26.61,1.31,8.96,2.83,17.91,3.9,26.9l2.64,27.03-2.59-3.47a159.28,159.28,0,0,1,30.09,15.9,170.757,170.757,0,0,1,26.26,21.47,149.833,149.833,0,0,1,36.33,57.41c7.75,21.6,9.48,45.19,7.89,67.5l-1.54,66.24-3.54,132.45-1.95,66.22c-1.23,22.05-2.83,44.09-4.24,66.14l-9.05,132.24-2.3,33.06-1.25,16.69a83.955,83.955,0,0,1-4,17.31,138.55,138.55,0,0,1-15.05,30.83c-2.96,4.88-6.5,9.32-9.84,13.89-3.72,4.26-7.12,8.82-11.15,12.76l-5.86,6.09c-2.02,1.96-4.13,3.82-6.2,5.73-4.06,3.9-8.43,7.41-12.82,10.9-4.28,3.63-8.91,6.77-13.46,10.02-4.58,3.33-9.08,6.28-13.43,9.49a178.652,178.652,0,0,0-44.32,46.98,283.12,283.12,0,0,0-28.344,59.16A322.658,322.658,0,0,0,913.343,6265a290.319,290.319,0,0,1,38.315-126.37,169.267,169.267,0,0,1,19.8-27.23,193.31,193.31,0,0,1,24.712-22.89c4.445-3.45,9.105-6.65,13.365-9.91,4.35-3.26,8.79-6.42,12.84-10.03,4.16-3.48,8.32-6.97,12.13-10.81,1.94-1.89,3.93-3.72,5.83-5.64l5.47-5.97c3.79-3.86,6.89-8.28,10.35-12.39,3.05-4.42,6.32-8.69,8.97-13.33a127.393,127.393,0,0,0,13.28-28.83,72.952,72.952,0,0,0,3.16-14.97l0.87-16.38,1.9-33.07,7.8-132.27c1.31-22.04,2.82-44.08,3.97-66.13l1.9-66.26,4.16-132.49,2.33-66.22c1.85-21.64.21-43.02-6.38-63.32-12.72-40.65-46.06-73.84-85-90.83l-2.41-1.05-0.18-2.43-1.99-26.75c-0.84-8.9-2.18-17.74-3.2-26.62-1.28-8.84-2.97-17.61-4.5-26.42l-3.067-13.04c-0.981-4.36-2.027-8.71-3.422-12.95l-3.887-12.82-4.718-12.53c-1.432-4.25-3.592-8.17-5.36-12.27a129.972,129.972,0,0,0-6.127-11.9,153.965,153.965,0,0,0-14.968-22.18C953.52,5121.92,947.132,5115.41,939.276,5111Z" transform="translate(-913.344 -5111)"/>
</svg>
