<svg xmlns="http://www.w3.org/2000/svg" width="176.812" height="996.85" viewBox="0 0 176.812 996.85">
  <metadata><?xpacket begin="﻿" id="W5M0MpCehiHzreSzNTczkc9d"?>
<x:xmpmeta xmlns:x="adobe:ns:meta/" x:xmptk="Adobe XMP Core 5.6-c138 79.159824, 2016/09/14-01:09:01        ">
   <rdf:RDF xmlns:rdf="http://www.w3.org/1999/02/22-rdf-syntax-ns#">
      <rdf:Description rdf:about=""/>
   </rdf:RDF>
</x:xmpmeta>
                                                                                                    
                                                                                                    
                                                                                                    
                                                                                                    
                                                                                                    
                                                                                                    
                                                                                                    
                                                                                                    
                                                                                                    
                                                                                                    
                                                                                                    
                                                                                                    
                                                                                                    
                                                                                                    
                                                                                                    
                                                                                                    
                                                                                                    
                                                                                                    
                                                                                                    
                                                                                                    
                           
<?xpacket end="w"?></metadata>
<defs>
    <style>
      .cls-1 {
        fill: #fff;
        fill-rule: evenodd;
      }
    </style>
  </defs>
  <path class="cls-1" d="M760.4,5178.35c7.007,3.44,12.9,8.8,18.272,14.45a119.548,119.548,0,0,1,14.056,18.78,113.342,113.342,0,0,1,5.806,10.22c1.7,3.52,3.742,6.91,5.148,10.57l4.594,10.83,3.872,11.1c1.377,3.68,2.451,7.45,3.468,11.23l3.162,11.34c1.65,7.65,3.451,15.29,4.887,23,1.161,7.74,2.51,15.47,3.468,23.24l2.388,23.38-2.664-3.58a136.86,136.86,0,0,1,26.2,13.76c4.193,2.57,7.968,5.74,11.919,8.67,3.636,3.32,7.567,6.33,10.92,9.96a131.406,131.406,0,0,1,31.485,49.92c6.587,18.83,8.258,39.13,7.054,58.57l-1.272,57.22-3.02,114.41-1.69,57.19-3.683,57.12-7.917,114.23-2.019,28.55-1.08,14.45a72.8,72.8,0,0,1-3.5,15.12,119.94,119.94,0,0,1-13.1,26.81c-2.569,4.24-5.648,8.09-8.553,12.06-3.232,3.7-6.186,7.65-9.687,11.07l-5.091,5.29c-1.752,1.7-3.591,3.31-5.389,4.95-3.539,3.37-7.351,6.39-11.168,9.4-7.5,6.09-15.935,11.41-23.352,16.77a152.944,152.944,0,0,0-38.369,40.32c-20.424,31.78-32.709,68.63-37.576,106.44a250.015,250.015,0,0,1,32.817-109.35,151.98,151.98,0,0,1,38.472-43.56c7.852-6.05,15.443-11.15,22.572-17.31,3.579-3.01,7.148-6.03,10.418-9.35l5.01-4.86,4.714-5.13c3.259-3.33,5.932-7.12,8.907-10.66,2.625-3.79,5.441-7.46,7.723-11.45a109.379,109.379,0,0,0,11.414-24.72,62.828,62.828,0,0,0,2.7-12.75l0.748-14.12,1.624-28.57,6.655-114.25,3.42-57.12,1.639-57.23,3.641-114.45,2.058-57.2c1.445-18.6-.054-36.97-5.589-54.37a121,121,0,0,0-27.97-46.61c-3.034-3.46-6.665-6.35-9.989-9.54-3.647-2.83-7.127-5.88-10.99-8.43a129.138,129.138,0,0,0-23.9-13.59l-2.488-1.06-0.178-2.52-1.626-23.09c-0.692-7.68-1.811-15.3-2.669-22.98-1.08-7.63-2.521-15.2-3.813-22.81l-2.619-11.25c-0.836-3.77-1.729-7.52-2.922-11.18l-3.326-11.08-4.044-10.83c-1.226-3.67-3.082-7.05-4.6-10.59a112.449,112.449,0,0,0-5.263-10.29C782.926,5199.65,773.82,5186.43,760.4,5178.35Z" transform="translate(-737.969 -5178.34)"/>
</svg>
