<svg xmlns="http://www.w3.org/2000/svg" width="190.161" height="1070.9" viewBox="0 0 190.161 1070.9">
  <metadata><?xpacket begin="﻿" id="W5M0MpCehiHzreSzNTczkc9d"?>
<x:xmpmeta xmlns:x="adobe:ns:meta/" x:xmptk="Adobe XMP Core 5.6-c138 79.159824, 2016/09/14-01:09:01        ">
   <rdf:RDF xmlns:rdf="http://www.w3.org/1999/02/22-rdf-syntax-ns#">
      <rdf:Description rdf:about=""/>
   </rdf:RDF>
</x:xmpmeta>
                                                                                                    
                                                                                                    
                                                                                                    
                                                                                                    
                                                                                                    
                                                                                                    
                                                                                                    
                                                                                                    
                                                                                                    
                                                                                                    
                                                                                                    
                                                                                                    
                                                                                                    
                                                                                                    
                                                                                                    
                                                                                                    
                                                                                                    
                                                                                                    
                                                                                                    
                                                                                                    
                           
<?xpacket end="w"?></metadata>
<defs>
    <style>
      .cls-1 {
        fill: #fff;
        fill-rule: evenodd;
        opacity: 0.7;
      }
    </style>
  </defs>
  <path class="cls-1" d="M845.374,5142.42c7.541,3.71,13.874,9.48,19.646,15.56a128.966,128.966,0,0,1,15.1,20.19,122.253,122.253,0,0,1,6.235,10.98c1.823,3.79,4.018,7.42,5.526,11.35l4.928,11.64,4.151,11.93c1.477,3.95,2.627,8,3.716,12.06l3.386,12.18c1.765,8.21,3.692,16.42,5.225,24.69,1.229,8.32,2.649,16.63,3.654,24.97l2.489,25.11-2.6-3.48a149.589,149.589,0,0,1,28.114,14.76,160.135,160.135,0,0,1,24.546,19.95,139.5,139.5,0,0,1,33.991,53.39c7.26,20.1,8.88,42.06,7.4,62.79l-1.4,61.48-3.28,122.91-1.82,61.45c-1.15,20.47-2.65,40.92-3.96,61.38l-8.48,122.72-2.161,30.68-1.175,15.5a77.565,77.565,0,0,1-3.765,16.15,128.412,128.412,0,0,1-14.088,28.68c-2.763,4.54-6.076,8.66-9.2,12.91-3.478,3.96-6.654,8.19-10.421,11.86l-5.475,5.66c-1.887,1.81-3.86,3.54-5.785,5.31-3.792,3.62-7.879,6.88-11.973,10.12-4,3.37-8.318,6.29-12.566,9.3-4.279,3.09-8.475,5.82-12.519,8.79a166.231,166.231,0,0,0-41.3,43.49c-21.965,34.21-35.157,73.83-40.306,114.48a268.316,268.316,0,0,1,35.538-117.38,156.964,156.964,0,0,1,18.449-25.33,179.218,179.218,0,0,1,23.046-21.29c4.148-3.21,8.494-6.19,12.453-9.22,4.048-3.03,8.173-5.95,11.941-9.31,3.875-3.23,7.738-6.46,11.283-10.03,1.8-1.74,3.657-3.44,5.42-5.23l5.087-5.53c3.516-3.58,6.4-7.67,9.612-11.49,2.833-4.09,5.87-8.05,8.334-12.35a118.049,118.049,0,0,0,12.314-26.68,67.761,67.761,0,0,0,2.91-13.81l0.794-15.19,1.764-30.69,7.218-122.75c1.22-20.46,2.628-40.9,3.694-61.37l1.768-61.49,3.9-122.95,2.2-61.46c1.743-20.06.213-39.82-5.885-58.61-11.776-37.61-42.758-68.4-78.943-84.15l-2.421-1.06-0.179-2.42-1.837-24.82c-0.773-8.25-2.012-16.45-2.957-24.69-1.178-8.2-2.743-16.34-4.15-24.51l-2.841-12.1c-0.907-4.05-1.877-8.08-3.169-12.01l-3.6-11.9-4.377-11.63c-1.328-3.94-3.334-7.58-4.975-11.39a119.835,119.835,0,0,0-5.691-11.04C869.7,5165.25,859.846,5151.07,845.374,5142.42Z" transform="translate(-821.219 -5142.44)"/>
</svg>
