<svg xmlns="http://www.w3.org/2000/svg" width="234.81" height="284.84" viewBox="0 0 234.81 284.84">
  <metadata><?xpacket begin="﻿" id="W5M0MpCehiHzreSzNTczkc9d"?>
<x:xmpmeta xmlns:x="adobe:ns:meta/" x:xmptk="Adobe XMP Core 5.6-c138 79.159824, 2016/09/14-01:09:01        ">
   <rdf:RDF xmlns:rdf="http://www.w3.org/1999/02/22-rdf-syntax-ns#">
      <rdf:Description rdf:about=""/>
   </rdf:RDF>
</x:xmpmeta>
                                                                                                    
                                                                                                    
                                                                                                    
                                                                                                    
                                                                                                    
                                                                                                    
                                                                                                    
                                                                                                    
                                                                                                    
                                                                                                    
                                                                                                    
                                                                                                    
                                                                                                    
                                                                                                    
                                                                                                    
                                                                                                    
                                                                                                    
                                                                                                    
                                                                                                    
                                                                                                    
                           
<?xpacket end="w"?></metadata>
<defs>
    <style>
      .cls-1 {
        fill: #facaca;
        fill-rule: evenodd;
      }
    </style>
  </defs>
  <path id="Shape_549_copy" data-name="Shape 549 copy" class="cls-1" d="M1255.75,7119.49a79.5,79.5,0,0,0,14.81,12.33l0.23,0.15,0.17,0.21c0.75,0.94,2.79,5.09-2.47,19.42l-0.51,1.38-1.23-.22c-0.34.04-2.51,0.44-6.25,4.02-1.66-2.42-.01-0.67-2.69-2.36,3.59-3.48,6.2-4.65,7.73-5.02,3.63-10.21,2.95-14.02,2.67-14.92a89.173,89.173,0,0,1-10.18-7.83C1255.87,7121.96,1256.19,7122.8,1255.75,7119.49Zm48.51,198.15,0.04-.12a249.67,249.67,0,0,0,14.69-105.73c-2.1-25.85-7.81-42.31-8.19-43.39-0.38-.87-3.21-7.72.09-14.22,2.52-4.96,7.87-8.29,15.89-9.89a20.429,20.429,0,0,0,11.46-6.45c3.68-4.2,5.71-9.9,6.78-19.07,0.17-1.43,1.43-2.58,2.9-3.92a11.371,11.371,0,0,0,2.03-2.14c0.03-.92-0.72-2.05-1.53-3.25-1.17-1.75-2.49-3.73-2.42-6.31,0.05-1.91,1.35-4.14,2.73-6.49,1.2-2.06,2.7-4.62,2.58-5.97a108.642,108.642,0,0,0-2.63-15.69c-0.5-2.06-1.07-4.05-1.72-5.91a51.719,51.719,0,0,0-2.86-6.77,47.443,47.443,0,0,0-2.59-4.45,48.35,48.35,0,0,0-14.71-14.08c-16.79-10.7-59.38-8.69-75.07,12.33-0.11.15-12.67,17.91-8.79,38.89-2.62-1.46-3.83-1.63-3.96-2.72-2.38-20.93,9.38-37.52,9.91-38.25,7.62-10.21,21.99-17.28,39.45-19.43,15.81-1.95,31.27.44,40.35,6.22a51.739,51.739,0,0,1,15.75,15.11,47.163,47.163,0,0,1,2.79,4.79,54.735,54.735,0,0,1,3.06,7.22c0.68,1.97,1.29,4.06,1.81,6.23a112.983,112.983,0,0,1,2.72,16.2c0.21,2.47-1.44,5.31-3.05,8.05-1.04,1.79-2.23,3.81-2.25,4.82-0.04,1.46.87,2.82,1.83,4.26,1.11,1.66,2.26,3.38,2.1,5.51-0.12,1.66-1.6,3.01-3.16,4.43a12.32,12.32,0,0,0-1.78,1.83c-1.17,9.87-3.45,16.12-7.63,20.88a24.191,24.191,0,0,1-13.41,7.58c-6.89,1.37-11.41,4.07-13.43,8.01-2.69,5.26-.03,11.2-0.01,11.26l0.06,0.13c0.25,0.69,6.18,17.18,8.4,44.23a253.233,253.233,0,0,1-14.84,107.24Zm45.7-204.96h0ZM1279.42,7203l-10.74-36.31-0.09-.16a85.38,85.38,0,0,0-12.4-17.39,25.946,25.946,0,0,0,4.1-15.91c-0.09-1.38-1.54-20.37-17.52-39.58-9.5-11.42-22.19-20.52-37.72-27.03-19.3-8.1-43.07-12.2-70.65-12.2a2.186,2.186,0,0,0-.36.03c-0.45.1-11.08,2.36-13.54,10.05-1.52,4.74.44,10.28,5.84,16.47h-0.1v15.07l12.93,59.53,5.72,4.99,11.91,43.4a1.779,1.779,0,0,0,1.71,1.3h10.01a64.34,64.34,0,0,1-9.21,4.36,10.412,10.412,0,0,0-6.83,9.45v0.19l5.7,25.6c1.45,12.18,8.56,71.73,9.29,73.91l3.38-1.07c-0.59-2.28-5.8-45.11-9.16-73.35l-5.65-25.44a6.851,6.851,0,0,1,4.5-5.97,70.572,70.572,0,0,0,11.04-5.37c7.7-4.67,11.77-9.57,12.11-14.59v-0.07a142.212,142.212,0,0,0-3.92-34.97l-0.03-1.02h-0.24a74.621,74.621,0,0,0-3.76-10.81l-0.04-.06c-0.03-.07-3.36-6.93-0.3-12.15,2.29-3.91,7.62-6.11,15.83-6.54a82.44,82.44,0,0,1,40.53,7.96,75.372,75.372,0,0,1,31.76,29.5,195.739,195.739,0,0,0-24.03-3.2c-20.29-1.32-34.34,1.61-41.78,8.72-7.65,7.32-5.95,33.5,5.18,80.03,8.08,33.76,18.38,65.93,18.48,66.26l3.38-1.09c-0.11-.31-10.36-32.37-18.41-65.99-13.99-58.45-9.87-73.11-6.17-76.65,14.86-14.22,58.31-5.57,65.46-4.03l10.39,35.13a273.57,273.57,0,0,1,11.23,77.59v32.73h3.54v-32.73A276.969,276.969,0,0,0,1279.42,7203Zm-99.27-10.22c-0.23,3.2-2.87,6.28-6.29,8.94h-14l-11.1-40.43,27.99-.75A144.579,144.579,0,0,1,1180.15,7192.78Zm10.9-68.96c-9.5.5-15.8,3.3-18.73,8.31-3.91,6.72-.16,14.73.19,15.45a68.826,68.826,0,0,1,3.33,9.44l-28.74.77-4.71-4.11-12.6-58.02v-13.07a5.84,5.84,0,0,1,5.9,2.8,1.79,1.79,0,0,0,1.71.89c0.52-.05,51.88-4.5,77.21,25.58a1.336,1.336,0,0,0,.21.2c0.08,0.08,7.91,6.85,10.68,16.77-0.76-.28-1.53-0.55-2.3-0.8l0.17-.14c-11.06-14.37-30.51-24.04-56.23-27.95a171.682,171.682,0,0,0-35.73-1.61l0.3,3.53c0.6-.05,58.55-4.54,85.7,24.49A88.976,88.976,0,0,0,1191.05,7123.82Zm42.27,8.32c-1.27-.62-2.56-1.2-3.87-1.75l0.06-.01c-2.24-11.79-11.09-19.87-12.28-20.91-11.01-13.01-28.36-21.75-50.19-25.29a133.44,133.44,0,0,0-28.9-1.51,9.5,9.5,0,0,0-8.76-3.6c-4.8-5.37-6.65-9.9-5.5-13.49,1.68-5.28,9.49-7.33,10.71-7.62,26.95,0.02,50.14,4.01,68.93,11.86,15,6.26,27.24,14.98,36.39,25.92,15.58,18.64,16.83,37.55,16.84,37.74,0,0.03.01,0.07,0.01,0.1a22.725,22.725,0,0,1-3.11,12.93A77.422,77.422,0,0,0,1233.32,7132.14Z" transform="translate(-1120 -7033.94)"/>
</svg>
